%FSLAX46Y46*%
G04 Gerber Fmt 4.6, Leading zero omitted, Abs format (unit mm)*
G04 Created by KiCad (PCBNEW (20140926 BZR5148)-product) date Sat 01 Nov 2014 11:29:57 PM CDT*
%MOMM*%
G01*
G04 APERTURE LIST*
%ADD10C,0.150000*%
%ADD11C,0.300000*%
%ADD12C,0.200000*%
%ADD13C,0.099060*%
%ADD14C,0.127000*%
%ADD15C,0.317500*%
%ADD16C,0.109220*%
%ADD17C,0.203200*%
%ADD18C,0.304800*%
G04 APERTURE END LIST*
D10*
D11*
X188400571Y-135429571D02*
X189400571Y-135429571D01*
X187829143Y-135786714D02*
X188900571Y-136143857D01*
X188900571Y-135215285D01*
X188543429Y-134429571D02*
X188472000Y-134572429D01*
X188400571Y-134643857D01*
X188257714Y-134715286D01*
X188186286Y-134715286D01*
X188043429Y-134643857D01*
X187972000Y-134572429D01*
X187900571Y-134429571D01*
X187900571Y-134143857D01*
X187972000Y-134001000D01*
X188043429Y-133929571D01*
X188186286Y-133858143D01*
X188257714Y-133858143D01*
X188400571Y-133929571D01*
X188472000Y-134001000D01*
X188543429Y-134143857D01*
X188543429Y-134429571D01*
X188614857Y-134572429D01*
X188686286Y-134643857D01*
X188829143Y-134715286D01*
X189114857Y-134715286D01*
X189257714Y-134643857D01*
X189329143Y-134572429D01*
X189400571Y-134429571D01*
X189400571Y-134143857D01*
X189329143Y-134001000D01*
X189257714Y-133929571D01*
X189114857Y-133858143D01*
X188829143Y-133858143D01*
X188686286Y-133929571D01*
X188614857Y-134001000D01*
X188543429Y-134143857D01*
X187773571Y-128444571D02*
X187773571Y-128730285D01*
X187845000Y-128873142D01*
X187916429Y-128944571D01*
X188130714Y-129087428D01*
X188416429Y-129158857D01*
X188987857Y-129158857D01*
X189130714Y-129087428D01*
X189202143Y-129016000D01*
X189273571Y-128873142D01*
X189273571Y-128587428D01*
X189202143Y-128444571D01*
X189130714Y-128373142D01*
X188987857Y-128301714D01*
X188630714Y-128301714D01*
X188487857Y-128373142D01*
X188416429Y-128444571D01*
X188345000Y-128587428D01*
X188345000Y-128873142D01*
X188416429Y-129016000D01*
X188487857Y-129087428D01*
X188630714Y-129158857D01*
X188273571Y-127016000D02*
X189273571Y-127016000D01*
X187702143Y-127373143D02*
X188773571Y-127730286D01*
X188773571Y-126801714D01*
X230310571Y-128444571D02*
X231310571Y-128444571D01*
X229739143Y-128801714D02*
X230810571Y-129158857D01*
X230810571Y-128230285D01*
X231310571Y-127587429D02*
X231310571Y-127301714D01*
X231239143Y-127158857D01*
X231167714Y-127087429D01*
X230953429Y-126944571D01*
X230667714Y-126873143D01*
X230096286Y-126873143D01*
X229953429Y-126944571D01*
X229882000Y-127016000D01*
X229810571Y-127158857D01*
X229810571Y-127444571D01*
X229882000Y-127587429D01*
X229953429Y-127658857D01*
X230096286Y-127730286D01*
X230453429Y-127730286D01*
X230596286Y-127658857D01*
X230667714Y-127587429D01*
X230739143Y-127444571D01*
X230739143Y-127158857D01*
X230667714Y-127016000D01*
X230596286Y-126944571D01*
X230453429Y-126873143D01*
X229810571Y-136850285D02*
X229810571Y-135921714D01*
X230382000Y-136421714D01*
X230382000Y-136207428D01*
X230453429Y-136064571D01*
X230524857Y-135993142D01*
X230667714Y-135921714D01*
X231024857Y-135921714D01*
X231167714Y-135993142D01*
X231239143Y-136064571D01*
X231310571Y-136207428D01*
X231310571Y-136636000D01*
X231239143Y-136778857D01*
X231167714Y-136850285D01*
X229810571Y-135421714D02*
X229810571Y-134493143D01*
X230382000Y-134993143D01*
X230382000Y-134778857D01*
X230453429Y-134636000D01*
X230524857Y-134564571D01*
X230667714Y-134493143D01*
X231024857Y-134493143D01*
X231167714Y-134564571D01*
X231239143Y-134636000D01*
X231310571Y-134778857D01*
X231310571Y-135207429D01*
X231239143Y-135350286D01*
X231167714Y-135421714D01*
X229937571Y-164155285D02*
X229937571Y-163226714D01*
X230509000Y-163726714D01*
X230509000Y-163512428D01*
X230580429Y-163369571D01*
X230651857Y-163298142D01*
X230794714Y-163226714D01*
X231151857Y-163226714D01*
X231294714Y-163298142D01*
X231366143Y-163369571D01*
X231437571Y-163512428D01*
X231437571Y-163941000D01*
X231366143Y-164083857D01*
X231294714Y-164155285D01*
X230080429Y-162655286D02*
X230009000Y-162583857D01*
X229937571Y-162441000D01*
X229937571Y-162083857D01*
X230009000Y-161941000D01*
X230080429Y-161869571D01*
X230223286Y-161798143D01*
X230366143Y-161798143D01*
X230580429Y-161869571D01*
X231437571Y-162726714D01*
X231437571Y-161798143D01*
X231310571Y-170719714D02*
X231310571Y-171576857D01*
X231310571Y-171148285D02*
X229810571Y-171148285D01*
X230024857Y-171291142D01*
X230167714Y-171434000D01*
X230239143Y-171576857D01*
X229810571Y-169434000D02*
X229810571Y-169719714D01*
X229882000Y-169862571D01*
X229953429Y-169934000D01*
X230167714Y-170076857D01*
X230453429Y-170148286D01*
X231024857Y-170148286D01*
X231167714Y-170076857D01*
X231239143Y-170005429D01*
X231310571Y-169862571D01*
X231310571Y-169576857D01*
X231239143Y-169434000D01*
X231167714Y-169362571D01*
X231024857Y-169291143D01*
X230667714Y-169291143D01*
X230524857Y-169362571D01*
X230453429Y-169434000D01*
X230382000Y-169576857D01*
X230382000Y-169862571D01*
X230453429Y-170005429D01*
X230524857Y-170076857D01*
X230667714Y-170148286D01*
X190035571Y-162591714D02*
X190035571Y-163448857D01*
X190035571Y-163020285D02*
X188535571Y-163020285D01*
X188749857Y-163163142D01*
X188892714Y-163306000D01*
X188964143Y-163448857D01*
X188535571Y-162091714D02*
X188535571Y-161091714D01*
X190035571Y-161734571D01*
X190035571Y-170513428D02*
X190035571Y-171370571D01*
X190035571Y-170941999D02*
X188535571Y-170941999D01*
X188749857Y-171084856D01*
X188892714Y-171227714D01*
X188964143Y-171370571D01*
X219499571Y-160039571D02*
X218785286Y-160539571D01*
X219499571Y-160896714D02*
X217999571Y-160896714D01*
X217999571Y-160325286D01*
X218071000Y-160182428D01*
X218142429Y-160111000D01*
X218285286Y-160039571D01*
X218499571Y-160039571D01*
X218642429Y-160111000D01*
X218713857Y-160182428D01*
X218785286Y-160325286D01*
X218785286Y-160896714D01*
X218713857Y-159396714D02*
X218713857Y-158896714D01*
X219499571Y-158682428D02*
X219499571Y-159396714D01*
X217999571Y-159396714D01*
X217999571Y-158682428D01*
X219428143Y-158111000D02*
X219499571Y-157896714D01*
X219499571Y-157539571D01*
X219428143Y-157396714D01*
X219356714Y-157325285D01*
X219213857Y-157253857D01*
X219071000Y-157253857D01*
X218928143Y-157325285D01*
X218856714Y-157396714D01*
X218785286Y-157539571D01*
X218713857Y-157825285D01*
X218642429Y-157968143D01*
X218571000Y-158039571D01*
X218428143Y-158111000D01*
X218285286Y-158111000D01*
X218142429Y-158039571D01*
X218071000Y-157968143D01*
X217999571Y-157825285D01*
X217999571Y-157468143D01*
X218071000Y-157253857D01*
X218713857Y-156611000D02*
X218713857Y-156111000D01*
X219499571Y-155896714D02*
X219499571Y-156611000D01*
X217999571Y-156611000D01*
X217999571Y-155896714D01*
X217999571Y-155468143D02*
X217999571Y-154611000D01*
X219499571Y-155039571D02*
X217999571Y-155039571D01*
X200322571Y-162000285D02*
X199608286Y-162500285D01*
X200322571Y-162857428D02*
X198822571Y-162857428D01*
X198822571Y-162286000D01*
X198894000Y-162143142D01*
X198965429Y-162071714D01*
X199108286Y-162000285D01*
X199322571Y-162000285D01*
X199465429Y-162071714D01*
X199536857Y-162143142D01*
X199608286Y-162286000D01*
X199608286Y-162857428D01*
X198822571Y-161500285D02*
X200322571Y-160500285D01*
X198822571Y-160500285D02*
X200322571Y-161500285D01*
X198965429Y-160000286D02*
X198894000Y-159928857D01*
X198822571Y-159786000D01*
X198822571Y-159428857D01*
X198894000Y-159286000D01*
X198965429Y-159214571D01*
X199108286Y-159143143D01*
X199251143Y-159143143D01*
X199465429Y-159214571D01*
X200322571Y-160071714D01*
X200322571Y-159143143D01*
X196155571Y-162893142D02*
X196155571Y-162035999D01*
X197655571Y-162464570D02*
X196155571Y-162464570D01*
X196155571Y-161678856D02*
X197655571Y-160678856D01*
X196155571Y-160678856D02*
X197655571Y-161678856D01*
X196298429Y-160178857D02*
X196227000Y-160107428D01*
X196155571Y-159964571D01*
X196155571Y-159607428D01*
X196227000Y-159464571D01*
X196298429Y-159393142D01*
X196441286Y-159321714D01*
X196584143Y-159321714D01*
X196798429Y-159393142D01*
X197655571Y-160250285D01*
X197655571Y-159321714D01*
X194988571Y-161746285D02*
X194274286Y-162246285D01*
X194988571Y-162603428D02*
X193488571Y-162603428D01*
X193488571Y-162032000D01*
X193560000Y-161889142D01*
X193631429Y-161817714D01*
X193774286Y-161746285D01*
X193988571Y-161746285D01*
X194131429Y-161817714D01*
X194202857Y-161889142D01*
X194274286Y-162032000D01*
X194274286Y-162603428D01*
X193488571Y-161246285D02*
X194988571Y-160246285D01*
X193488571Y-160246285D02*
X194988571Y-161246285D01*
X194988571Y-158889143D02*
X194988571Y-159746286D01*
X194988571Y-159317714D02*
X193488571Y-159317714D01*
X193702857Y-159460571D01*
X193845714Y-159603429D01*
X193917143Y-159746286D01*
X191075571Y-162766142D02*
X191075571Y-161908999D01*
X192575571Y-162337570D02*
X191075571Y-162337570D01*
X191075571Y-161551856D02*
X192575571Y-160551856D01*
X191075571Y-160551856D02*
X192575571Y-161551856D01*
X192575571Y-159194714D02*
X192575571Y-160051857D01*
X192575571Y-159623285D02*
X191075571Y-159623285D01*
X191289857Y-159766142D01*
X191432714Y-159909000D01*
X191504143Y-160051857D01*
X230548571Y-148010143D02*
X229048571Y-148010143D01*
X229048571Y-147653000D01*
X229120000Y-147438715D01*
X229262857Y-147295857D01*
X229405714Y-147224429D01*
X229691429Y-147153000D01*
X229905714Y-147153000D01*
X230191429Y-147224429D01*
X230334286Y-147295857D01*
X230477143Y-147438715D01*
X230548571Y-147653000D01*
X230548571Y-148010143D01*
X229762857Y-146510143D02*
X229762857Y-146010143D01*
X230548571Y-145795857D02*
X230548571Y-146510143D01*
X229048571Y-146510143D01*
X229048571Y-145795857D01*
X229762857Y-144653000D02*
X229834286Y-144438714D01*
X229905714Y-144367286D01*
X230048571Y-144295857D01*
X230262857Y-144295857D01*
X230405714Y-144367286D01*
X230477143Y-144438714D01*
X230548571Y-144581572D01*
X230548571Y-145153000D01*
X229048571Y-145153000D01*
X229048571Y-144653000D01*
X229120000Y-144510143D01*
X229191429Y-144438714D01*
X229334286Y-144367286D01*
X229477143Y-144367286D01*
X229620000Y-144438714D01*
X229691429Y-144510143D01*
X229762857Y-144653000D01*
X229762857Y-145153000D01*
X229048571Y-143653000D02*
X230262857Y-143653000D01*
X230405714Y-143581572D01*
X230477143Y-143510143D01*
X230548571Y-143367286D01*
X230548571Y-143081572D01*
X230477143Y-142938714D01*
X230405714Y-142867286D01*
X230262857Y-142795857D01*
X229048571Y-142795857D01*
X229120000Y-141295857D02*
X229048571Y-141438714D01*
X229048571Y-141653000D01*
X229120000Y-141867285D01*
X229262857Y-142010143D01*
X229405714Y-142081571D01*
X229691429Y-142153000D01*
X229905714Y-142153000D01*
X230191429Y-142081571D01*
X230334286Y-142010143D01*
X230477143Y-141867285D01*
X230548571Y-141653000D01*
X230548571Y-141510143D01*
X230477143Y-141295857D01*
X230405714Y-141224428D01*
X229905714Y-141224428D01*
X229905714Y-141510143D01*
D12*
X222250000Y-144907000D02*
X224790000Y-144907000D01*
D11*
X220357000Y-150621857D02*
X220285571Y-150764714D01*
X220285571Y-150979000D01*
X220357000Y-151193285D01*
X220499857Y-151336143D01*
X220642714Y-151407571D01*
X220928429Y-151479000D01*
X221142714Y-151479000D01*
X221428429Y-151407571D01*
X221571286Y-151336143D01*
X221714143Y-151193285D01*
X221785571Y-150979000D01*
X221785571Y-150836143D01*
X221714143Y-150621857D01*
X221642714Y-150550428D01*
X221142714Y-150550428D01*
X221142714Y-150836143D01*
X221785571Y-149907571D02*
X220285571Y-149907571D01*
X221785571Y-149050428D01*
X220285571Y-149050428D01*
X221785571Y-148336142D02*
X220285571Y-148336142D01*
X220285571Y-147978999D01*
X220357000Y-147764714D01*
X220499857Y-147621856D01*
X220642714Y-147550428D01*
X220928429Y-147478999D01*
X221142714Y-147478999D01*
X221428429Y-147550428D01*
X221571286Y-147621856D01*
X221714143Y-147764714D01*
X221785571Y-147978999D01*
X221785571Y-148336142D01*
X220158571Y-141993713D02*
X220158571Y-141065142D01*
X220730000Y-141565142D01*
X220730000Y-141350856D01*
X220801429Y-141207999D01*
X220872857Y-141136570D01*
X221015714Y-141065142D01*
X221372857Y-141065142D01*
X221515714Y-141136570D01*
X221587143Y-141207999D01*
X221658571Y-141350856D01*
X221658571Y-141779428D01*
X221587143Y-141922285D01*
X221515714Y-141993713D01*
X220658571Y-140565142D02*
X221658571Y-140207999D01*
X220658571Y-139850857D01*
X220158571Y-139422285D02*
X220158571Y-138493714D01*
X220730000Y-138993714D01*
X220730000Y-138779428D01*
X220801429Y-138636571D01*
X220872857Y-138565142D01*
X221015714Y-138493714D01*
X221372857Y-138493714D01*
X221515714Y-138565142D01*
X221587143Y-138636571D01*
X221658571Y-138779428D01*
X221658571Y-139208000D01*
X221587143Y-139350857D01*
X221515714Y-139422285D01*
D12*
X205232000Y-153543000D02*
G75*
G03X205232000Y-153543000I-127000J0D01*
G74*
G01*
D10*
X204375000Y-152495000D02*
X205450000Y-152495000D01*
X204375000Y-142145000D02*
X205450000Y-142145000D01*
X214725000Y-142145000D02*
X213650000Y-142145000D01*
X214725000Y-152495000D02*
X213650000Y-152495000D01*
X204375000Y-152495000D02*
X204375000Y-151420000D01*
X214725000Y-152495000D02*
X214725000Y-151420000D01*
X214725000Y-142145000D02*
X214725000Y-143220000D01*
X204375000Y-142145000D02*
X204375000Y-143220000D01*
X205450000Y-152495000D02*
X205450000Y-153520000D01*
D13*
X220675200Y-143814800D02*
G75*
G03X220675200Y-143814800I-127000J0D01*
G74*
G01*
X219405200Y-143814800D02*
X220421200Y-143814800D01*
X220421200Y-143814800D02*
X220421200Y-145338800D01*
X220421200Y-145338800D02*
X219405200Y-145338800D01*
X218389200Y-145338800D02*
X217373200Y-145338800D01*
X217373200Y-145338800D02*
X217373200Y-143814800D01*
X217373200Y-143814800D02*
X218389200Y-143814800D01*
D10*
X222250000Y-149860000D02*
X222250000Y-137160000D01*
X222250000Y-137160000D02*
X224790000Y-137160000D01*
X224790000Y-137160000D02*
X224790000Y-149860000D01*
X222250000Y-152400000D02*
X222250000Y-149860000D01*
X222250000Y-149860000D02*
X224790000Y-149860000D01*
X222250000Y-152400000D02*
X224790000Y-152400000D01*
X224790000Y-152400000D02*
X224790000Y-149860000D01*
X226060000Y-149860000D02*
X226060000Y-137160000D01*
X226060000Y-137160000D02*
X228600000Y-137160000D01*
X228600000Y-137160000D02*
X228600000Y-149860000D01*
X226060000Y-152400000D02*
X226060000Y-149860000D01*
X226060000Y-149860000D02*
X228600000Y-149860000D01*
X226060000Y-152400000D02*
X228600000Y-152400000D01*
X228600000Y-152400000D02*
X228600000Y-149860000D01*
X193040000Y-158750000D02*
X200660000Y-158750000D01*
X193040000Y-156210000D02*
X200660000Y-156210000D01*
X190500000Y-156210000D02*
X193040000Y-156210000D01*
X200660000Y-158750000D02*
X200660000Y-156210000D01*
X193040000Y-156210000D02*
X193040000Y-158750000D01*
X190500000Y-156210000D02*
X190500000Y-158750000D01*
X190500000Y-158750000D02*
X193040000Y-158750000D01*
X191770000Y-170180000D02*
X229870000Y-170180000D01*
X229870000Y-170180000D02*
X229870000Y-167640000D01*
X229870000Y-167640000D02*
X191770000Y-167640000D01*
X189230000Y-167640000D02*
X191770000Y-167640000D01*
X191770000Y-167640000D02*
X191770000Y-170180000D01*
X189230000Y-167640000D02*
X189230000Y-170180000D01*
X189230000Y-170180000D02*
X191770000Y-170180000D01*
X191770000Y-166370000D02*
X229870000Y-166370000D01*
X229870000Y-166370000D02*
X229870000Y-163830000D01*
X229870000Y-163830000D02*
X191770000Y-163830000D01*
X189230000Y-163830000D02*
X191770000Y-163830000D01*
X191770000Y-163830000D02*
X191770000Y-166370000D01*
X189230000Y-163830000D02*
X189230000Y-166370000D01*
X189230000Y-166370000D02*
X191770000Y-166370000D01*
X227330000Y-132080000D02*
X189230000Y-132080000D01*
X189230000Y-132080000D02*
X189230000Y-134620000D01*
X189230000Y-134620000D02*
X227330000Y-134620000D01*
X229870000Y-134620000D02*
X227330000Y-134620000D01*
X227330000Y-134620000D02*
X227330000Y-132080000D01*
X229870000Y-134620000D02*
X229870000Y-132080000D01*
X229870000Y-132080000D02*
X227330000Y-132080000D01*
X227330000Y-128270000D02*
X189230000Y-128270000D01*
X189230000Y-128270000D02*
X189230000Y-130810000D01*
X189230000Y-130810000D02*
X227330000Y-130810000D01*
X229870000Y-130810000D02*
X227330000Y-130810000D01*
X227330000Y-130810000D02*
X227330000Y-128270000D01*
X229870000Y-130810000D02*
X229870000Y-128270000D01*
X229870000Y-128270000D02*
X227330000Y-128270000D01*
D14*
X227330000Y-157480000D02*
G75*
G03X227330000Y-157480000I-2540000J0D01*
G74*
G01*
X220980000Y-153670000D02*
X228600000Y-153670000D01*
X228600000Y-153670000D02*
X228600000Y-161290000D01*
X228600000Y-161290000D02*
X220980000Y-161290000D01*
X220980000Y-153670000D02*
X220980000Y-161290000D01*
D15*
X192405000Y-142240000D02*
X198755000Y-142240000D01*
X192405000Y-137160000D02*
X198755000Y-137160000D01*
X201295000Y-139700000D02*
G75*
G03X198755000Y-137160000I-2540000J0D01*
G74*
G01*
X198755000Y-142240000D02*
G75*
G03X201295000Y-139700000I0J2540000D01*
G74*
G01*
X192405000Y-137160000D02*
G75*
G03X189865000Y-139700000I0J-2540000D01*
G74*
G01*
X189865000Y-139700000D02*
G75*
G03X192405000Y-142240000I2540000J0D01*
G74*
G01*
X192405000Y-152400000D02*
X198755000Y-152400000D01*
X192405000Y-147320000D02*
X198755000Y-147320000D01*
X201295000Y-149860000D02*
G75*
G03X198755000Y-147320000I-2540000J0D01*
G74*
G01*
X198755000Y-152400000D02*
G75*
G03X201295000Y-149860000I0J2540000D01*
G74*
G01*
X192405000Y-147320000D02*
G75*
G03X189865000Y-149860000I0J-2540000D01*
G74*
G01*
X189865000Y-149860000D02*
G75*
G03X192405000Y-152400000I2540000J0D01*
G74*
G01*
D10*
X201802381Y-148081905D02*
X202611905Y-148081905D01*
X202707143Y-148034286D01*
X202754762Y-147986667D01*
X202802381Y-147891429D01*
X202802381Y-147700952D01*
X202754762Y-147605714D01*
X202707143Y-147558095D01*
X202611905Y-147510476D01*
X201802381Y-147510476D01*
X202802381Y-146510476D02*
X202802381Y-147081905D01*
X202802381Y-146796191D02*
X201802381Y-146796191D01*
X201945238Y-146891429D01*
X202040476Y-146986667D01*
X202088095Y-147081905D01*
D16*
X218813804Y-145073007D02*
X218789976Y-145096835D01*
X218718493Y-145120662D01*
X218670838Y-145120662D01*
X218599355Y-145096835D01*
X218551700Y-145049180D01*
X218527872Y-145001524D01*
X218504044Y-144906214D01*
X218504044Y-144834731D01*
X218527872Y-144739420D01*
X218551700Y-144691765D01*
X218599355Y-144644110D01*
X218670838Y-144620282D01*
X218718493Y-144620282D01*
X218789976Y-144644110D01*
X218813804Y-144667938D01*
X219242701Y-144620282D02*
X219147390Y-144620282D01*
X219099735Y-144644110D01*
X219075907Y-144667938D01*
X219028252Y-144739420D01*
X219004424Y-144834731D01*
X219004424Y-145025352D01*
X219028252Y-145073007D01*
X219052080Y-145096835D01*
X219099735Y-145120662D01*
X219195045Y-145120662D01*
X219242701Y-145096835D01*
X219266528Y-145073007D01*
X219290356Y-145025352D01*
X219290356Y-144906214D01*
X219266528Y-144858559D01*
X219242701Y-144834731D01*
X219195045Y-144810903D01*
X219099735Y-144810903D01*
X219052080Y-144834731D01*
X219028252Y-144858559D01*
X219004424Y-144906214D01*
X218194286Y-144088576D02*
X218194286Y-144422162D01*
X218075148Y-143897955D02*
X217956009Y-144255369D01*
X218265769Y-144255369D01*
X218456389Y-144374507D02*
X218480217Y-144398335D01*
X218456389Y-144422162D01*
X218432561Y-144398335D01*
X218456389Y-144374507D01*
X218456389Y-144422162D01*
X218647010Y-143921782D02*
X218980597Y-143921782D01*
X218766148Y-144422162D01*
X219385666Y-144088576D02*
X219385666Y-144422162D01*
X219171217Y-144088576D02*
X219171217Y-144350680D01*
X219195045Y-144398335D01*
X219242700Y-144422162D01*
X219314183Y-144422162D01*
X219361838Y-144398335D01*
X219385666Y-144374507D01*
X219790735Y-144160059D02*
X219623942Y-144160059D01*
X219623942Y-144422162D02*
X219623942Y-143921782D01*
X219862218Y-143921782D01*
D17*
X224221524Y-136700381D02*
X222951524Y-136700381D01*
X222951524Y-136216572D01*
X223012000Y-136095619D01*
X223072476Y-136035143D01*
X223193429Y-135974667D01*
X223374857Y-135974667D01*
X223495810Y-136035143D01*
X223556286Y-136095619D01*
X223616762Y-136216572D01*
X223616762Y-136700381D01*
X224221524Y-134765143D02*
X224221524Y-135490857D01*
X224221524Y-135128000D02*
X222951524Y-135128000D01*
X223132952Y-135248952D01*
X223253905Y-135369905D01*
X223314381Y-135490857D01*
X227904524Y-136827381D02*
X226634524Y-136827381D01*
X226634524Y-136343572D01*
X226695000Y-136222619D01*
X226755476Y-136162143D01*
X226876429Y-136101667D01*
X227057857Y-136101667D01*
X227178810Y-136162143D01*
X227239286Y-136222619D01*
X227299762Y-136343572D01*
X227299762Y-136827381D01*
X226755476Y-135617857D02*
X226695000Y-135557381D01*
X226634524Y-135436429D01*
X226634524Y-135134048D01*
X226695000Y-135013095D01*
X226755476Y-134952619D01*
X226876429Y-134892143D01*
X226997381Y-134892143D01*
X227178810Y-134952619D01*
X227904524Y-135678333D01*
X227904524Y-134892143D01*
X208866619Y-171516524D02*
X208866619Y-170246524D01*
X209350428Y-170246524D01*
X209471381Y-170307000D01*
X209531857Y-170367476D01*
X209592333Y-170488429D01*
X209592333Y-170669857D01*
X209531857Y-170790810D01*
X209471381Y-170851286D01*
X209350428Y-170911762D01*
X208866619Y-170911762D01*
X210680905Y-170669857D02*
X210680905Y-171516524D01*
X210378524Y-170186048D02*
X210076143Y-171093190D01*
X210862333Y-171093190D01*
X208866619Y-163515524D02*
X208866619Y-162245524D01*
X209350428Y-162245524D01*
X209471381Y-162306000D01*
X209531857Y-162366476D01*
X209592333Y-162487429D01*
X209592333Y-162668857D01*
X209531857Y-162789810D01*
X209471381Y-162850286D01*
X209350428Y-162910762D01*
X208866619Y-162910762D01*
X210741381Y-162245524D02*
X210136619Y-162245524D01*
X210076143Y-162850286D01*
X210136619Y-162789810D01*
X210257571Y-162729333D01*
X210559952Y-162729333D01*
X210680905Y-162789810D01*
X210741381Y-162850286D01*
X210801857Y-162971238D01*
X210801857Y-163273619D01*
X210741381Y-163394571D01*
X210680905Y-163455048D01*
X210559952Y-163515524D01*
X210257571Y-163515524D01*
X210136619Y-163455048D01*
X210076143Y-163394571D01*
X208612619Y-136591524D02*
X208612619Y-135321524D01*
X209096428Y-135321524D01*
X209217381Y-135382000D01*
X209277857Y-135442476D01*
X209338333Y-135563429D01*
X209338333Y-135744857D01*
X209277857Y-135865810D01*
X209217381Y-135926286D01*
X209096428Y-135986762D01*
X208612619Y-135986762D01*
X210426905Y-135321524D02*
X210185000Y-135321524D01*
X210064048Y-135382000D01*
X210003571Y-135442476D01*
X209882619Y-135623905D01*
X209822143Y-135865810D01*
X209822143Y-136349619D01*
X209882619Y-136470571D01*
X209943095Y-136531048D01*
X210064048Y-136591524D01*
X210305952Y-136591524D01*
X210426905Y-136531048D01*
X210487381Y-136470571D01*
X210547857Y-136349619D01*
X210547857Y-136047238D01*
X210487381Y-135926286D01*
X210426905Y-135865810D01*
X210305952Y-135805333D01*
X210064048Y-135805333D01*
X209943095Y-135865810D01*
X209882619Y-135926286D01*
X209822143Y-136047238D01*
X208485619Y-128082524D02*
X208485619Y-126812524D01*
X208969428Y-126812524D01*
X209090381Y-126873000D01*
X209150857Y-126933476D01*
X209211333Y-127054429D01*
X209211333Y-127235857D01*
X209150857Y-127356810D01*
X209090381Y-127417286D01*
X208969428Y-127477762D01*
X208485619Y-127477762D01*
X209634667Y-126812524D02*
X210481333Y-126812524D01*
X209937048Y-128082524D01*
X223435334Y-157129238D02*
X223580477Y-157177619D01*
X223822381Y-157177619D01*
X223919143Y-157129238D01*
X223967524Y-157080857D01*
X224015905Y-156984095D01*
X224015905Y-156887333D01*
X223967524Y-156790571D01*
X223919143Y-156742190D01*
X223822381Y-156693810D01*
X223628858Y-156645429D01*
X223532096Y-156597048D01*
X223483715Y-156548667D01*
X223435334Y-156451905D01*
X223435334Y-156355143D01*
X223483715Y-156258381D01*
X223532096Y-156210000D01*
X223628858Y-156161619D01*
X223870762Y-156161619D01*
X224015905Y-156210000D01*
X224354572Y-156161619D02*
X224596477Y-157177619D01*
X224790000Y-156451905D01*
X224983524Y-157177619D01*
X225225429Y-156161619D01*
X226144667Y-157177619D02*
X225564096Y-157177619D01*
X225854382Y-157177619D02*
X225854382Y-156161619D01*
X225757620Y-156306762D01*
X225660858Y-156403524D01*
X225564096Y-156451905D01*
D18*
X194346285Y-135055429D02*
X195362285Y-136579429D01*
X195362285Y-135055429D02*
X194346285Y-136579429D01*
X196741143Y-136579429D02*
X195870286Y-136579429D01*
X196305714Y-136579429D02*
X196305714Y-135055429D01*
X196160571Y-135273143D01*
X196015429Y-135418286D01*
X195870286Y-135490857D01*
X191044285Y-142675429D02*
X191987714Y-142675429D01*
X191479714Y-143256000D01*
X191697428Y-143256000D01*
X191842571Y-143328571D01*
X191915142Y-143401143D01*
X191987714Y-143546286D01*
X191987714Y-143909143D01*
X191915142Y-144054286D01*
X191842571Y-144126857D01*
X191697428Y-144199429D01*
X191262000Y-144199429D01*
X191116857Y-144126857D01*
X191044285Y-144054286D01*
X192568286Y-142820571D02*
X192640857Y-142748000D01*
X192786000Y-142675429D01*
X193148857Y-142675429D01*
X193294000Y-142748000D01*
X193366571Y-142820571D01*
X193439143Y-142965714D01*
X193439143Y-143110857D01*
X193366571Y-143328571D01*
X192495714Y-144199429D01*
X193439143Y-144199429D01*
X194092286Y-144054286D02*
X194164858Y-144126857D01*
X194092286Y-144199429D01*
X194019715Y-144126857D01*
X194092286Y-144054286D01*
X194092286Y-144199429D01*
X194672857Y-142675429D02*
X195688857Y-142675429D01*
X195035714Y-144199429D01*
X196922572Y-142675429D02*
X196632286Y-142675429D01*
X196487143Y-142748000D01*
X196414572Y-142820571D01*
X196269429Y-143038286D01*
X196196858Y-143328571D01*
X196196858Y-143909143D01*
X196269429Y-144054286D01*
X196342001Y-144126857D01*
X196487143Y-144199429D01*
X196777429Y-144199429D01*
X196922572Y-144126857D01*
X196995143Y-144054286D01*
X197067715Y-143909143D01*
X197067715Y-143546286D01*
X196995143Y-143401143D01*
X196922572Y-143328571D01*
X196777429Y-143256000D01*
X196487143Y-143256000D01*
X196342001Y-143328571D01*
X196269429Y-143401143D01*
X196196858Y-143546286D01*
X197938572Y-143328571D02*
X197793430Y-143256000D01*
X197720858Y-143183429D01*
X197648287Y-143038286D01*
X197648287Y-142965714D01*
X197720858Y-142820571D01*
X197793430Y-142748000D01*
X197938572Y-142675429D01*
X198228858Y-142675429D01*
X198374001Y-142748000D01*
X198446572Y-142820571D01*
X198519144Y-142965714D01*
X198519144Y-143038286D01*
X198446572Y-143183429D01*
X198374001Y-143256000D01*
X198228858Y-143328571D01*
X197938572Y-143328571D01*
X197793430Y-143401143D01*
X197720858Y-143473714D01*
X197648287Y-143618857D01*
X197648287Y-143909143D01*
X197720858Y-144054286D01*
X197793430Y-144126857D01*
X197938572Y-144199429D01*
X198228858Y-144199429D01*
X198374001Y-144126857D01*
X198446572Y-144054286D01*
X198519144Y-143909143D01*
X198519144Y-143618857D01*
X198446572Y-143473714D01*
X198374001Y-143401143D01*
X198228858Y-143328571D01*
X199172287Y-144199429D02*
X199172287Y-142675429D01*
X200043144Y-144199429D02*
X199390001Y-143328571D01*
X200043144Y-142675429D02*
X199172287Y-143546286D01*
X194346285Y-145215429D02*
X195362285Y-146739429D01*
X195362285Y-145215429D02*
X194346285Y-146739429D01*
X195870286Y-145360571D02*
X195942857Y-145288000D01*
X196088000Y-145215429D01*
X196450857Y-145215429D01*
X196596000Y-145288000D01*
X196668571Y-145360571D01*
X196741143Y-145505714D01*
X196741143Y-145650857D01*
X196668571Y-145868571D01*
X195797714Y-146739429D01*
X196741143Y-146739429D01*
X193148857Y-153488571D02*
X193003715Y-153416000D01*
X192931143Y-153343429D01*
X192858572Y-153198286D01*
X192858572Y-153125714D01*
X192931143Y-152980571D01*
X193003715Y-152908000D01*
X193148857Y-152835429D01*
X193439143Y-152835429D01*
X193584286Y-152908000D01*
X193656857Y-152980571D01*
X193729429Y-153125714D01*
X193729429Y-153198286D01*
X193656857Y-153343429D01*
X193584286Y-153416000D01*
X193439143Y-153488571D01*
X193148857Y-153488571D01*
X193003715Y-153561143D01*
X192931143Y-153633714D01*
X192858572Y-153778857D01*
X192858572Y-154069143D01*
X192931143Y-154214286D01*
X193003715Y-154286857D01*
X193148857Y-154359429D01*
X193439143Y-154359429D01*
X193584286Y-154286857D01*
X193656857Y-154214286D01*
X193729429Y-154069143D01*
X193729429Y-153778857D01*
X193656857Y-153633714D01*
X193584286Y-153561143D01*
X193439143Y-153488571D01*
X194382572Y-154359429D02*
X194382572Y-152835429D01*
X194890572Y-153924000D01*
X195398572Y-152835429D01*
X195398572Y-154359429D01*
X196124286Y-154359429D02*
X196124286Y-152835429D01*
X196124286Y-153561143D02*
X196995143Y-153561143D01*
X196995143Y-154359429D02*
X196995143Y-152835429D01*
X197575714Y-153343429D02*
X198374000Y-153343429D01*
X197575714Y-154359429D01*
X198374000Y-154359429D01*
M02*
