%FSLAX46Y46*%
G04 Gerber Fmt 4.6, Leading zero omitted, Abs format (unit mm)*
G04 Created by KiCad (PCBNEW (20140926 BZR5148)-product) date Sat 01 Nov 2014 11:29:57 PM CDT*
%MOMM*%
G01*
G04 APERTURE LIST*
%ADD10C,0.150000*%
%ADD11R,0.250000X1.000000*%
%ADD12R,1.000000X0.250000*%
%ADD13R,0.889000X1.397000*%
%ADD14R,2.032000X1.727200*%
%ADD15O,2.032000X1.727200*%
%ADD16R,1.727200X2.032000*%
%ADD17O,1.727200X2.032000*%
%ADD18C,1.397000*%
%ADD19C,1.422400*%
%ADD20C,0.711200*%
%ADD21C,0.203200*%
%ADD22C,0.406400*%
%ADD23C,0.254000*%
G04 APERTURE END LIST*
D10*
D11*
X205800000Y-153020000D03*
X206300000Y-153020000D03*
X206800000Y-153020000D03*
X207300000Y-153020000D03*
X207800000Y-153020000D03*
X208300000Y-153020000D03*
X208800000Y-153020000D03*
X209300000Y-153020000D03*
X209800000Y-153020000D03*
X210300000Y-153020000D03*
X210800000Y-153020000D03*
X211300000Y-153020000D03*
X211800000Y-153020000D03*
X212300000Y-153020000D03*
X212800000Y-153020000D03*
X213300000Y-153020000D03*
D12*
X215250000Y-151070000D03*
X215250000Y-150570000D03*
X215250000Y-150070000D03*
X215250000Y-149570000D03*
X215250000Y-149070000D03*
X215250000Y-148570000D03*
X215250000Y-148070000D03*
X215250000Y-147570000D03*
X215250000Y-147070000D03*
X215250000Y-146570000D03*
X215250000Y-146070000D03*
X215250000Y-145570000D03*
X215250000Y-145070000D03*
X215250000Y-144570000D03*
X215250000Y-144070000D03*
X215250000Y-143570000D03*
D11*
X213300000Y-141620000D03*
X212800000Y-141620000D03*
X212300000Y-141620000D03*
X211800000Y-141620000D03*
X211300000Y-141620000D03*
X210800000Y-141620000D03*
X210300000Y-141620000D03*
X209800000Y-141620000D03*
X209300000Y-141620000D03*
X208800000Y-141620000D03*
X208300000Y-141620000D03*
X207800000Y-141620000D03*
X207300000Y-141620000D03*
X206800000Y-141620000D03*
X206300000Y-141620000D03*
X205800000Y-141620000D03*
D12*
X203850000Y-143570000D03*
X203850000Y-144070000D03*
X203850000Y-144570000D03*
X203850000Y-145070000D03*
X203850000Y-145570000D03*
X203850000Y-146070000D03*
X203850000Y-146570000D03*
X203850000Y-147070000D03*
X203850000Y-147570000D03*
X203850000Y-148070000D03*
X203850000Y-148570000D03*
X203850000Y-149070000D03*
X203850000Y-149570000D03*
X203850000Y-150070000D03*
X203850000Y-150570000D03*
X203850000Y-151070000D03*
D13*
X219849700Y-144576800D03*
X217944700Y-144576800D03*
D14*
X223520000Y-151130000D03*
D15*
X223520000Y-148590000D03*
X223520000Y-146050000D03*
X223520000Y-143510000D03*
X223520000Y-140970000D03*
X223520000Y-138430000D03*
D14*
X227330000Y-151130000D03*
D15*
X227330000Y-148590000D03*
X227330000Y-146050000D03*
X227330000Y-143510000D03*
X227330000Y-140970000D03*
X227330000Y-138430000D03*
D16*
X191770000Y-157480000D03*
D17*
X194310000Y-157480000D03*
X196850000Y-157480000D03*
X199390000Y-157480000D03*
D16*
X190500000Y-168910000D03*
D17*
X193040000Y-168910000D03*
X195580000Y-168910000D03*
X198120000Y-168910000D03*
X200660000Y-168910000D03*
X203200000Y-168910000D03*
X205740000Y-168910000D03*
X208280000Y-168910000D03*
X210820000Y-168910000D03*
X213360000Y-168910000D03*
X215900000Y-168910000D03*
X218440000Y-168910000D03*
X220980000Y-168910000D03*
X223520000Y-168910000D03*
X226060000Y-168910000D03*
X228600000Y-168910000D03*
D16*
X190500000Y-165100000D03*
D17*
X193040000Y-165100000D03*
X195580000Y-165100000D03*
X198120000Y-165100000D03*
X200660000Y-165100000D03*
X203200000Y-165100000D03*
X205740000Y-165100000D03*
X208280000Y-165100000D03*
X210820000Y-165100000D03*
X213360000Y-165100000D03*
X215900000Y-165100000D03*
X218440000Y-165100000D03*
X220980000Y-165100000D03*
X223520000Y-165100000D03*
X226060000Y-165100000D03*
X228600000Y-165100000D03*
D16*
X228600000Y-133350000D03*
D17*
X226060000Y-133350000D03*
X223520000Y-133350000D03*
X220980000Y-133350000D03*
X218440000Y-133350000D03*
X215900000Y-133350000D03*
X213360000Y-133350000D03*
X210820000Y-133350000D03*
X208280000Y-133350000D03*
X205740000Y-133350000D03*
X203200000Y-133350000D03*
X200660000Y-133350000D03*
X198120000Y-133350000D03*
X195580000Y-133350000D03*
X193040000Y-133350000D03*
X190500000Y-133350000D03*
D16*
X228600000Y-129540000D03*
D17*
X226060000Y-129540000D03*
X223520000Y-129540000D03*
X220980000Y-129540000D03*
X218440000Y-129540000D03*
X215900000Y-129540000D03*
X213360000Y-129540000D03*
X210820000Y-129540000D03*
X208280000Y-129540000D03*
X205740000Y-129540000D03*
X203200000Y-129540000D03*
X200660000Y-129540000D03*
X198120000Y-129540000D03*
X195580000Y-129540000D03*
X193040000Y-129540000D03*
X190500000Y-129540000D03*
D18*
X228600000Y-154940000D03*
X228600000Y-160020000D03*
X220980000Y-154940000D03*
X220980000Y-160020000D03*
D19*
X193040000Y-139700000D03*
X198120000Y-139700000D03*
X193040000Y-149860000D03*
X198120000Y-149860000D03*
D20*
X209829400Y-144678400D03*
X206522719Y-148285202D03*
X204357959Y-139526975D03*
X199466200Y-151053800D03*
X208282382Y-148899687D03*
X214172800Y-143103600D03*
X217220800Y-149987000D03*
X214985600Y-142240000D03*
X203860400Y-151815800D03*
X199649060Y-147623121D03*
X213283800Y-143230620D03*
X205971896Y-139967511D03*
X201849214Y-149665963D03*
X207870418Y-149658707D03*
X215900000Y-153035000D03*
X216728326Y-143743728D03*
X227177600Y-135788400D03*
X209778600Y-145567400D03*
X209016600Y-146177000D03*
X207959524Y-146191033D03*
X208000600Y-147091400D03*
X206680780Y-149134226D03*
X205619446Y-149146271D03*
X205799590Y-149990885D03*
X204858012Y-150149160D03*
X201929985Y-147001825D03*
X201930958Y-147865436D03*
X201918019Y-148728951D03*
X207401613Y-151693519D03*
X207780873Y-150917641D03*
X213331124Y-144100836D03*
X225018600Y-144780000D03*
X208838800Y-150926800D03*
X209151338Y-148772235D03*
X208746111Y-148009598D03*
X210011162Y-147867716D03*
X209750377Y-147044420D03*
X210814139Y-146906349D03*
X210609197Y-146067407D03*
X211629778Y-145957645D03*
X211529993Y-145099818D03*
X212458038Y-145021562D03*
X212420200Y-144145000D03*
X207264000Y-147675600D03*
D21*
X203850000Y-143570000D02*
X208721000Y-143570000D01*
X208721000Y-143570000D02*
X209829400Y-144678400D01*
X227854986Y-135119586D02*
X227177610Y-134442210D01*
X227330000Y-138430000D02*
X227330000Y-137363200D01*
X227330000Y-137363200D02*
X227854986Y-136838214D01*
X227854986Y-136838214D02*
X227854986Y-135119586D01*
X226295970Y-130810010D02*
X214477610Y-130810010D01*
X227177610Y-134442210D02*
X227177610Y-131691650D01*
X227177610Y-131691650D02*
X226295970Y-130810010D01*
X214477610Y-130810010D02*
X213360000Y-129692400D01*
X213360000Y-129692400D02*
X213360000Y-129540000D01*
X206167120Y-147929603D02*
X206522719Y-148285202D01*
X204807517Y-146570000D02*
X206167120Y-147929603D01*
X203850000Y-146570000D02*
X204807517Y-146570000D01*
X201804367Y-135153390D02*
X201702768Y-135051791D01*
X202298800Y-135153390D02*
X201804367Y-135153390D01*
X206800000Y-139654590D02*
X202298800Y-135153390D01*
X206800000Y-141620000D02*
X206800000Y-139654590D01*
X197129391Y-135051791D02*
X195580000Y-133502400D01*
X195580000Y-133502400D02*
X195580000Y-133350000D01*
X201702768Y-135051791D02*
X197129391Y-135051791D01*
X213512400Y-142621000D02*
X207218798Y-142621000D01*
X207218798Y-142621000D02*
X206800000Y-142202202D01*
X206800000Y-142202202D02*
X206800000Y-141620000D01*
X219532200Y-136601200D02*
X213512400Y-142621000D01*
X223424139Y-136601200D02*
X219532200Y-136601200D01*
X226009200Y-142341600D02*
X226009200Y-139186261D01*
X226009200Y-139186261D02*
X223424139Y-136601200D01*
X227330000Y-143510000D02*
X227177600Y-143510000D01*
X227177600Y-143510000D02*
X226009200Y-142341600D01*
X194310000Y-157327600D02*
X194310000Y-157480000D01*
X190037071Y-132079990D02*
X189382390Y-132734671D01*
X189382390Y-132734671D02*
X189382390Y-133965329D01*
X202082390Y-132079990D02*
X190037071Y-132079990D01*
X203200000Y-133197600D02*
X202082390Y-132079990D01*
X203200000Y-133350000D02*
X203200000Y-133197600D01*
X189407820Y-133990759D02*
X189407820Y-152425420D01*
X189382390Y-133965329D02*
X189407820Y-133990759D01*
X189407820Y-152425420D02*
X194310000Y-157327600D01*
X208300000Y-141620000D02*
X208300000Y-138450000D01*
X208300000Y-138450000D02*
X204419200Y-134569200D01*
X204419200Y-134569200D02*
X204266800Y-134569200D01*
X204266800Y-134569200D02*
X203200000Y-133502400D01*
X203200000Y-133502400D02*
X203200000Y-133350000D01*
X204266780Y-131724380D02*
X205740000Y-133197600D01*
X191770000Y-157480000D02*
X191770000Y-156260800D01*
X189026780Y-134112627D02*
X189026780Y-132587373D01*
X189052210Y-134138057D02*
X189026780Y-134112627D01*
X191770000Y-156260800D02*
X189052210Y-153543010D01*
X189889773Y-131724380D02*
X204266780Y-131724380D01*
X189052210Y-153543010D02*
X189052210Y-134138057D01*
X189026780Y-132587373D02*
X189889773Y-131724380D01*
X205740000Y-133197600D02*
X205740000Y-133350000D01*
X208800000Y-141620000D02*
X208800000Y-136410000D01*
X208800000Y-136410000D02*
X206959200Y-134569200D01*
X206959200Y-134569200D02*
X206806800Y-134569200D01*
X206806800Y-134569200D02*
X205740000Y-133502400D01*
X205740000Y-133502400D02*
X205740000Y-133350000D01*
D22*
X230505000Y-134620000D02*
X230505000Y-128925318D01*
X230505000Y-128925318D02*
X229697282Y-128117600D01*
X229697282Y-128117600D02*
X191770000Y-128117600D01*
X191770000Y-128117600D02*
X190500000Y-129387600D01*
X190500000Y-129387600D02*
X190500000Y-129540000D01*
X229235000Y-135890000D02*
X230505000Y-134620000D01*
X229235000Y-149377400D02*
X229235000Y-135890000D01*
X227330000Y-151130000D02*
X227482400Y-151130000D01*
X227482400Y-151130000D02*
X229235000Y-149377400D01*
X188595000Y-132372561D02*
X188595000Y-131597400D01*
X188595000Y-131597400D02*
X190500000Y-129692400D01*
X190500000Y-129692400D02*
X190500000Y-129540000D01*
X190500000Y-168910000D02*
X190500000Y-168757600D01*
X190500000Y-168757600D02*
X188569570Y-166827170D01*
X188569570Y-166827170D02*
X188569570Y-132397991D01*
X188569570Y-132397991D02*
X188595000Y-132372561D01*
X201355984Y-136525000D02*
X204002360Y-139171376D01*
X193522600Y-136525000D02*
X201355984Y-136525000D01*
X204002360Y-139171376D02*
X204357959Y-139526975D01*
X190500000Y-133350000D02*
X190500000Y-133502400D01*
D23*
X205800000Y-141245000D02*
X204357959Y-139802959D01*
X204357959Y-139802959D02*
X204357959Y-139526975D01*
D22*
X190500000Y-133502400D02*
X193522600Y-136525000D01*
D23*
X205800000Y-141620000D02*
X205800000Y-141245000D01*
D22*
X225729801Y-144297401D02*
X224942400Y-143510000D01*
X227177600Y-151130000D02*
X225729801Y-149682201D01*
X227330000Y-151130000D02*
X227177600Y-151130000D01*
X225729801Y-149682201D02*
X225729801Y-144297401D01*
X224942400Y-143510000D02*
X223520000Y-143510000D01*
D23*
X205800000Y-153020000D02*
X205800000Y-153395000D01*
X205800000Y-153395000D02*
X199516990Y-159678010D01*
X199516990Y-159678010D02*
X198246990Y-159678010D01*
X192718940Y-163652200D02*
X191896990Y-164474150D01*
X190500000Y-167640000D02*
X190500000Y-168910000D01*
X198246990Y-159678010D02*
X194272800Y-163652200D01*
X194272800Y-163652200D02*
X192718940Y-163652200D01*
X191896990Y-164474150D02*
X191896990Y-166243010D01*
X191896990Y-166243010D02*
X190500000Y-167640000D01*
D22*
X195580000Y-165100000D02*
X195580000Y-166522400D01*
X195580000Y-166522400D02*
X194259210Y-167843190D01*
X194259210Y-167843190D02*
X194259210Y-169567413D01*
X194259210Y-169567413D02*
X193494223Y-170332400D01*
X193494223Y-170332400D02*
X191770000Y-170332400D01*
X190500000Y-169062400D02*
X190500000Y-168910000D01*
X191770000Y-170332400D02*
X190500000Y-169062400D01*
X217537200Y-142988200D02*
X221575800Y-142988200D01*
X221575800Y-142988200D02*
X222097600Y-143510000D01*
X222097600Y-143510000D02*
X223520000Y-143510000D01*
X223520000Y-138430000D02*
X223520000Y-140970000D01*
X223520000Y-140970000D02*
X223520000Y-143510000D01*
X203850000Y-151070000D02*
X203850000Y-151805400D01*
X203850000Y-151805400D02*
X203860400Y-151815800D01*
X204694800Y-153593800D02*
X202006200Y-153593800D01*
X202006200Y-153593800D02*
X199466200Y-151053800D01*
X205800000Y-153020000D02*
X205268600Y-153020000D01*
X205268600Y-153020000D02*
X204694800Y-153593800D01*
D21*
X208637981Y-149255286D02*
X208282382Y-148899687D01*
X215250000Y-150070000D02*
X209641118Y-150070000D01*
X208709284Y-149326589D02*
X208637981Y-149255286D01*
X208897707Y-149326589D02*
X208709284Y-149326589D01*
X209641118Y-150070000D02*
X208897707Y-149326589D01*
X215250000Y-143570000D02*
X214639200Y-143570000D01*
X214639200Y-143570000D02*
X214172800Y-143103600D01*
D23*
X215250000Y-150070000D02*
X217137800Y-150070000D01*
X217137800Y-150070000D02*
X217220800Y-149987000D01*
X216585800Y-142988200D02*
X217537200Y-142988200D01*
X216004000Y-143570000D02*
X216585800Y-142988200D01*
X215250000Y-143570000D02*
X216004000Y-143570000D01*
X215250000Y-143570000D02*
X215250000Y-142504400D01*
X215250000Y-142504400D02*
X214985600Y-142240000D01*
D22*
X193040000Y-133350000D02*
X193040000Y-133502400D01*
X205971896Y-139967511D02*
X201513385Y-135509000D01*
X195046600Y-135509000D02*
X201513385Y-135509000D01*
X193040000Y-133502400D02*
X195046600Y-135509000D01*
X201849214Y-149665963D02*
X199806372Y-147623121D01*
X199806372Y-147623121D02*
X199649060Y-147623121D01*
D21*
X228600000Y-160020000D02*
X227612172Y-160020000D01*
X227612172Y-160020000D02*
X220980000Y-160020000D01*
D22*
X223520000Y-146050000D02*
X221068900Y-146050000D01*
X221068900Y-146050000D02*
X219849700Y-144830800D01*
X219849700Y-144830800D02*
X219849700Y-144576800D01*
D21*
X207182020Y-143205220D02*
X212755506Y-143205220D01*
X213334600Y-143230620D02*
X213283800Y-143230620D01*
X206300000Y-142323200D02*
X207182020Y-143205220D01*
X206300000Y-141620000D02*
X206300000Y-142323200D01*
X215250000Y-144070000D02*
X214173980Y-144070000D01*
X212780906Y-143230620D02*
X213283800Y-143230620D01*
X214173980Y-144070000D02*
X213334600Y-143230620D01*
X212755506Y-143205220D02*
X212780906Y-143230620D01*
X208226017Y-150014306D02*
X207870418Y-149658707D01*
X209082516Y-150014306D02*
X208226017Y-150014306D01*
X209588590Y-150520380D02*
X209082516Y-150014306D01*
X214546800Y-150570000D02*
X214497180Y-150520380D01*
X215250000Y-150570000D02*
X214546800Y-150570000D01*
X214497180Y-150520380D02*
X209588590Y-150520380D01*
D23*
X206300000Y-141620000D02*
X206300000Y-140295615D01*
X206300000Y-140295615D02*
X205971896Y-139967511D01*
D21*
X206770364Y-150758761D02*
X207514819Y-150014306D01*
X204376642Y-150570000D02*
X204565403Y-150758761D01*
X207514819Y-150014306D02*
X207870418Y-149658707D01*
X204565403Y-150758761D02*
X206770364Y-150758761D01*
X203850000Y-150570000D02*
X204376642Y-150570000D01*
D23*
X202204813Y-150021562D02*
X201849214Y-149665963D01*
X203850000Y-150570000D02*
X202753251Y-150570000D01*
X202753251Y-150570000D02*
X202204813Y-150021562D01*
X215250000Y-150570000D02*
X216004000Y-150570000D01*
X216004000Y-150570000D02*
X216029401Y-150595401D01*
X216029401Y-150595401D02*
X216029401Y-152905599D01*
X216029401Y-152905599D02*
X215900000Y-153035000D01*
X219849700Y-144576800D02*
X219849700Y-144322800D01*
X219849700Y-144322800D02*
X219125799Y-143598899D01*
X217231220Y-143743728D02*
X216728326Y-143743728D01*
X219125799Y-143598899D02*
X217376049Y-143598899D01*
X217376049Y-143598899D02*
X217231220Y-143743728D01*
X216402054Y-144070000D02*
X216728326Y-143743728D01*
X215250000Y-144070000D02*
X216402054Y-144070000D01*
D21*
X193040000Y-167690800D02*
X193040000Y-168910000D01*
X194157610Y-166573190D02*
X193040000Y-167690800D01*
X194157610Y-164789451D02*
X194157610Y-166573190D01*
X195650461Y-163296600D02*
X194157610Y-164789451D01*
X196712060Y-163296600D02*
X195650461Y-163296600D01*
X206300000Y-153020000D02*
X206300000Y-153708660D01*
X206300000Y-153708660D02*
X196712060Y-163296600D01*
X223827638Y-135432800D02*
X226822000Y-135432800D01*
X226822000Y-135432800D02*
X227177600Y-135788400D01*
X219598863Y-135432800D02*
X223827638Y-135432800D01*
X228600000Y-133502400D02*
X228600000Y-133350000D01*
X213300000Y-141245000D02*
X218858162Y-135686838D01*
X213300000Y-141620000D02*
X213300000Y-141245000D01*
X219344826Y-135686837D02*
X219598863Y-135432800D01*
X218858162Y-135686838D02*
X219344826Y-135686837D01*
X219553135Y-134975620D02*
X224586780Y-134975620D01*
X219197527Y-135331228D02*
X219553135Y-134975620D01*
X212800000Y-141093108D02*
X218561880Y-135331228D01*
X226060000Y-133502400D02*
X226060000Y-133350000D01*
X212800000Y-141620000D02*
X212800000Y-141093108D01*
X224586780Y-134975620D02*
X226060000Y-133502400D01*
X218561880Y-135331228D02*
X219197527Y-135331228D01*
X212300000Y-141085108D02*
X218409488Y-134975620D01*
X222402390Y-134620010D02*
X223520000Y-133502400D01*
X223520000Y-133502400D02*
X223520000Y-133350000D01*
X219405837Y-134620010D02*
X222402390Y-134620010D01*
X219050228Y-134975619D02*
X219405837Y-134620010D01*
X218409488Y-134975620D02*
X219050228Y-134975619D01*
X212300000Y-141620000D02*
X212300000Y-141085108D01*
X211800000Y-140916800D02*
X218096790Y-134620010D01*
X211800000Y-141620000D02*
X211800000Y-140916800D01*
X220172939Y-133350000D02*
X220980000Y-133350000D01*
X218902929Y-134620010D02*
X220172939Y-133350000D01*
X218096790Y-134620010D02*
X218902929Y-134620010D01*
X211300000Y-141620000D02*
X211300000Y-140490000D01*
X211300000Y-140490000D02*
X217220800Y-134569200D01*
X217220800Y-134569200D02*
X217373200Y-134569200D01*
X217373200Y-134569200D02*
X218440000Y-133502400D01*
X218440000Y-133502400D02*
X218440000Y-133350000D01*
X210800000Y-141620000D02*
X210800000Y-138450000D01*
X210800000Y-138450000D02*
X214680800Y-134569200D01*
X214680800Y-134569200D02*
X214833200Y-134569200D01*
X214833200Y-134569200D02*
X215900000Y-133502400D01*
X215900000Y-133502400D02*
X215900000Y-133350000D01*
X210300000Y-141620000D02*
X210300000Y-136410000D01*
X210300000Y-136410000D02*
X212140800Y-134569200D01*
X212140800Y-134569200D02*
X212293200Y-134569200D01*
X212293200Y-134569200D02*
X213360000Y-133502400D01*
X213360000Y-133502400D02*
X213360000Y-133350000D01*
X202098963Y-134442170D02*
X201006793Y-133350000D01*
X207800000Y-139648774D02*
X202593396Y-134442170D01*
X207800000Y-141620000D02*
X207800000Y-139648774D01*
X202593396Y-134442170D02*
X202098963Y-134442170D01*
X201006793Y-133350000D02*
X200660000Y-133350000D01*
X207300000Y-141620000D02*
X207300000Y-139651682D01*
X199313781Y-134696181D02*
X198120000Y-133502400D01*
X202446098Y-134797780D02*
X201951665Y-134797780D01*
X201850066Y-134696181D02*
X199313781Y-134696181D01*
X201951665Y-134797780D02*
X201850066Y-134696181D01*
X207300000Y-139651682D02*
X202446098Y-134797780D01*
X198120000Y-133502400D02*
X198120000Y-133350000D01*
X208281200Y-144070000D02*
X203850000Y-144070000D01*
X209778600Y-145567400D02*
X208281200Y-144070000D01*
X203850000Y-144570000D02*
X207409600Y-144570000D01*
X207409600Y-144570000D02*
X209016600Y-146177000D01*
X203850000Y-145070000D02*
X206838491Y-145070000D01*
X206838491Y-145070000D02*
X207603925Y-145835434D01*
X207603925Y-145835434D02*
X207959524Y-146191033D01*
X207602082Y-146735801D02*
X207645001Y-146735801D01*
X207645001Y-146735801D02*
X208000600Y-147091400D01*
X206436281Y-145570000D02*
X207602082Y-146735801D01*
X203850000Y-145570000D02*
X206436281Y-145570000D01*
X204553200Y-147070000D02*
X205913118Y-148429918D01*
X203850000Y-147070000D02*
X204553200Y-147070000D01*
X205913118Y-148577811D02*
X206469533Y-149134226D01*
X205913118Y-148429918D02*
X205913118Y-148577811D01*
X206469533Y-149134226D02*
X206680780Y-149134226D01*
X203850000Y-147570000D02*
X204547384Y-147570000D01*
X205557148Y-149083973D02*
X205619446Y-149146271D01*
X204547384Y-147570000D02*
X205557148Y-148579764D01*
X205557148Y-148579764D02*
X205557148Y-149083973D01*
X205561850Y-149990885D02*
X205799590Y-149990885D01*
X205009845Y-148535369D02*
X205009845Y-149438880D01*
X204544476Y-148070000D02*
X205009845Y-148535369D01*
X203850000Y-148070000D02*
X204544476Y-148070000D01*
X205009845Y-149438880D02*
X205561850Y-149990885D01*
X204654235Y-148706364D02*
X204654235Y-149945383D01*
X203850000Y-148570000D02*
X204517871Y-148570000D01*
X204654235Y-149945383D02*
X204858012Y-150149160D01*
X204517871Y-148570000D02*
X204654235Y-148706364D01*
X203146800Y-149070000D02*
X202883230Y-148806430D01*
X202883230Y-147955070D02*
X202285584Y-147357424D01*
X202285584Y-147357424D02*
X201929985Y-147001825D01*
X203850000Y-149070000D02*
X203146800Y-149070000D01*
X202883230Y-148806430D02*
X202883230Y-147955070D01*
X202527620Y-148979328D02*
X202527620Y-148462098D01*
X203118292Y-149570000D02*
X202527620Y-148979328D01*
X202527620Y-148462098D02*
X202286557Y-148221035D01*
X203850000Y-149570000D02*
X203118292Y-149570000D01*
X202286557Y-148221035D02*
X201930958Y-147865436D01*
X201918019Y-148872635D02*
X201918019Y-148728951D01*
X203115384Y-150070000D02*
X201918019Y-148872635D01*
X203850000Y-150070000D02*
X203115384Y-150070000D01*
X206800000Y-153711568D02*
X196697610Y-163813958D01*
X196697610Y-166573190D02*
X195580000Y-167690800D01*
X195580000Y-167690800D02*
X195580000Y-168910000D01*
X206800000Y-153020000D02*
X206800000Y-153711568D01*
X196697610Y-163813958D02*
X196697610Y-166573190D01*
X203395093Y-152781011D02*
X193040000Y-142425918D01*
X204300307Y-152781011D02*
X203395093Y-152781011D01*
X206558684Y-152255708D02*
X204825610Y-152255708D01*
X206800000Y-152497024D02*
X206558684Y-152255708D01*
X206800000Y-153020000D02*
X206800000Y-152497024D01*
X193040000Y-140705788D02*
X193040000Y-139700000D01*
X193040000Y-142425918D02*
X193040000Y-140705788D01*
X204825610Y-152255708D02*
X204300307Y-152781011D01*
X207300000Y-153020000D02*
X207300000Y-153714476D01*
X199237610Y-166573190D02*
X198120000Y-167690800D01*
X207300000Y-153714476D02*
X199237610Y-161776866D01*
X198120000Y-167690800D02*
X198120000Y-168910000D01*
X199237610Y-161776866D02*
X199237610Y-166573190D01*
X207300000Y-152494116D02*
X207300000Y-153020000D01*
X204686400Y-151892010D02*
X206697894Y-151892010D01*
X204153009Y-152425401D02*
X204686400Y-151892010D01*
X203542391Y-152425401D02*
X204153009Y-152425401D01*
X206697894Y-151892010D02*
X207300000Y-152494116D01*
X198120000Y-147003010D02*
X203542391Y-152425401D01*
X198120000Y-146685000D02*
X198120000Y-147003010D01*
D23*
X198120000Y-139700000D02*
X198120000Y-146685000D01*
D21*
X200660000Y-167690800D02*
X200660000Y-168910000D01*
X207800000Y-153020000D02*
X207800000Y-153717384D01*
X201777610Y-159739774D02*
X201777610Y-166573190D01*
X201777610Y-166573190D02*
X200660000Y-167690800D01*
X207800000Y-153717384D02*
X201777610Y-159739774D01*
X207800000Y-153020000D02*
X207800000Y-152091906D01*
X207800000Y-152091906D02*
X207757212Y-152049118D01*
X207757212Y-152049118D02*
X207401613Y-151693519D01*
X203200000Y-167690800D02*
X203200000Y-168910000D01*
X208300000Y-153720292D02*
X204317610Y-157702682D01*
X208300000Y-153020000D02*
X208300000Y-153720292D01*
X204317610Y-157702682D02*
X204317610Y-166573190D01*
X204317610Y-166573190D02*
X203200000Y-167690800D01*
X208300000Y-153020000D02*
X208300000Y-151436768D01*
X208300000Y-151436768D02*
X208136472Y-151273240D01*
X208136472Y-151273240D02*
X207780873Y-150917641D01*
X213686723Y-144456435D02*
X213331124Y-144100836D01*
X213800288Y-144570000D02*
X213686723Y-144456435D01*
X215250000Y-144570000D02*
X213800288Y-144570000D01*
D23*
X215250000Y-144570000D02*
X217937900Y-144570000D01*
X217937900Y-144570000D02*
X217944700Y-144576800D01*
D21*
X228600000Y-154940000D02*
X225044000Y-151384000D01*
X225044000Y-144805400D02*
X225018600Y-144780000D01*
X225044000Y-151384000D02*
X225044000Y-144805400D01*
X220980000Y-154940000D02*
X228600000Y-154940000D01*
X206857610Y-155665590D02*
X206857610Y-164789451D01*
X208800000Y-153020000D02*
X208800000Y-153723200D01*
X208800000Y-153723200D02*
X206857610Y-155665590D01*
X227482400Y-140970000D02*
X227330000Y-140970000D01*
X215163400Y-153212800D02*
X216890600Y-154940000D01*
X216890600Y-154940000D02*
X220980000Y-154940000D01*
X215163400Y-152298400D02*
X215163400Y-153212800D01*
X214096600Y-151231600D02*
X215163400Y-152298400D01*
X209885200Y-151231600D02*
X214096600Y-151231600D01*
X208800000Y-153020000D02*
X208800000Y-152316800D01*
X208800000Y-152316800D02*
X209885200Y-151231600D01*
X206857610Y-164789451D02*
X206857610Y-166573190D01*
X206857610Y-166573190D02*
X205740000Y-167690800D01*
X205740000Y-167690800D02*
X205740000Y-168910000D01*
X228600000Y-168910000D02*
X228600000Y-167690800D01*
X228600000Y-167690800D02*
X229717610Y-166573190D01*
X229717610Y-166573190D02*
X229717610Y-164484671D01*
X227101390Y-163829990D02*
X224243901Y-160972501D01*
X224243901Y-160972501D02*
X220522799Y-160972501D01*
X229717610Y-164484671D02*
X229062929Y-163829990D01*
X229062929Y-163829990D02*
X227101390Y-163829990D01*
X220522799Y-160972501D02*
X220014800Y-160464502D01*
X213300000Y-153686200D02*
X213300000Y-153020000D01*
X220014800Y-160464502D02*
X220014800Y-160401000D01*
X220014800Y-160401000D02*
X213300000Y-153686200D01*
X209392504Y-150875990D02*
X214352790Y-150875990D01*
X214546800Y-151070000D02*
X215250000Y-151070000D01*
X214352790Y-150875990D02*
X214546800Y-151070000D01*
X209341694Y-150926800D02*
X209392504Y-150875990D01*
X208838800Y-150926800D02*
X209341694Y-150926800D01*
X209397610Y-164484671D02*
X209397610Y-164722532D01*
X209397610Y-164722532D02*
X209397610Y-166573190D01*
X209300000Y-153020000D02*
X209300000Y-153723200D01*
X209300000Y-153723200D02*
X209397610Y-153820810D01*
X209397610Y-153820810D02*
X209397610Y-164722532D01*
X209397610Y-166573190D02*
X208280000Y-167690800D01*
X208280000Y-167690800D02*
X208280000Y-168910000D01*
X210820000Y-167690800D02*
X210820000Y-168910000D01*
X211937610Y-166573190D02*
X210820000Y-167690800D01*
X211937610Y-156382718D02*
X211937610Y-166573190D01*
X209800000Y-154245108D02*
X211937610Y-156382718D01*
X209800000Y-153020000D02*
X209800000Y-154245108D01*
X210300000Y-153020000D02*
X210300000Y-154242200D01*
X210300000Y-154242200D02*
X214477610Y-158419810D01*
X214477610Y-166573190D02*
X213360000Y-167690800D01*
X214477610Y-158419810D02*
X214477610Y-166573190D01*
X213360000Y-167690800D02*
X213360000Y-168910000D01*
X217031750Y-160288090D02*
X210800000Y-154056340D01*
X215900000Y-168910000D02*
X215900000Y-167690800D01*
X215900000Y-167690800D02*
X217017610Y-166573190D01*
X217017610Y-166573190D02*
X217017610Y-160302230D01*
X217017610Y-160302230D02*
X217031750Y-160288090D01*
X210800000Y-153723200D02*
X210800000Y-153020000D01*
X210800000Y-154056340D02*
X210800000Y-153723200D01*
X218440000Y-168910000D02*
X218440000Y-167690800D01*
X218440000Y-167690800D02*
X219557610Y-166573190D01*
X211300000Y-154053432D02*
X211300000Y-153020000D01*
X219557610Y-166573190D02*
X219557610Y-162311042D01*
X219557610Y-162311042D02*
X211300000Y-154053432D01*
X220980000Y-168910000D02*
X220980000Y-167690800D01*
X220980000Y-167690800D02*
X222097610Y-166573190D01*
X222097610Y-166573190D02*
X222097610Y-164348134D01*
X222097610Y-164348134D02*
X211800000Y-154050524D01*
X211800000Y-154050524D02*
X211800000Y-153020000D01*
X223520000Y-167690800D02*
X223520000Y-168910000D01*
X224637610Y-166573190D02*
X223520000Y-167690800D01*
X221950959Y-161798020D02*
X224637610Y-164484671D01*
X224637610Y-164484671D02*
X224637610Y-166573190D01*
X220342502Y-161798020D02*
X221950959Y-161798020D01*
X212300000Y-153020000D02*
X212300000Y-153755518D01*
X212300000Y-153755518D02*
X220342502Y-161798020D01*
X212800000Y-153020000D02*
X212800000Y-153752610D01*
X227177610Y-166573190D02*
X226060000Y-167690800D01*
X227177610Y-164484671D02*
X227177610Y-166573190D01*
X224135349Y-161442410D02*
X227177610Y-164484671D01*
X212800000Y-153752610D02*
X220489800Y-161442410D01*
X226060000Y-167690800D02*
X226060000Y-168910000D01*
X220489800Y-161442410D02*
X224135349Y-161442410D01*
X209949103Y-149570000D02*
X209506937Y-149127834D01*
X209506937Y-149127834D02*
X209151338Y-148772235D01*
X215250000Y-149570000D02*
X209949103Y-149570000D01*
X209249005Y-148009598D02*
X208746111Y-148009598D01*
X209290911Y-148009598D02*
X209249005Y-148009598D01*
X210351313Y-149070000D02*
X209290911Y-148009598D01*
X215250000Y-149070000D02*
X210351313Y-149070000D01*
X210366761Y-148223315D02*
X210011162Y-147867716D01*
X215250000Y-148570000D02*
X210713446Y-148570000D01*
X210713446Y-148570000D02*
X210366761Y-148223315D01*
X215250000Y-148070000D02*
X211115656Y-148070000D01*
X211115656Y-148070000D02*
X210090076Y-147044420D01*
X210090076Y-147044420D02*
X209750377Y-147044420D01*
X211169738Y-147261948D02*
X210814139Y-146906349D01*
X211477790Y-147570000D02*
X211169738Y-147261948D01*
X215250000Y-147570000D02*
X211477790Y-147570000D01*
X215250000Y-147070000D02*
X211880000Y-147070000D01*
X211880000Y-147070000D02*
X210877407Y-146067407D01*
X210877407Y-146067407D02*
X210609197Y-146067407D01*
X212242133Y-146570000D02*
X211985377Y-146313244D01*
X215250000Y-146570000D02*
X212242133Y-146570000D01*
X211985377Y-146313244D02*
X211629778Y-145957645D01*
X211674161Y-145099818D02*
X211529993Y-145099818D01*
X212644343Y-146070000D02*
X211674161Y-145099818D01*
X215250000Y-146070000D02*
X212644343Y-146070000D01*
X212813637Y-145377161D02*
X212458038Y-145021562D01*
X215250000Y-145570000D02*
X213006476Y-145570000D01*
X213006476Y-145570000D02*
X212813637Y-145377161D01*
X213408686Y-145070000D02*
X212839285Y-144500599D01*
X212775799Y-144500599D02*
X212420200Y-144145000D01*
X215250000Y-145070000D02*
X213408686Y-145070000D01*
X212839285Y-144500599D02*
X212775799Y-144500599D01*
X209800000Y-141620000D02*
X209800000Y-134370000D01*
X209800000Y-134370000D02*
X210820000Y-133350000D01*
X209300000Y-141620000D02*
X209300000Y-134370000D01*
X209300000Y-134370000D02*
X208280000Y-133350000D01*
X207264000Y-147675600D02*
X205658400Y-146070000D01*
X205658400Y-146070000D02*
X203850000Y-146070000D01*
D23*
G36*
X195478090Y-166751000D02*
X195059145Y-167169945D01*
X194899470Y-167408915D01*
X194898704Y-167412762D01*
X194520330Y-167665585D01*
X194310000Y-167980365D01*
X194102575Y-167669934D01*
X194678465Y-167094045D01*
X194838140Y-166855075D01*
X194894210Y-166573190D01*
X194894210Y-166554898D01*
X195205209Y-166704709D01*
X195220974Y-166707358D01*
X195452998Y-166586218D01*
X195452998Y-166751000D01*
X195478090Y-166751000D01*
X195478090Y-166751000D01*
G37*
X195478090Y-166751000D02*
X195059145Y-167169945D01*
X194899470Y-167408915D01*
X194898704Y-167412762D01*
X194520330Y-167665585D01*
X194310000Y-167980365D01*
X194102575Y-167669934D01*
X194678465Y-167094045D01*
X194838140Y-166855075D01*
X194894210Y-166573190D01*
X194894210Y-166554898D01*
X195205209Y-166704709D01*
X195220974Y-166707358D01*
X195452998Y-166586218D01*
X195452998Y-166751000D01*
X195478090Y-166751000D01*
G36*
X195727000Y-165227000D02*
X195707000Y-165227000D01*
X195707000Y-165247000D01*
X195453000Y-165247000D01*
X195453000Y-165227000D01*
X195433000Y-165227000D01*
X195433000Y-164973000D01*
X195453000Y-164973000D01*
X195453000Y-164953000D01*
X195707000Y-164953000D01*
X195707000Y-164973000D01*
X195727000Y-164973000D01*
X195727000Y-165227000D01*
X195727000Y-165227000D01*
G37*
X195727000Y-165227000D02*
X195707000Y-165227000D01*
X195707000Y-165247000D01*
X195453000Y-165247000D01*
X195453000Y-165227000D01*
X195433000Y-165227000D01*
X195433000Y-164973000D01*
X195453000Y-164973000D01*
X195453000Y-164953000D01*
X195707000Y-164953000D01*
X195707000Y-164973000D01*
X195727000Y-164973000D01*
X195727000Y-165227000D01*
G36*
X205772025Y-142833400D02*
X204532802Y-142833400D01*
X204476310Y-142810000D01*
X204223691Y-142810000D01*
X203223691Y-142810000D01*
X202990302Y-142906673D01*
X202811673Y-143085301D01*
X202715000Y-143318690D01*
X202715000Y-143571309D01*
X202715000Y-143818690D01*
X202715000Y-143821309D01*
X202715000Y-144071309D01*
X202715000Y-144318690D01*
X202715000Y-144321309D01*
X202715000Y-144571309D01*
X202715000Y-144818690D01*
X202715000Y-144821309D01*
X202715000Y-145071309D01*
X202715000Y-145318690D01*
X202715000Y-145321309D01*
X202715000Y-145571309D01*
X202715000Y-145818690D01*
X202715000Y-145821309D01*
X202715000Y-146071309D01*
X202715000Y-146318690D01*
X202715000Y-146321309D01*
X202715000Y-146386067D01*
X202491847Y-146162525D01*
X202127892Y-146011397D01*
X201733807Y-146011053D01*
X201369588Y-146161546D01*
X201090685Y-146439963D01*
X200939557Y-146803918D01*
X200939213Y-147198003D01*
X201037111Y-147434935D01*
X200968592Y-147599947D01*
X200530157Y-147161512D01*
X200489339Y-147062724D01*
X200210922Y-146783821D01*
X199846967Y-146632693D01*
X199452882Y-146632349D01*
X199088663Y-146782842D01*
X199015038Y-146856338D01*
X198875645Y-146716945D01*
X198882000Y-146685000D01*
X198882000Y-140841484D01*
X199260588Y-140463557D01*
X199465966Y-139968951D01*
X199466434Y-139433399D01*
X199261919Y-138938435D01*
X198883557Y-138559412D01*
X198388951Y-138354034D01*
X197853399Y-138353566D01*
X197358435Y-138558081D01*
X196979412Y-138936443D01*
X196774034Y-139431049D01*
X196773566Y-139966601D01*
X196978081Y-140461565D01*
X197356443Y-140840588D01*
X197358000Y-140841234D01*
X197358000Y-145702208D01*
X193776600Y-142120808D01*
X193776600Y-140852234D01*
X193801565Y-140841919D01*
X194180588Y-140463557D01*
X194385966Y-139968951D01*
X194386434Y-139433399D01*
X194181919Y-138938435D01*
X193803557Y-138559412D01*
X193308951Y-138354034D01*
X192773399Y-138353566D01*
X192278435Y-138558081D01*
X191899412Y-138936443D01*
X191694034Y-139431049D01*
X191693566Y-139966601D01*
X191898081Y-140461565D01*
X192276443Y-140840588D01*
X192303400Y-140851781D01*
X192303400Y-142425918D01*
X192359470Y-142707803D01*
X192519145Y-142946773D01*
X198086141Y-148513769D01*
X197853399Y-148513566D01*
X197358435Y-148718081D01*
X196979412Y-149096443D01*
X196774034Y-149591049D01*
X196773566Y-150126601D01*
X196978081Y-150621565D01*
X197356443Y-151000588D01*
X197851049Y-151205966D01*
X198386601Y-151206434D01*
X198881565Y-151001919D01*
X199260588Y-150623557D01*
X199465966Y-150128951D01*
X199466171Y-149893799D01*
X202874238Y-153301866D01*
X203113208Y-153461541D01*
X203395093Y-153517611D01*
X204300307Y-153517611D01*
X204582192Y-153461541D01*
X204821162Y-153301866D01*
X205040000Y-153083028D01*
X205040000Y-153147002D01*
X205198748Y-153147002D01*
X205040000Y-153305750D01*
X205040000Y-153646309D01*
X205122197Y-153844752D01*
X200785900Y-158181049D01*
X200888600Y-157664745D01*
X200888600Y-157295255D01*
X200774526Y-156721766D01*
X200449670Y-156235585D01*
X199963489Y-155910729D01*
X199390000Y-155796655D01*
X198816511Y-155910729D01*
X198330330Y-156235585D01*
X198120000Y-156550365D01*
X197909670Y-156235585D01*
X197423489Y-155910729D01*
X196850000Y-155796655D01*
X196276511Y-155910729D01*
X195790330Y-156235585D01*
X195580000Y-156550365D01*
X195369670Y-156235585D01*
X194883489Y-155910729D01*
X194386434Y-155811858D01*
X194386434Y-149593399D01*
X194181919Y-149098435D01*
X193803557Y-148719412D01*
X193308951Y-148514034D01*
X192773399Y-148513566D01*
X192278435Y-148718081D01*
X191899412Y-149096443D01*
X191694034Y-149591049D01*
X191693566Y-150126601D01*
X191898081Y-150621565D01*
X192276443Y-151000588D01*
X192771049Y-151205966D01*
X193306601Y-151206434D01*
X193801565Y-151001919D01*
X194180588Y-150623557D01*
X194385966Y-150128951D01*
X194386434Y-149593399D01*
X194386434Y-155811858D01*
X194310000Y-155796655D01*
X193901934Y-155877824D01*
X190144420Y-152120310D01*
X190144420Y-134955558D01*
X190373000Y-134836217D01*
X190373000Y-133477000D01*
X190353000Y-133477000D01*
X190353000Y-133223000D01*
X190373000Y-133223000D01*
X190373000Y-133203000D01*
X190627000Y-133203000D01*
X190627000Y-133223000D01*
X190647000Y-133223000D01*
X190647000Y-133477000D01*
X190627000Y-133477000D01*
X190627000Y-134836217D01*
X190859026Y-134957358D01*
X190874791Y-134954709D01*
X191402036Y-134700732D01*
X191773539Y-134284930D01*
X191980330Y-134594415D01*
X192466511Y-134919271D01*
X193040000Y-135033345D01*
X193328220Y-134976014D01*
X194453903Y-136101697D01*
X194725834Y-136283396D01*
X194725835Y-136283396D01*
X195046600Y-136347200D01*
X201166191Y-136347200D01*
X204981125Y-140162134D01*
X204981124Y-140163689D01*
X205131617Y-140527908D01*
X205250238Y-140646736D01*
X205136673Y-140760302D01*
X205040000Y-140993691D01*
X205040000Y-141334250D01*
X205198750Y-141493000D01*
X205538000Y-141493000D01*
X205538000Y-141620000D01*
X205540000Y-141630054D01*
X205540000Y-141747000D01*
X205198750Y-141747000D01*
X205040000Y-141905750D01*
X205040000Y-142246309D01*
X205136673Y-142479698D01*
X205315301Y-142658327D01*
X205548690Y-142755000D01*
X205578750Y-142755000D01*
X205663207Y-142670542D01*
X205672998Y-142685195D01*
X205672998Y-142755000D01*
X205719640Y-142755000D01*
X205772025Y-142833400D01*
X205772025Y-142833400D01*
G37*
X205772025Y-142833400D02*
X204532802Y-142833400D01*
X204476310Y-142810000D01*
X204223691Y-142810000D01*
X203223691Y-142810000D01*
X202990302Y-142906673D01*
X202811673Y-143085301D01*
X202715000Y-143318690D01*
X202715000Y-143571309D01*
X202715000Y-143818690D01*
X202715000Y-143821309D01*
X202715000Y-144071309D01*
X202715000Y-144318690D01*
X202715000Y-144321309D01*
X202715000Y-144571309D01*
X202715000Y-144818690D01*
X202715000Y-144821309D01*
X202715000Y-145071309D01*
X202715000Y-145318690D01*
X202715000Y-145321309D01*
X202715000Y-145571309D01*
X202715000Y-145818690D01*
X202715000Y-145821309D01*
X202715000Y-146071309D01*
X202715000Y-146318690D01*
X202715000Y-146321309D01*
X202715000Y-146386067D01*
X202491847Y-146162525D01*
X202127892Y-146011397D01*
X201733807Y-146011053D01*
X201369588Y-146161546D01*
X201090685Y-146439963D01*
X200939557Y-146803918D01*
X200939213Y-147198003D01*
X201037111Y-147434935D01*
X200968592Y-147599947D01*
X200530157Y-147161512D01*
X200489339Y-147062724D01*
X200210922Y-146783821D01*
X199846967Y-146632693D01*
X199452882Y-146632349D01*
X199088663Y-146782842D01*
X199015038Y-146856338D01*
X198875645Y-146716945D01*
X198882000Y-146685000D01*
X198882000Y-140841484D01*
X199260588Y-140463557D01*
X199465966Y-139968951D01*
X199466434Y-139433399D01*
X199261919Y-138938435D01*
X198883557Y-138559412D01*
X198388951Y-138354034D01*
X197853399Y-138353566D01*
X197358435Y-138558081D01*
X196979412Y-138936443D01*
X196774034Y-139431049D01*
X196773566Y-139966601D01*
X196978081Y-140461565D01*
X197356443Y-140840588D01*
X197358000Y-140841234D01*
X197358000Y-145702208D01*
X193776600Y-142120808D01*
X193776600Y-140852234D01*
X193801565Y-140841919D01*
X194180588Y-140463557D01*
X194385966Y-139968951D01*
X194386434Y-139433399D01*
X194181919Y-138938435D01*
X193803557Y-138559412D01*
X193308951Y-138354034D01*
X192773399Y-138353566D01*
X192278435Y-138558081D01*
X191899412Y-138936443D01*
X191694034Y-139431049D01*
X191693566Y-139966601D01*
X191898081Y-140461565D01*
X192276443Y-140840588D01*
X192303400Y-140851781D01*
X192303400Y-142425918D01*
X192359470Y-142707803D01*
X192519145Y-142946773D01*
X198086141Y-148513769D01*
X197853399Y-148513566D01*
X197358435Y-148718081D01*
X196979412Y-149096443D01*
X196774034Y-149591049D01*
X196773566Y-150126601D01*
X196978081Y-150621565D01*
X197356443Y-151000588D01*
X197851049Y-151205966D01*
X198386601Y-151206434D01*
X198881565Y-151001919D01*
X199260588Y-150623557D01*
X199465966Y-150128951D01*
X199466171Y-149893799D01*
X202874238Y-153301866D01*
X203113208Y-153461541D01*
X203395093Y-153517611D01*
X204300307Y-153517611D01*
X204582192Y-153461541D01*
X204821162Y-153301866D01*
X205040000Y-153083028D01*
X205040000Y-153147002D01*
X205198748Y-153147002D01*
X205040000Y-153305750D01*
X205040000Y-153646309D01*
X205122197Y-153844752D01*
X200785900Y-158181049D01*
X200888600Y-157664745D01*
X200888600Y-157295255D01*
X200774526Y-156721766D01*
X200449670Y-156235585D01*
X199963489Y-155910729D01*
X199390000Y-155796655D01*
X198816511Y-155910729D01*
X198330330Y-156235585D01*
X198120000Y-156550365D01*
X197909670Y-156235585D01*
X197423489Y-155910729D01*
X196850000Y-155796655D01*
X196276511Y-155910729D01*
X195790330Y-156235585D01*
X195580000Y-156550365D01*
X195369670Y-156235585D01*
X194883489Y-155910729D01*
X194386434Y-155811858D01*
X194386434Y-149593399D01*
X194181919Y-149098435D01*
X193803557Y-148719412D01*
X193308951Y-148514034D01*
X192773399Y-148513566D01*
X192278435Y-148718081D01*
X191899412Y-149096443D01*
X191694034Y-149591049D01*
X191693566Y-150126601D01*
X191898081Y-150621565D01*
X192276443Y-151000588D01*
X192771049Y-151205966D01*
X193306601Y-151206434D01*
X193801565Y-151001919D01*
X194180588Y-150623557D01*
X194385966Y-150128951D01*
X194386434Y-149593399D01*
X194386434Y-155811858D01*
X194310000Y-155796655D01*
X193901934Y-155877824D01*
X190144420Y-152120310D01*
X190144420Y-134955558D01*
X190373000Y-134836217D01*
X190373000Y-133477000D01*
X190353000Y-133477000D01*
X190353000Y-133223000D01*
X190373000Y-133223000D01*
X190373000Y-133203000D01*
X190627000Y-133203000D01*
X190627000Y-133223000D01*
X190647000Y-133223000D01*
X190647000Y-133477000D01*
X190627000Y-133477000D01*
X190627000Y-134836217D01*
X190859026Y-134957358D01*
X190874791Y-134954709D01*
X191402036Y-134700732D01*
X191773539Y-134284930D01*
X191980330Y-134594415D01*
X192466511Y-134919271D01*
X193040000Y-135033345D01*
X193328220Y-134976014D01*
X194453903Y-136101697D01*
X194725834Y-136283396D01*
X194725835Y-136283396D01*
X195046600Y-136347200D01*
X201166191Y-136347200D01*
X204981125Y-140162134D01*
X204981124Y-140163689D01*
X205131617Y-140527908D01*
X205250238Y-140646736D01*
X205136673Y-140760302D01*
X205040000Y-140993691D01*
X205040000Y-141334250D01*
X205198750Y-141493000D01*
X205538000Y-141493000D01*
X205538000Y-141620000D01*
X205540000Y-141630054D01*
X205540000Y-141747000D01*
X205198750Y-141747000D01*
X205040000Y-141905750D01*
X205040000Y-142246309D01*
X205136673Y-142479698D01*
X205315301Y-142658327D01*
X205548690Y-142755000D01*
X205578750Y-142755000D01*
X205663207Y-142670542D01*
X205672998Y-142685195D01*
X205672998Y-142755000D01*
X205719640Y-142755000D01*
X205772025Y-142833400D01*
G36*
X225837099Y-144197785D02*
X225580462Y-143940700D01*
X225216507Y-143789572D01*
X225127358Y-143789493D01*
X225127358Y-143150974D01*
X225124709Y-143135209D01*
X224870732Y-142607964D01*
X224458891Y-142240000D01*
X224870732Y-141872036D01*
X225124709Y-141344791D01*
X225127358Y-141329026D01*
X225006217Y-141097000D01*
X223647000Y-141097000D01*
X223647000Y-142169076D01*
X223647000Y-142310924D01*
X223647000Y-143383000D01*
X225006217Y-143383000D01*
X225127358Y-143150974D01*
X225127358Y-143789493D01*
X225085815Y-143789457D01*
X225006217Y-143637000D01*
X223647000Y-143637000D01*
X223647000Y-143657000D01*
X223393000Y-143657000D01*
X223393000Y-143637000D01*
X223393000Y-143383000D01*
X223393000Y-142310924D01*
X223393000Y-142169076D01*
X223393000Y-141097000D01*
X223393000Y-140843000D01*
X223393000Y-139770924D01*
X223393000Y-139629076D01*
X223393000Y-138557000D01*
X222033783Y-138557000D01*
X221912642Y-138789026D01*
X221915291Y-138804791D01*
X222169268Y-139332036D01*
X222581108Y-139700000D01*
X222169268Y-140067964D01*
X221915291Y-140595209D01*
X221912642Y-140610974D01*
X222033783Y-140843000D01*
X223393000Y-140843000D01*
X223393000Y-141097000D01*
X222033783Y-141097000D01*
X221912642Y-141329026D01*
X221915291Y-141344791D01*
X222169268Y-141872036D01*
X222581108Y-142240000D01*
X222169268Y-142607964D01*
X221915291Y-143135209D01*
X221912642Y-143150974D01*
X222033783Y-143383000D01*
X223393000Y-143383000D01*
X223393000Y-143637000D01*
X222033783Y-143637000D01*
X221912642Y-143869026D01*
X221915291Y-143884791D01*
X222169268Y-144412036D01*
X222585069Y-144783539D01*
X222275585Y-144990330D01*
X222127603Y-145211800D01*
X221416094Y-145211800D01*
X220929200Y-144724906D01*
X220929200Y-143751991D01*
X220832527Y-143518602D01*
X220653899Y-143339973D01*
X220420510Y-143243300D01*
X220167891Y-143243300D01*
X219847830Y-143243300D01*
X219664614Y-143060084D01*
X219417404Y-142894903D01*
X219125799Y-142836899D01*
X217376049Y-142836899D01*
X217208041Y-142870317D01*
X216926233Y-142753300D01*
X216532148Y-142752956D01*
X216167929Y-142903449D01*
X216137174Y-142934149D01*
X216109698Y-142906673D01*
X215876309Y-142810000D01*
X215535750Y-142810000D01*
X215377000Y-142968750D01*
X215377000Y-143308000D01*
X215250000Y-143308000D01*
X215239945Y-143310000D01*
X215123000Y-143310000D01*
X215123000Y-142968750D01*
X214964250Y-142810000D01*
X214623691Y-142810000D01*
X214390302Y-142906673D01*
X214271051Y-143025922D01*
X214235420Y-142939689D01*
X219837309Y-137337800D01*
X222382107Y-137337800D01*
X222169268Y-137527964D01*
X221915291Y-138055209D01*
X221912642Y-138070974D01*
X222033783Y-138303000D01*
X223393000Y-138303000D01*
X223393000Y-138283000D01*
X223647000Y-138283000D01*
X223647000Y-138303000D01*
X223667000Y-138303000D01*
X223667000Y-138557000D01*
X223647000Y-138557000D01*
X223647000Y-139629076D01*
X223647000Y-139770924D01*
X223647000Y-140843000D01*
X225006217Y-140843000D01*
X225127358Y-140610974D01*
X225124709Y-140595209D01*
X224870732Y-140067964D01*
X224458891Y-139700000D01*
X224870732Y-139332036D01*
X224949580Y-139168351D01*
X225272600Y-139491371D01*
X225272600Y-142341600D01*
X225328670Y-142623485D01*
X225488345Y-142862455D01*
X225727824Y-143101934D01*
X225646655Y-143510000D01*
X225760729Y-144083489D01*
X225837099Y-144197785D01*
X225837099Y-144197785D01*
G37*
X225837099Y-144197785D02*
X225580462Y-143940700D01*
X225216507Y-143789572D01*
X225127358Y-143789493D01*
X225127358Y-143150974D01*
X225124709Y-143135209D01*
X224870732Y-142607964D01*
X224458891Y-142240000D01*
X224870732Y-141872036D01*
X225124709Y-141344791D01*
X225127358Y-141329026D01*
X225006217Y-141097000D01*
X223647000Y-141097000D01*
X223647000Y-142169076D01*
X223647000Y-142310924D01*
X223647000Y-143383000D01*
X225006217Y-143383000D01*
X225127358Y-143150974D01*
X225127358Y-143789493D01*
X225085815Y-143789457D01*
X225006217Y-143637000D01*
X223647000Y-143637000D01*
X223647000Y-143657000D01*
X223393000Y-143657000D01*
X223393000Y-143637000D01*
X223393000Y-143383000D01*
X223393000Y-142310924D01*
X223393000Y-142169076D01*
X223393000Y-141097000D01*
X223393000Y-140843000D01*
X223393000Y-139770924D01*
X223393000Y-139629076D01*
X223393000Y-138557000D01*
X222033783Y-138557000D01*
X221912642Y-138789026D01*
X221915291Y-138804791D01*
X222169268Y-139332036D01*
X222581108Y-139700000D01*
X222169268Y-140067964D01*
X221915291Y-140595209D01*
X221912642Y-140610974D01*
X222033783Y-140843000D01*
X223393000Y-140843000D01*
X223393000Y-141097000D01*
X222033783Y-141097000D01*
X221912642Y-141329026D01*
X221915291Y-141344791D01*
X222169268Y-141872036D01*
X222581108Y-142240000D01*
X222169268Y-142607964D01*
X221915291Y-143135209D01*
X221912642Y-143150974D01*
X222033783Y-143383000D01*
X223393000Y-143383000D01*
X223393000Y-143637000D01*
X222033783Y-143637000D01*
X221912642Y-143869026D01*
X221915291Y-143884791D01*
X222169268Y-144412036D01*
X222585069Y-144783539D01*
X222275585Y-144990330D01*
X222127603Y-145211800D01*
X221416094Y-145211800D01*
X220929200Y-144724906D01*
X220929200Y-143751991D01*
X220832527Y-143518602D01*
X220653899Y-143339973D01*
X220420510Y-143243300D01*
X220167891Y-143243300D01*
X219847830Y-143243300D01*
X219664614Y-143060084D01*
X219417404Y-142894903D01*
X219125799Y-142836899D01*
X217376049Y-142836899D01*
X217208041Y-142870317D01*
X216926233Y-142753300D01*
X216532148Y-142752956D01*
X216167929Y-142903449D01*
X216137174Y-142934149D01*
X216109698Y-142906673D01*
X215876309Y-142810000D01*
X215535750Y-142810000D01*
X215377000Y-142968750D01*
X215377000Y-143308000D01*
X215250000Y-143308000D01*
X215239945Y-143310000D01*
X215123000Y-143310000D01*
X215123000Y-142968750D01*
X214964250Y-142810000D01*
X214623691Y-142810000D01*
X214390302Y-142906673D01*
X214271051Y-143025922D01*
X214235420Y-142939689D01*
X219837309Y-137337800D01*
X222382107Y-137337800D01*
X222169268Y-137527964D01*
X221915291Y-138055209D01*
X221912642Y-138070974D01*
X222033783Y-138303000D01*
X223393000Y-138303000D01*
X223393000Y-138283000D01*
X223647000Y-138283000D01*
X223647000Y-138303000D01*
X223667000Y-138303000D01*
X223667000Y-138557000D01*
X223647000Y-138557000D01*
X223647000Y-139629076D01*
X223647000Y-139770924D01*
X223647000Y-140843000D01*
X225006217Y-140843000D01*
X225127358Y-140610974D01*
X225124709Y-140595209D01*
X224870732Y-140067964D01*
X224458891Y-139700000D01*
X224870732Y-139332036D01*
X224949580Y-139168351D01*
X225272600Y-139491371D01*
X225272600Y-142341600D01*
X225328670Y-142623485D01*
X225488345Y-142862455D01*
X225727824Y-143101934D01*
X225646655Y-143510000D01*
X225760729Y-144083489D01*
X225837099Y-144197785D01*
G36*
X226821690Y-154203400D02*
X222118492Y-154203400D01*
X222111146Y-154185620D01*
X221736353Y-153810173D01*
X221246413Y-153606732D01*
X220715914Y-153606269D01*
X220225620Y-153808854D01*
X219850173Y-154183647D01*
X219841970Y-154203400D01*
X217195710Y-154203400D01*
X216664170Y-153671860D01*
X216739300Y-153596862D01*
X216890428Y-153232907D01*
X216890772Y-152838822D01*
X216791401Y-152598327D01*
X216791401Y-150595401D01*
X216733397Y-150303796D01*
X216568216Y-150056586D01*
X216568216Y-150056585D01*
X216542815Y-150031185D01*
X216385000Y-149925736D01*
X216351121Y-149903099D01*
X216365596Y-149868153D01*
X216385000Y-149848750D01*
X216385000Y-149821310D01*
X216385000Y-149818690D01*
X216385000Y-149568691D01*
X216385000Y-149321310D01*
X216385000Y-149318691D01*
X216385000Y-149068691D01*
X216385000Y-148821310D01*
X216385000Y-148818691D01*
X216385000Y-148568691D01*
X216385000Y-148321310D01*
X216385000Y-148318691D01*
X216385000Y-148068691D01*
X216385000Y-147821310D01*
X216385000Y-147818691D01*
X216385000Y-147568691D01*
X216385000Y-147321310D01*
X216385000Y-147318691D01*
X216385000Y-147068691D01*
X216385000Y-146821310D01*
X216385000Y-146818691D01*
X216385000Y-146568691D01*
X216385000Y-146321310D01*
X216385000Y-146318691D01*
X216385000Y-146068691D01*
X216385000Y-145821310D01*
X216385000Y-145818691D01*
X216385000Y-145568691D01*
X216385000Y-145332000D01*
X216865200Y-145332000D01*
X216865200Y-145401609D01*
X216961873Y-145634998D01*
X217140501Y-145813627D01*
X217373890Y-145910300D01*
X217626509Y-145910300D01*
X218515509Y-145910300D01*
X218748898Y-145813627D01*
X218897200Y-145665325D01*
X219045501Y-145813627D01*
X219278890Y-145910300D01*
X219531509Y-145910300D01*
X219743806Y-145910300D01*
X220476203Y-146642697D01*
X220748134Y-146824396D01*
X220748135Y-146824396D01*
X221068900Y-146888200D01*
X222127603Y-146888200D01*
X222275585Y-147109670D01*
X222590365Y-147320000D01*
X222275585Y-147530330D01*
X221950729Y-148016511D01*
X221836655Y-148590000D01*
X221950729Y-149163489D01*
X222275585Y-149649670D01*
X222297780Y-149664500D01*
X222144302Y-149728073D01*
X221965673Y-149906701D01*
X221869000Y-150140090D01*
X221869000Y-150392709D01*
X221869000Y-152119909D01*
X221965673Y-152353298D01*
X222144301Y-152531927D01*
X222377690Y-152628600D01*
X222630309Y-152628600D01*
X224662309Y-152628600D01*
X224895698Y-152531927D01*
X225022957Y-152404667D01*
X226821690Y-154203400D01*
X226821690Y-154203400D01*
G37*
X226821690Y-154203400D02*
X222118492Y-154203400D01*
X222111146Y-154185620D01*
X221736353Y-153810173D01*
X221246413Y-153606732D01*
X220715914Y-153606269D01*
X220225620Y-153808854D01*
X219850173Y-154183647D01*
X219841970Y-154203400D01*
X217195710Y-154203400D01*
X216664170Y-153671860D01*
X216739300Y-153596862D01*
X216890428Y-153232907D01*
X216890772Y-152838822D01*
X216791401Y-152598327D01*
X216791401Y-150595401D01*
X216733397Y-150303796D01*
X216568216Y-150056586D01*
X216568216Y-150056585D01*
X216542815Y-150031185D01*
X216385000Y-149925736D01*
X216351121Y-149903099D01*
X216365596Y-149868153D01*
X216385000Y-149848750D01*
X216385000Y-149821310D01*
X216385000Y-149818690D01*
X216385000Y-149568691D01*
X216385000Y-149321310D01*
X216385000Y-149318691D01*
X216385000Y-149068691D01*
X216385000Y-148821310D01*
X216385000Y-148818691D01*
X216385000Y-148568691D01*
X216385000Y-148321310D01*
X216385000Y-148318691D01*
X216385000Y-148068691D01*
X216385000Y-147821310D01*
X216385000Y-147818691D01*
X216385000Y-147568691D01*
X216385000Y-147321310D01*
X216385000Y-147318691D01*
X216385000Y-147068691D01*
X216385000Y-146821310D01*
X216385000Y-146818691D01*
X216385000Y-146568691D01*
X216385000Y-146321310D01*
X216385000Y-146318691D01*
X216385000Y-146068691D01*
X216385000Y-145821310D01*
X216385000Y-145818691D01*
X216385000Y-145568691D01*
X216385000Y-145332000D01*
X216865200Y-145332000D01*
X216865200Y-145401609D01*
X216961873Y-145634998D01*
X217140501Y-145813627D01*
X217373890Y-145910300D01*
X217626509Y-145910300D01*
X218515509Y-145910300D01*
X218748898Y-145813627D01*
X218897200Y-145665325D01*
X219045501Y-145813627D01*
X219278890Y-145910300D01*
X219531509Y-145910300D01*
X219743806Y-145910300D01*
X220476203Y-146642697D01*
X220748134Y-146824396D01*
X220748135Y-146824396D01*
X221068900Y-146888200D01*
X222127603Y-146888200D01*
X222275585Y-147109670D01*
X222590365Y-147320000D01*
X222275585Y-147530330D01*
X221950729Y-148016511D01*
X221836655Y-148590000D01*
X221950729Y-149163489D01*
X222275585Y-149649670D01*
X222297780Y-149664500D01*
X222144302Y-149728073D01*
X221965673Y-149906701D01*
X221869000Y-150140090D01*
X221869000Y-150392709D01*
X221869000Y-152119909D01*
X221965673Y-152353298D01*
X222144301Y-152531927D01*
X222377690Y-152628600D01*
X222630309Y-152628600D01*
X224662309Y-152628600D01*
X224895698Y-152531927D01*
X225022957Y-152404667D01*
X226821690Y-154203400D01*
G36*
X228747000Y-165227000D02*
X228727000Y-165227000D01*
X228727000Y-165247000D01*
X228473000Y-165247000D01*
X228473000Y-165227000D01*
X228453000Y-165227000D01*
X228453000Y-164973000D01*
X228473000Y-164973000D01*
X228473000Y-164953000D01*
X228727000Y-164953000D01*
X228727000Y-164973000D01*
X228747000Y-164973000D01*
X228747000Y-165227000D01*
X228747000Y-165227000D01*
G37*
X228747000Y-165227000D02*
X228727000Y-165227000D01*
X228727000Y-165247000D01*
X228473000Y-165247000D01*
X228473000Y-165227000D01*
X228453000Y-165227000D01*
X228453000Y-164973000D01*
X228473000Y-164973000D01*
X228473000Y-164953000D01*
X228727000Y-164953000D01*
X228727000Y-164973000D01*
X228747000Y-164973000D01*
X228747000Y-165227000D01*
G36*
X231013000Y-171323000D02*
X230454210Y-171323000D01*
X230454210Y-166573190D01*
X230454210Y-164484671D01*
X230398140Y-164202787D01*
X230398140Y-164202786D01*
X230238465Y-163963816D01*
X229583784Y-163309135D01*
X229344814Y-163149460D01*
X229062929Y-163093390D01*
X227406499Y-163093390D01*
X225069710Y-160756600D01*
X227461507Y-160756600D01*
X227468854Y-160774380D01*
X227843647Y-161149827D01*
X228333587Y-161353268D01*
X228864086Y-161353731D01*
X229354380Y-161151146D01*
X229729827Y-160776353D01*
X229933268Y-160286413D01*
X229933731Y-159755914D01*
X229731146Y-159265620D01*
X229356353Y-158890173D01*
X228866413Y-158686732D01*
X228335914Y-158686269D01*
X227845620Y-158888854D01*
X227470173Y-159263647D01*
X227461970Y-159283400D01*
X222118492Y-159283400D01*
X222111146Y-159265620D01*
X221736353Y-158890173D01*
X221246413Y-158686732D01*
X220715914Y-158686269D01*
X220225620Y-158888854D01*
X219884695Y-159229185D01*
X214060000Y-153404490D01*
X214060000Y-153393691D01*
X214060000Y-152393691D01*
X213963327Y-152160302D01*
X213784699Y-151981673D01*
X213752172Y-151968200D01*
X213791490Y-151968200D01*
X214426800Y-152603510D01*
X214426800Y-153212800D01*
X214482870Y-153494685D01*
X214642545Y-153733655D01*
X216369745Y-155460855D01*
X216608715Y-155620530D01*
X216608716Y-155620530D01*
X216890600Y-155676600D01*
X219841507Y-155676600D01*
X219848854Y-155694380D01*
X220223647Y-156069827D01*
X220713587Y-156273268D01*
X221244086Y-156273731D01*
X221734380Y-156071146D01*
X222109827Y-155696353D01*
X222118029Y-155676600D01*
X227461507Y-155676600D01*
X227468854Y-155694380D01*
X227843647Y-156069827D01*
X228333587Y-156273268D01*
X228864086Y-156273731D01*
X229354380Y-156071146D01*
X229729827Y-155696353D01*
X229933268Y-155206413D01*
X229933731Y-154675914D01*
X229731146Y-154185620D01*
X229356353Y-153810173D01*
X228981000Y-153654312D01*
X228866413Y-153606732D01*
X228335914Y-153606269D01*
X228316146Y-153614436D01*
X227330310Y-152628600D01*
X227457002Y-152628600D01*
X227457002Y-152469852D01*
X227615750Y-152628600D01*
X228219691Y-152628600D01*
X228472310Y-152628600D01*
X228705699Y-152531927D01*
X228884327Y-152353298D01*
X228981000Y-152119909D01*
X228981000Y-151415750D01*
X228822250Y-151257000D01*
X227457000Y-151257000D01*
X227457000Y-151277000D01*
X227203000Y-151277000D01*
X227203000Y-151257000D01*
X227183000Y-151257000D01*
X227183000Y-151003000D01*
X227203000Y-151003000D01*
X227203000Y-150983000D01*
X227457000Y-150983000D01*
X227457000Y-151003000D01*
X228822250Y-151003000D01*
X228981000Y-150844250D01*
X228981000Y-150140091D01*
X228884327Y-149906702D01*
X228705699Y-149728073D01*
X228552220Y-149664499D01*
X228574415Y-149649670D01*
X228899271Y-149163489D01*
X229013345Y-148590000D01*
X228899271Y-148016511D01*
X228574415Y-147530330D01*
X228259634Y-147320000D01*
X228574415Y-147109670D01*
X228899271Y-146623489D01*
X229013345Y-146050000D01*
X228899271Y-145476511D01*
X228574415Y-144990330D01*
X228259634Y-144780000D01*
X228574415Y-144569670D01*
X228899271Y-144083489D01*
X229013345Y-143510000D01*
X228899271Y-142936511D01*
X228574415Y-142450330D01*
X228259634Y-142240000D01*
X228574415Y-142029670D01*
X228899271Y-141543489D01*
X229013345Y-140970000D01*
X228899271Y-140396511D01*
X228574415Y-139910330D01*
X228259634Y-139700000D01*
X228574415Y-139489670D01*
X228899271Y-139003489D01*
X229013345Y-138430000D01*
X228899271Y-137856511D01*
X228574415Y-137370330D01*
X228431930Y-137275124D01*
X228535516Y-137120099D01*
X228591586Y-136838214D01*
X228591586Y-135119586D01*
X228567997Y-135001000D01*
X229589909Y-135001000D01*
X229823298Y-134904327D01*
X230001927Y-134725699D01*
X230098600Y-134492310D01*
X230098600Y-134239691D01*
X230098600Y-132207691D01*
X230001927Y-131974302D01*
X229823299Y-131795673D01*
X229589910Y-131699000D01*
X229337291Y-131699000D01*
X227914210Y-131699000D01*
X227914210Y-131691650D01*
X227858140Y-131409765D01*
X227711965Y-131191000D01*
X227862709Y-131191000D01*
X229589909Y-131191000D01*
X229823298Y-131094327D01*
X230001927Y-130915699D01*
X230098600Y-130682310D01*
X230098600Y-130429691D01*
X230098600Y-128397691D01*
X230001927Y-128164302D01*
X229823299Y-127985673D01*
X229589910Y-127889000D01*
X229337291Y-127889000D01*
X227610091Y-127889000D01*
X227376702Y-127985673D01*
X227198073Y-128164301D01*
X227134499Y-128317779D01*
X227119670Y-128295585D01*
X226633489Y-127970729D01*
X226060000Y-127856655D01*
X225486511Y-127970729D01*
X225000330Y-128295585D01*
X224790000Y-128610365D01*
X224579670Y-128295585D01*
X224093489Y-127970729D01*
X223520000Y-127856655D01*
X222946511Y-127970729D01*
X222460330Y-128295585D01*
X222250000Y-128610365D01*
X222039670Y-128295585D01*
X221553489Y-127970729D01*
X220980000Y-127856655D01*
X220406511Y-127970729D01*
X219920330Y-128295585D01*
X219710000Y-128610365D01*
X219499670Y-128295585D01*
X219013489Y-127970729D01*
X218440000Y-127856655D01*
X217866511Y-127970729D01*
X217380330Y-128295585D01*
X217170000Y-128610365D01*
X216959670Y-128295585D01*
X216473489Y-127970729D01*
X215900000Y-127856655D01*
X215326511Y-127970729D01*
X214840330Y-128295585D01*
X214630000Y-128610365D01*
X214419670Y-128295585D01*
X213933489Y-127970729D01*
X213360000Y-127856655D01*
X212786511Y-127970729D01*
X212300330Y-128295585D01*
X212090000Y-128610365D01*
X211879670Y-128295585D01*
X211393489Y-127970729D01*
X210820000Y-127856655D01*
X210246511Y-127970729D01*
X209760330Y-128295585D01*
X209550000Y-128610365D01*
X209339670Y-128295585D01*
X208853489Y-127970729D01*
X208280000Y-127856655D01*
X207706511Y-127970729D01*
X207220330Y-128295585D01*
X207010000Y-128610365D01*
X206799670Y-128295585D01*
X206313489Y-127970729D01*
X205740000Y-127856655D01*
X205166511Y-127970729D01*
X204680330Y-128295585D01*
X204470000Y-128610365D01*
X204259670Y-128295585D01*
X203773489Y-127970729D01*
X203200000Y-127856655D01*
X202626511Y-127970729D01*
X202140330Y-128295585D01*
X201930000Y-128610365D01*
X201719670Y-128295585D01*
X201233489Y-127970729D01*
X200660000Y-127856655D01*
X200086511Y-127970729D01*
X199600330Y-128295585D01*
X199390000Y-128610365D01*
X199179670Y-128295585D01*
X198693489Y-127970729D01*
X198120000Y-127856655D01*
X197546511Y-127970729D01*
X197060330Y-128295585D01*
X196850000Y-128610365D01*
X196639670Y-128295585D01*
X196153489Y-127970729D01*
X195580000Y-127856655D01*
X195006511Y-127970729D01*
X194520330Y-128295585D01*
X194310000Y-128610365D01*
X194099670Y-128295585D01*
X193613489Y-127970729D01*
X193040000Y-127856655D01*
X192466511Y-127970729D01*
X191980330Y-128295585D01*
X191773539Y-128605069D01*
X191402036Y-128189268D01*
X190874791Y-127935291D01*
X190859026Y-127932642D01*
X190627000Y-128053783D01*
X190627000Y-129413000D01*
X190647000Y-129413000D01*
X190647000Y-129667000D01*
X190627000Y-129667000D01*
X190627000Y-129687000D01*
X190373000Y-129687000D01*
X190373000Y-129667000D01*
X190373000Y-129413000D01*
X190373000Y-128053783D01*
X190140974Y-127932642D01*
X190125209Y-127935291D01*
X189597964Y-128189268D01*
X189208046Y-128625680D01*
X189014816Y-129178087D01*
X189159076Y-129413000D01*
X190373000Y-129413000D01*
X190373000Y-129667000D01*
X189159076Y-129667000D01*
X189014816Y-129901913D01*
X189208046Y-130454320D01*
X189597964Y-130890732D01*
X189825833Y-131000498D01*
X189607888Y-131043850D01*
X189368918Y-131203525D01*
X188505925Y-132066518D01*
X188346250Y-132305488D01*
X188290180Y-132587373D01*
X188290180Y-134112627D01*
X188315610Y-134240473D01*
X188315610Y-153543010D01*
X188371680Y-153824895D01*
X188531355Y-154063865D01*
X190469932Y-156002442D01*
X190368073Y-156104301D01*
X190271400Y-156337690D01*
X190271400Y-156590309D01*
X190271400Y-158622309D01*
X190368073Y-158855698D01*
X190546701Y-159034327D01*
X190780090Y-159131000D01*
X191032709Y-159131000D01*
X192759909Y-159131000D01*
X192993298Y-159034327D01*
X193171927Y-158855699D01*
X193235500Y-158702220D01*
X193250330Y-158724415D01*
X193736511Y-159049271D01*
X194310000Y-159163345D01*
X194883489Y-159049271D01*
X195369670Y-158724415D01*
X195580000Y-158409634D01*
X195790330Y-158724415D01*
X196276511Y-159049271D01*
X196850000Y-159163345D01*
X197423489Y-159049271D01*
X197909670Y-158724415D01*
X198120000Y-158409634D01*
X198330330Y-158724415D01*
X198816511Y-159049271D01*
X199390000Y-159163345D01*
X199906304Y-159060645D01*
X196406950Y-162560000D01*
X195650461Y-162560000D01*
X195368576Y-162616070D01*
X195129606Y-162775745D01*
X194069754Y-163835596D01*
X193613489Y-163530729D01*
X193040000Y-163416655D01*
X192466511Y-163530729D01*
X191980330Y-163855585D01*
X191965499Y-163877780D01*
X191901927Y-163724302D01*
X191723299Y-163545673D01*
X191489910Y-163449000D01*
X191237291Y-163449000D01*
X189510091Y-163449000D01*
X189276702Y-163545673D01*
X189098073Y-163724301D01*
X189001400Y-163957690D01*
X189001400Y-164210309D01*
X189001400Y-166242309D01*
X189098073Y-166475698D01*
X189276701Y-166654327D01*
X189510090Y-166751000D01*
X189762709Y-166751000D01*
X191489909Y-166751000D01*
X191723298Y-166654327D01*
X191901927Y-166475699D01*
X191965500Y-166322220D01*
X191980330Y-166344415D01*
X192466511Y-166669271D01*
X192928019Y-166761070D01*
X192519145Y-167169945D01*
X192359470Y-167408915D01*
X192358704Y-167412762D01*
X191980330Y-167665585D01*
X191965500Y-167687779D01*
X191901927Y-167534301D01*
X191723298Y-167355673D01*
X191489909Y-167259000D01*
X190785750Y-167259000D01*
X190627000Y-167417750D01*
X190627000Y-168783000D01*
X190647000Y-168783000D01*
X190647000Y-169037000D01*
X190627000Y-169037000D01*
X190627000Y-170402250D01*
X190785750Y-170561000D01*
X191489909Y-170561000D01*
X191723298Y-170464327D01*
X191901927Y-170285699D01*
X191965500Y-170132220D01*
X191980330Y-170154415D01*
X192466511Y-170479271D01*
X193040000Y-170593345D01*
X193613489Y-170479271D01*
X194099670Y-170154415D01*
X194310000Y-169839634D01*
X194520330Y-170154415D01*
X195006511Y-170479271D01*
X195580000Y-170593345D01*
X196153489Y-170479271D01*
X196639670Y-170154415D01*
X196850000Y-169839634D01*
X197060330Y-170154415D01*
X197546511Y-170479271D01*
X198120000Y-170593345D01*
X198693489Y-170479271D01*
X199179670Y-170154415D01*
X199390000Y-169839634D01*
X199600330Y-170154415D01*
X200086511Y-170479271D01*
X200660000Y-170593345D01*
X201233489Y-170479271D01*
X201719670Y-170154415D01*
X201930000Y-169839634D01*
X202140330Y-170154415D01*
X202626511Y-170479271D01*
X203200000Y-170593345D01*
X203773489Y-170479271D01*
X204259670Y-170154415D01*
X204470000Y-169839634D01*
X204680330Y-170154415D01*
X205166511Y-170479271D01*
X205740000Y-170593345D01*
X206313489Y-170479271D01*
X206799670Y-170154415D01*
X207010000Y-169839634D01*
X207220330Y-170154415D01*
X207706511Y-170479271D01*
X208280000Y-170593345D01*
X208853489Y-170479271D01*
X209339670Y-170154415D01*
X209550000Y-169839634D01*
X209760330Y-170154415D01*
X210246511Y-170479271D01*
X210820000Y-170593345D01*
X211393489Y-170479271D01*
X211879670Y-170154415D01*
X212090000Y-169839634D01*
X212300330Y-170154415D01*
X212786511Y-170479271D01*
X213360000Y-170593345D01*
X213933489Y-170479271D01*
X214419670Y-170154415D01*
X214630000Y-169839634D01*
X214840330Y-170154415D01*
X215326511Y-170479271D01*
X215900000Y-170593345D01*
X216473489Y-170479271D01*
X216959670Y-170154415D01*
X217170000Y-169839634D01*
X217380330Y-170154415D01*
X217866511Y-170479271D01*
X218440000Y-170593345D01*
X219013489Y-170479271D01*
X219499670Y-170154415D01*
X219710000Y-169839634D01*
X219920330Y-170154415D01*
X220406511Y-170479271D01*
X220980000Y-170593345D01*
X221553489Y-170479271D01*
X222039670Y-170154415D01*
X222250000Y-169839634D01*
X222460330Y-170154415D01*
X222946511Y-170479271D01*
X223520000Y-170593345D01*
X224093489Y-170479271D01*
X224579670Y-170154415D01*
X224790000Y-169839634D01*
X225000330Y-170154415D01*
X225486511Y-170479271D01*
X226060000Y-170593345D01*
X226633489Y-170479271D01*
X227119670Y-170154415D01*
X227330000Y-169839634D01*
X227540330Y-170154415D01*
X228026511Y-170479271D01*
X228600000Y-170593345D01*
X229173489Y-170479271D01*
X229659670Y-170154415D01*
X229984526Y-169668234D01*
X230098600Y-169094745D01*
X230098600Y-168725255D01*
X229984526Y-168151766D01*
X229662575Y-167669934D01*
X230238465Y-167094045D01*
X230398140Y-166855075D01*
X230454210Y-166573190D01*
X230454210Y-171323000D01*
X190373000Y-171323000D01*
X190373000Y-170402250D01*
X190373000Y-169037000D01*
X190373000Y-168783000D01*
X190373000Y-167417750D01*
X190214250Y-167259000D01*
X189510091Y-167259000D01*
X189276702Y-167355673D01*
X189098073Y-167534301D01*
X189001400Y-167767690D01*
X189001400Y-168020309D01*
X189001400Y-168624250D01*
X189160150Y-168783000D01*
X190373000Y-168783000D01*
X190373000Y-169037000D01*
X189160150Y-169037000D01*
X189001400Y-169195750D01*
X189001400Y-169799691D01*
X189001400Y-170052310D01*
X189098073Y-170285699D01*
X189276702Y-170464327D01*
X189510091Y-170561000D01*
X190214250Y-170561000D01*
X190373000Y-170402250D01*
X190373000Y-171323000D01*
X188087000Y-171323000D01*
X188087000Y-127127000D01*
X231013000Y-127127000D01*
X231013000Y-171323000D01*
X231013000Y-171323000D01*
G37*
X231013000Y-171323000D02*
X230454210Y-171323000D01*
X230454210Y-166573190D01*
X230454210Y-164484671D01*
X230398140Y-164202787D01*
X230398140Y-164202786D01*
X230238465Y-163963816D01*
X229583784Y-163309135D01*
X229344814Y-163149460D01*
X229062929Y-163093390D01*
X227406499Y-163093390D01*
X225069710Y-160756600D01*
X227461507Y-160756600D01*
X227468854Y-160774380D01*
X227843647Y-161149827D01*
X228333587Y-161353268D01*
X228864086Y-161353731D01*
X229354380Y-161151146D01*
X229729827Y-160776353D01*
X229933268Y-160286413D01*
X229933731Y-159755914D01*
X229731146Y-159265620D01*
X229356353Y-158890173D01*
X228866413Y-158686732D01*
X228335914Y-158686269D01*
X227845620Y-158888854D01*
X227470173Y-159263647D01*
X227461970Y-159283400D01*
X222118492Y-159283400D01*
X222111146Y-159265620D01*
X221736353Y-158890173D01*
X221246413Y-158686732D01*
X220715914Y-158686269D01*
X220225620Y-158888854D01*
X219884695Y-159229185D01*
X214060000Y-153404490D01*
X214060000Y-153393691D01*
X214060000Y-152393691D01*
X213963327Y-152160302D01*
X213784699Y-151981673D01*
X213752172Y-151968200D01*
X213791490Y-151968200D01*
X214426800Y-152603510D01*
X214426800Y-153212800D01*
X214482870Y-153494685D01*
X214642545Y-153733655D01*
X216369745Y-155460855D01*
X216608715Y-155620530D01*
X216608716Y-155620530D01*
X216890600Y-155676600D01*
X219841507Y-155676600D01*
X219848854Y-155694380D01*
X220223647Y-156069827D01*
X220713587Y-156273268D01*
X221244086Y-156273731D01*
X221734380Y-156071146D01*
X222109827Y-155696353D01*
X222118029Y-155676600D01*
X227461507Y-155676600D01*
X227468854Y-155694380D01*
X227843647Y-156069827D01*
X228333587Y-156273268D01*
X228864086Y-156273731D01*
X229354380Y-156071146D01*
X229729827Y-155696353D01*
X229933268Y-155206413D01*
X229933731Y-154675914D01*
X229731146Y-154185620D01*
X229356353Y-153810173D01*
X228981000Y-153654312D01*
X228866413Y-153606732D01*
X228335914Y-153606269D01*
X228316146Y-153614436D01*
X227330310Y-152628600D01*
X227457002Y-152628600D01*
X227457002Y-152469852D01*
X227615750Y-152628600D01*
X228219691Y-152628600D01*
X228472310Y-152628600D01*
X228705699Y-152531927D01*
X228884327Y-152353298D01*
X228981000Y-152119909D01*
X228981000Y-151415750D01*
X228822250Y-151257000D01*
X227457000Y-151257000D01*
X227457000Y-151277000D01*
X227203000Y-151277000D01*
X227203000Y-151257000D01*
X227183000Y-151257000D01*
X227183000Y-151003000D01*
X227203000Y-151003000D01*
X227203000Y-150983000D01*
X227457000Y-150983000D01*
X227457000Y-151003000D01*
X228822250Y-151003000D01*
X228981000Y-150844250D01*
X228981000Y-150140091D01*
X228884327Y-149906702D01*
X228705699Y-149728073D01*
X228552220Y-149664499D01*
X228574415Y-149649670D01*
X228899271Y-149163489D01*
X229013345Y-148590000D01*
X228899271Y-148016511D01*
X228574415Y-147530330D01*
X228259634Y-147320000D01*
X228574415Y-147109670D01*
X228899271Y-146623489D01*
X229013345Y-146050000D01*
X228899271Y-145476511D01*
X228574415Y-144990330D01*
X228259634Y-144780000D01*
X228574415Y-144569670D01*
X228899271Y-144083489D01*
X229013345Y-143510000D01*
X228899271Y-142936511D01*
X228574415Y-142450330D01*
X228259634Y-142240000D01*
X228574415Y-142029670D01*
X228899271Y-141543489D01*
X229013345Y-140970000D01*
X228899271Y-140396511D01*
X228574415Y-139910330D01*
X228259634Y-139700000D01*
X228574415Y-139489670D01*
X228899271Y-139003489D01*
X229013345Y-138430000D01*
X228899271Y-137856511D01*
X228574415Y-137370330D01*
X228431930Y-137275124D01*
X228535516Y-137120099D01*
X228591586Y-136838214D01*
X228591586Y-135119586D01*
X228567997Y-135001000D01*
X229589909Y-135001000D01*
X229823298Y-134904327D01*
X230001927Y-134725699D01*
X230098600Y-134492310D01*
X230098600Y-134239691D01*
X230098600Y-132207691D01*
X230001927Y-131974302D01*
X229823299Y-131795673D01*
X229589910Y-131699000D01*
X229337291Y-131699000D01*
X227914210Y-131699000D01*
X227914210Y-131691650D01*
X227858140Y-131409765D01*
X227711965Y-131191000D01*
X227862709Y-131191000D01*
X229589909Y-131191000D01*
X229823298Y-131094327D01*
X230001927Y-130915699D01*
X230098600Y-130682310D01*
X230098600Y-130429691D01*
X230098600Y-128397691D01*
X230001927Y-128164302D01*
X229823299Y-127985673D01*
X229589910Y-127889000D01*
X229337291Y-127889000D01*
X227610091Y-127889000D01*
X227376702Y-127985673D01*
X227198073Y-128164301D01*
X227134499Y-128317779D01*
X227119670Y-128295585D01*
X226633489Y-127970729D01*
X226060000Y-127856655D01*
X225486511Y-127970729D01*
X225000330Y-128295585D01*
X224790000Y-128610365D01*
X224579670Y-128295585D01*
X224093489Y-127970729D01*
X223520000Y-127856655D01*
X222946511Y-127970729D01*
X222460330Y-128295585D01*
X222250000Y-128610365D01*
X222039670Y-128295585D01*
X221553489Y-127970729D01*
X220980000Y-127856655D01*
X220406511Y-127970729D01*
X219920330Y-128295585D01*
X219710000Y-128610365D01*
X219499670Y-128295585D01*
X219013489Y-127970729D01*
X218440000Y-127856655D01*
X217866511Y-127970729D01*
X217380330Y-128295585D01*
X217170000Y-128610365D01*
X216959670Y-128295585D01*
X216473489Y-127970729D01*
X215900000Y-127856655D01*
X215326511Y-127970729D01*
X214840330Y-128295585D01*
X214630000Y-128610365D01*
X214419670Y-128295585D01*
X213933489Y-127970729D01*
X213360000Y-127856655D01*
X212786511Y-127970729D01*
X212300330Y-128295585D01*
X212090000Y-128610365D01*
X211879670Y-128295585D01*
X211393489Y-127970729D01*
X210820000Y-127856655D01*
X210246511Y-127970729D01*
X209760330Y-128295585D01*
X209550000Y-128610365D01*
X209339670Y-128295585D01*
X208853489Y-127970729D01*
X208280000Y-127856655D01*
X207706511Y-127970729D01*
X207220330Y-128295585D01*
X207010000Y-128610365D01*
X206799670Y-128295585D01*
X206313489Y-127970729D01*
X205740000Y-127856655D01*
X205166511Y-127970729D01*
X204680330Y-128295585D01*
X204470000Y-128610365D01*
X204259670Y-128295585D01*
X203773489Y-127970729D01*
X203200000Y-127856655D01*
X202626511Y-127970729D01*
X202140330Y-128295585D01*
X201930000Y-128610365D01*
X201719670Y-128295585D01*
X201233489Y-127970729D01*
X200660000Y-127856655D01*
X200086511Y-127970729D01*
X199600330Y-128295585D01*
X199390000Y-128610365D01*
X199179670Y-128295585D01*
X198693489Y-127970729D01*
X198120000Y-127856655D01*
X197546511Y-127970729D01*
X197060330Y-128295585D01*
X196850000Y-128610365D01*
X196639670Y-128295585D01*
X196153489Y-127970729D01*
X195580000Y-127856655D01*
X195006511Y-127970729D01*
X194520330Y-128295585D01*
X194310000Y-128610365D01*
X194099670Y-128295585D01*
X193613489Y-127970729D01*
X193040000Y-127856655D01*
X192466511Y-127970729D01*
X191980330Y-128295585D01*
X191773539Y-128605069D01*
X191402036Y-128189268D01*
X190874791Y-127935291D01*
X190859026Y-127932642D01*
X190627000Y-128053783D01*
X190627000Y-129413000D01*
X190647000Y-129413000D01*
X190647000Y-129667000D01*
X190627000Y-129667000D01*
X190627000Y-129687000D01*
X190373000Y-129687000D01*
X190373000Y-129667000D01*
X190373000Y-129413000D01*
X190373000Y-128053783D01*
X190140974Y-127932642D01*
X190125209Y-127935291D01*
X189597964Y-128189268D01*
X189208046Y-128625680D01*
X189014816Y-129178087D01*
X189159076Y-129413000D01*
X190373000Y-129413000D01*
X190373000Y-129667000D01*
X189159076Y-129667000D01*
X189014816Y-129901913D01*
X189208046Y-130454320D01*
X189597964Y-130890732D01*
X189825833Y-131000498D01*
X189607888Y-131043850D01*
X189368918Y-131203525D01*
X188505925Y-132066518D01*
X188346250Y-132305488D01*
X188290180Y-132587373D01*
X188290180Y-134112627D01*
X188315610Y-134240473D01*
X188315610Y-153543010D01*
X188371680Y-153824895D01*
X188531355Y-154063865D01*
X190469932Y-156002442D01*
X190368073Y-156104301D01*
X190271400Y-156337690D01*
X190271400Y-156590309D01*
X190271400Y-158622309D01*
X190368073Y-158855698D01*
X190546701Y-159034327D01*
X190780090Y-159131000D01*
X191032709Y-159131000D01*
X192759909Y-159131000D01*
X192993298Y-159034327D01*
X193171927Y-158855699D01*
X193235500Y-158702220D01*
X193250330Y-158724415D01*
X193736511Y-159049271D01*
X194310000Y-159163345D01*
X194883489Y-159049271D01*
X195369670Y-158724415D01*
X195580000Y-158409634D01*
X195790330Y-158724415D01*
X196276511Y-159049271D01*
X196850000Y-159163345D01*
X197423489Y-159049271D01*
X197909670Y-158724415D01*
X198120000Y-158409634D01*
X198330330Y-158724415D01*
X198816511Y-159049271D01*
X199390000Y-159163345D01*
X199906304Y-159060645D01*
X196406950Y-162560000D01*
X195650461Y-162560000D01*
X195368576Y-162616070D01*
X195129606Y-162775745D01*
X194069754Y-163835596D01*
X193613489Y-163530729D01*
X193040000Y-163416655D01*
X192466511Y-163530729D01*
X191980330Y-163855585D01*
X191965499Y-163877780D01*
X191901927Y-163724302D01*
X191723299Y-163545673D01*
X191489910Y-163449000D01*
X191237291Y-163449000D01*
X189510091Y-163449000D01*
X189276702Y-163545673D01*
X189098073Y-163724301D01*
X189001400Y-163957690D01*
X189001400Y-164210309D01*
X189001400Y-166242309D01*
X189098073Y-166475698D01*
X189276701Y-166654327D01*
X189510090Y-166751000D01*
X189762709Y-166751000D01*
X191489909Y-166751000D01*
X191723298Y-166654327D01*
X191901927Y-166475699D01*
X191965500Y-166322220D01*
X191980330Y-166344415D01*
X192466511Y-166669271D01*
X192928019Y-166761070D01*
X192519145Y-167169945D01*
X192359470Y-167408915D01*
X192358704Y-167412762D01*
X191980330Y-167665585D01*
X191965500Y-167687779D01*
X191901927Y-167534301D01*
X191723298Y-167355673D01*
X191489909Y-167259000D01*
X190785750Y-167259000D01*
X190627000Y-167417750D01*
X190627000Y-168783000D01*
X190647000Y-168783000D01*
X190647000Y-169037000D01*
X190627000Y-169037000D01*
X190627000Y-170402250D01*
X190785750Y-170561000D01*
X191489909Y-170561000D01*
X191723298Y-170464327D01*
X191901927Y-170285699D01*
X191965500Y-170132220D01*
X191980330Y-170154415D01*
X192466511Y-170479271D01*
X193040000Y-170593345D01*
X193613489Y-170479271D01*
X194099670Y-170154415D01*
X194310000Y-169839634D01*
X194520330Y-170154415D01*
X195006511Y-170479271D01*
X195580000Y-170593345D01*
X196153489Y-170479271D01*
X196639670Y-170154415D01*
X196850000Y-169839634D01*
X197060330Y-170154415D01*
X197546511Y-170479271D01*
X198120000Y-170593345D01*
X198693489Y-170479271D01*
X199179670Y-170154415D01*
X199390000Y-169839634D01*
X199600330Y-170154415D01*
X200086511Y-170479271D01*
X200660000Y-170593345D01*
X201233489Y-170479271D01*
X201719670Y-170154415D01*
X201930000Y-169839634D01*
X202140330Y-170154415D01*
X202626511Y-170479271D01*
X203200000Y-170593345D01*
X203773489Y-170479271D01*
X204259670Y-170154415D01*
X204470000Y-169839634D01*
X204680330Y-170154415D01*
X205166511Y-170479271D01*
X205740000Y-170593345D01*
X206313489Y-170479271D01*
X206799670Y-170154415D01*
X207010000Y-169839634D01*
X207220330Y-170154415D01*
X207706511Y-170479271D01*
X208280000Y-170593345D01*
X208853489Y-170479271D01*
X209339670Y-170154415D01*
X209550000Y-169839634D01*
X209760330Y-170154415D01*
X210246511Y-170479271D01*
X210820000Y-170593345D01*
X211393489Y-170479271D01*
X211879670Y-170154415D01*
X212090000Y-169839634D01*
X212300330Y-170154415D01*
X212786511Y-170479271D01*
X213360000Y-170593345D01*
X213933489Y-170479271D01*
X214419670Y-170154415D01*
X214630000Y-169839634D01*
X214840330Y-170154415D01*
X215326511Y-170479271D01*
X215900000Y-170593345D01*
X216473489Y-170479271D01*
X216959670Y-170154415D01*
X217170000Y-169839634D01*
X217380330Y-170154415D01*
X217866511Y-170479271D01*
X218440000Y-170593345D01*
X219013489Y-170479271D01*
X219499670Y-170154415D01*
X219710000Y-169839634D01*
X219920330Y-170154415D01*
X220406511Y-170479271D01*
X220980000Y-170593345D01*
X221553489Y-170479271D01*
X222039670Y-170154415D01*
X222250000Y-169839634D01*
X222460330Y-170154415D01*
X222946511Y-170479271D01*
X223520000Y-170593345D01*
X224093489Y-170479271D01*
X224579670Y-170154415D01*
X224790000Y-169839634D01*
X225000330Y-170154415D01*
X225486511Y-170479271D01*
X226060000Y-170593345D01*
X226633489Y-170479271D01*
X227119670Y-170154415D01*
X227330000Y-169839634D01*
X227540330Y-170154415D01*
X228026511Y-170479271D01*
X228600000Y-170593345D01*
X229173489Y-170479271D01*
X229659670Y-170154415D01*
X229984526Y-169668234D01*
X230098600Y-169094745D01*
X230098600Y-168725255D01*
X229984526Y-168151766D01*
X229662575Y-167669934D01*
X230238465Y-167094045D01*
X230398140Y-166855075D01*
X230454210Y-166573190D01*
X230454210Y-171323000D01*
X190373000Y-171323000D01*
X190373000Y-170402250D01*
X190373000Y-169037000D01*
X190373000Y-168783000D01*
X190373000Y-167417750D01*
X190214250Y-167259000D01*
X189510091Y-167259000D01*
X189276702Y-167355673D01*
X189098073Y-167534301D01*
X189001400Y-167767690D01*
X189001400Y-168020309D01*
X189001400Y-168624250D01*
X189160150Y-168783000D01*
X190373000Y-168783000D01*
X190373000Y-169037000D01*
X189160150Y-169037000D01*
X189001400Y-169195750D01*
X189001400Y-169799691D01*
X189001400Y-170052310D01*
X189098073Y-170285699D01*
X189276702Y-170464327D01*
X189510091Y-170561000D01*
X190214250Y-170561000D01*
X190373000Y-170402250D01*
X190373000Y-171323000D01*
X188087000Y-171323000D01*
X188087000Y-127127000D01*
X231013000Y-127127000D01*
X231013000Y-171323000D01*
M02*
