%FSLAX46Y46*%
G04 Gerber Fmt 4.6, Leading zero omitted, Abs format (unit mm)*
G04 Created by KiCad (PCBNEW (20140926 BZR5148)-product) date Sat 01 Nov 2014 11:29:57 PM CDT*
%MOMM*%
G01*
G04 APERTURE LIST*
%ADD10C,0.150000*%
%ADD11R,1.397000X0.889000*%
%ADD12R,0.889000X1.397000*%
%ADD13R,2.032000X1.727200*%
%ADD14O,2.032000X1.727200*%
%ADD15R,1.727200X2.032000*%
%ADD16O,1.727200X2.032000*%
%ADD17C,1.397000*%
%ADD18C,1.422400*%
G04 APERTURE END LIST*
D10*
D11*
X193040000Y-143192500D03*
X193040000Y-141287500D03*
X198120000Y-143192500D03*
X198120000Y-141287500D03*
X193040000Y-153352500D03*
X193040000Y-151447500D03*
X198120000Y-153352500D03*
X198120000Y-151447500D03*
X217246200Y-151142700D03*
X217246200Y-153047700D03*
X228574600Y-156578300D03*
X228574600Y-158483300D03*
D12*
X202882500Y-140970000D03*
X204787500Y-140970000D03*
D11*
X201930000Y-152717500D03*
X201930000Y-150812500D03*
D12*
X216217500Y-142240000D03*
X218122500Y-142240000D03*
D13*
X223520000Y-151130000D03*
D14*
X223520000Y-148590000D03*
X223520000Y-146050000D03*
X223520000Y-143510000D03*
X223520000Y-140970000D03*
X223520000Y-138430000D03*
D13*
X227330000Y-151130000D03*
D14*
X227330000Y-148590000D03*
X227330000Y-146050000D03*
X227330000Y-143510000D03*
X227330000Y-140970000D03*
X227330000Y-138430000D03*
D15*
X191770000Y-157480000D03*
D16*
X194310000Y-157480000D03*
X196850000Y-157480000D03*
X199390000Y-157480000D03*
D15*
X190500000Y-168910000D03*
D16*
X193040000Y-168910000D03*
X195580000Y-168910000D03*
X198120000Y-168910000D03*
X200660000Y-168910000D03*
X203200000Y-168910000D03*
X205740000Y-168910000D03*
X208280000Y-168910000D03*
X210820000Y-168910000D03*
X213360000Y-168910000D03*
X215900000Y-168910000D03*
X218440000Y-168910000D03*
X220980000Y-168910000D03*
X223520000Y-168910000D03*
X226060000Y-168910000D03*
X228600000Y-168910000D03*
D15*
X190500000Y-165100000D03*
D16*
X193040000Y-165100000D03*
X195580000Y-165100000D03*
X198120000Y-165100000D03*
X200660000Y-165100000D03*
X203200000Y-165100000D03*
X205740000Y-165100000D03*
X208280000Y-165100000D03*
X210820000Y-165100000D03*
X213360000Y-165100000D03*
X215900000Y-165100000D03*
X218440000Y-165100000D03*
X220980000Y-165100000D03*
X223520000Y-165100000D03*
X226060000Y-165100000D03*
X228600000Y-165100000D03*
D15*
X228600000Y-133350000D03*
D16*
X226060000Y-133350000D03*
X223520000Y-133350000D03*
X220980000Y-133350000D03*
X218440000Y-133350000D03*
X215900000Y-133350000D03*
X213360000Y-133350000D03*
X210820000Y-133350000D03*
X208280000Y-133350000D03*
X205740000Y-133350000D03*
X203200000Y-133350000D03*
X200660000Y-133350000D03*
X198120000Y-133350000D03*
X195580000Y-133350000D03*
X193040000Y-133350000D03*
X190500000Y-133350000D03*
D15*
X228600000Y-129540000D03*
D16*
X226060000Y-129540000D03*
X223520000Y-129540000D03*
X220980000Y-129540000D03*
X218440000Y-129540000D03*
X215900000Y-129540000D03*
X213360000Y-129540000D03*
X210820000Y-129540000D03*
X208280000Y-129540000D03*
X205740000Y-129540000D03*
X203200000Y-129540000D03*
X200660000Y-129540000D03*
X198120000Y-129540000D03*
X195580000Y-129540000D03*
X193040000Y-129540000D03*
X190500000Y-129540000D03*
D17*
X228600000Y-154940000D03*
X228600000Y-160020000D03*
X220980000Y-154940000D03*
X220980000Y-160020000D03*
D18*
X193040000Y-139700000D03*
X198120000Y-139700000D03*
X193040000Y-149860000D03*
X198120000Y-149860000D03*
M02*
