%FSLAX46Y46*%
G04 Gerber Fmt 4.6, Leading zero omitted, Abs format (unit mm)*
G04 Created by KiCad (PCBNEW (20140926 BZR5148)-product) date Sat 01 Nov 2014 11:29:57 PM CDT*
%MOMM*%
G01*
G04 APERTURE LIST*
%ADD10C,0.150000*%
%ADD11C,0.099060*%
%ADD12C,0.109220*%
G04 APERTURE END LIST*
D10*
D11*
X192405000Y-143891000D02*
G75*
G03X192405000Y-143891000I-127000J0D01*
G74*
G01*
X192278000Y-142748000D02*
X192278000Y-143764000D01*
X192278000Y-143764000D02*
X193802000Y-143764000D01*
X193802000Y-143764000D02*
X193802000Y-142748000D01*
X193802000Y-141732000D02*
X193802000Y-140716000D01*
X193802000Y-140716000D02*
X192278000Y-140716000D01*
X192278000Y-140716000D02*
X192278000Y-141732000D01*
X197485000Y-143891000D02*
G75*
G03X197485000Y-143891000I-127000J0D01*
G74*
G01*
X197358000Y-142748000D02*
X197358000Y-143764000D01*
X197358000Y-143764000D02*
X198882000Y-143764000D01*
X198882000Y-143764000D02*
X198882000Y-142748000D01*
X198882000Y-141732000D02*
X198882000Y-140716000D01*
X198882000Y-140716000D02*
X197358000Y-140716000D01*
X197358000Y-140716000D02*
X197358000Y-141732000D01*
X192405000Y-154051000D02*
G75*
G03X192405000Y-154051000I-127000J0D01*
G74*
G01*
X192278000Y-152908000D02*
X192278000Y-153924000D01*
X192278000Y-153924000D02*
X193802000Y-153924000D01*
X193802000Y-153924000D02*
X193802000Y-152908000D01*
X193802000Y-151892000D02*
X193802000Y-150876000D01*
X193802000Y-150876000D02*
X192278000Y-150876000D01*
X192278000Y-150876000D02*
X192278000Y-151892000D01*
X197485000Y-154051000D02*
G75*
G03X197485000Y-154051000I-127000J0D01*
G74*
G01*
X197358000Y-152908000D02*
X197358000Y-153924000D01*
X197358000Y-153924000D02*
X198882000Y-153924000D01*
X198882000Y-153924000D02*
X198882000Y-152908000D01*
X198882000Y-151892000D02*
X198882000Y-150876000D01*
X198882000Y-150876000D02*
X197358000Y-150876000D01*
X197358000Y-150876000D02*
X197358000Y-151892000D01*
X218135200Y-150444200D02*
G75*
G03X218135200Y-150444200I-127000J0D01*
G74*
G01*
X218008200Y-151587200D02*
X218008200Y-150571200D01*
X218008200Y-150571200D02*
X216484200Y-150571200D01*
X216484200Y-150571200D02*
X216484200Y-151587200D01*
X216484200Y-152603200D02*
X216484200Y-153619200D01*
X216484200Y-153619200D02*
X218008200Y-153619200D01*
X218008200Y-153619200D02*
X218008200Y-152603200D01*
X229463600Y-155879800D02*
G75*
G03X229463600Y-155879800I-127000J0D01*
G74*
G01*
X229336600Y-157022800D02*
X229336600Y-156006800D01*
X229336600Y-156006800D02*
X227812600Y-156006800D01*
X227812600Y-156006800D02*
X227812600Y-157022800D01*
X227812600Y-158038800D02*
X227812600Y-159054800D01*
X227812600Y-159054800D02*
X229336600Y-159054800D01*
X229336600Y-159054800D02*
X229336600Y-158038800D01*
X202311000Y-140208000D02*
G75*
G03X202311000Y-140208000I-127000J0D01*
G74*
G01*
X203327000Y-140208000D02*
X202311000Y-140208000D01*
X202311000Y-140208000D02*
X202311000Y-141732000D01*
X202311000Y-141732000D02*
X203327000Y-141732000D01*
X204343000Y-141732000D02*
X205359000Y-141732000D01*
X205359000Y-141732000D02*
X205359000Y-140208000D01*
X205359000Y-140208000D02*
X204343000Y-140208000D01*
X201295000Y-153416000D02*
G75*
G03X201295000Y-153416000I-127000J0D01*
G74*
G01*
X201168000Y-152273000D02*
X201168000Y-153289000D01*
X201168000Y-153289000D02*
X202692000Y-153289000D01*
X202692000Y-153289000D02*
X202692000Y-152273000D01*
X202692000Y-151257000D02*
X202692000Y-150241000D01*
X202692000Y-150241000D02*
X201168000Y-150241000D01*
X201168000Y-150241000D02*
X201168000Y-151257000D01*
X215646000Y-141478000D02*
G75*
G03X215646000Y-141478000I-127000J0D01*
G74*
G01*
X216662000Y-141478000D02*
X215646000Y-141478000D01*
X215646000Y-141478000D02*
X215646000Y-143002000D01*
X215646000Y-143002000D02*
X216662000Y-143002000D01*
X217678000Y-143002000D02*
X218694000Y-143002000D01*
X218694000Y-143002000D02*
X218694000Y-141478000D01*
X218694000Y-141478000D02*
X217678000Y-141478000D01*
D12*
X192901207Y-142156604D02*
X192925035Y-142132776D01*
X192948862Y-142061293D01*
X192948862Y-142013638D01*
X192925035Y-141942155D01*
X192877380Y-141894500D01*
X192829724Y-141870672D01*
X192734414Y-141846844D01*
X192662931Y-141846844D01*
X192567620Y-141870672D01*
X192519965Y-141894500D01*
X192472310Y-141942155D01*
X192448482Y-142013638D01*
X192448482Y-142061293D01*
X192472310Y-142132776D01*
X192496138Y-142156604D01*
X192496138Y-142347224D02*
X192472310Y-142371052D01*
X192448482Y-142418707D01*
X192448482Y-142537845D01*
X192472310Y-142585501D01*
X192496138Y-142609328D01*
X192543793Y-142633156D01*
X192591448Y-142633156D01*
X192662931Y-142609328D01*
X192948862Y-142323397D01*
X192948862Y-142633156D01*
X193647362Y-141703879D02*
X193647362Y-141417947D01*
X193647362Y-141560913D02*
X193146982Y-141560913D01*
X193218465Y-141513258D01*
X193266120Y-141465603D01*
X193289948Y-141417947D01*
X193146982Y-142013638D02*
X193146982Y-142061293D01*
X193170810Y-142108948D01*
X193194638Y-142132776D01*
X193242293Y-142156603D01*
X193337603Y-142180431D01*
X193456741Y-142180431D01*
X193552052Y-142156603D01*
X193599707Y-142132776D01*
X193623535Y-142108948D01*
X193647362Y-142061293D01*
X193647362Y-142013638D01*
X193623535Y-141965982D01*
X193599707Y-141942155D01*
X193552052Y-141918327D01*
X193456741Y-141894499D01*
X193337603Y-141894499D01*
X193242293Y-141918327D01*
X193194638Y-141942155D01*
X193170810Y-141965982D01*
X193146982Y-142013638D01*
X193313776Y-142394879D02*
X193814156Y-142394879D01*
X193337603Y-142394879D02*
X193313776Y-142442534D01*
X193313776Y-142537845D01*
X193337603Y-142585500D01*
X193361431Y-142609328D01*
X193409086Y-142633155D01*
X193552052Y-142633155D01*
X193599707Y-142609328D01*
X193623535Y-142585500D01*
X193647362Y-142537845D01*
X193647362Y-142442534D01*
X193623535Y-142394879D01*
X193385259Y-143014397D02*
X193385259Y-142847604D01*
X193647362Y-142847604D02*
X193146982Y-142847604D01*
X193146982Y-143085880D01*
X197981207Y-142156604D02*
X198005035Y-142132776D01*
X198028862Y-142061293D01*
X198028862Y-142013638D01*
X198005035Y-141942155D01*
X197957380Y-141894500D01*
X197909724Y-141870672D01*
X197814414Y-141846844D01*
X197742931Y-141846844D01*
X197647620Y-141870672D01*
X197599965Y-141894500D01*
X197552310Y-141942155D01*
X197528482Y-142013638D01*
X197528482Y-142061293D01*
X197552310Y-142132776D01*
X197576138Y-142156604D01*
X197528482Y-142323397D02*
X197528482Y-142633156D01*
X197719103Y-142466363D01*
X197719103Y-142537845D01*
X197742931Y-142585501D01*
X197766759Y-142609328D01*
X197814414Y-142633156D01*
X197933552Y-142633156D01*
X197981207Y-142609328D01*
X198005035Y-142585501D01*
X198028862Y-142537845D01*
X198028862Y-142394880D01*
X198005035Y-142347224D01*
X197981207Y-142323397D01*
X198727362Y-141703879D02*
X198727362Y-141417947D01*
X198727362Y-141560913D02*
X198226982Y-141560913D01*
X198298465Y-141513258D01*
X198346120Y-141465603D01*
X198369948Y-141417947D01*
X198226982Y-142013638D02*
X198226982Y-142061293D01*
X198250810Y-142108948D01*
X198274638Y-142132776D01*
X198322293Y-142156603D01*
X198417603Y-142180431D01*
X198536741Y-142180431D01*
X198632052Y-142156603D01*
X198679707Y-142132776D01*
X198703535Y-142108948D01*
X198727362Y-142061293D01*
X198727362Y-142013638D01*
X198703535Y-141965982D01*
X198679707Y-141942155D01*
X198632052Y-141918327D01*
X198536741Y-141894499D01*
X198417603Y-141894499D01*
X198322293Y-141918327D01*
X198274638Y-141942155D01*
X198250810Y-141965982D01*
X198226982Y-142013638D01*
X198393776Y-142394879D02*
X198894156Y-142394879D01*
X198417603Y-142394879D02*
X198393776Y-142442534D01*
X198393776Y-142537845D01*
X198417603Y-142585500D01*
X198441431Y-142609328D01*
X198489086Y-142633155D01*
X198632052Y-142633155D01*
X198679707Y-142609328D01*
X198703535Y-142585500D01*
X198727362Y-142537845D01*
X198727362Y-142442534D01*
X198703535Y-142394879D01*
X198465259Y-143014397D02*
X198465259Y-142847604D01*
X198727362Y-142847604D02*
X198226982Y-142847604D01*
X198226982Y-143085880D01*
X192901207Y-152316604D02*
X192925035Y-152292776D01*
X192948862Y-152221293D01*
X192948862Y-152173638D01*
X192925035Y-152102155D01*
X192877380Y-152054500D01*
X192829724Y-152030672D01*
X192734414Y-152006844D01*
X192662931Y-152006844D01*
X192567620Y-152030672D01*
X192519965Y-152054500D01*
X192472310Y-152102155D01*
X192448482Y-152173638D01*
X192448482Y-152221293D01*
X192472310Y-152292776D01*
X192496138Y-152316604D01*
X192615276Y-152745501D02*
X192948862Y-152745501D01*
X192424655Y-152626363D02*
X192782069Y-152507224D01*
X192782069Y-152816984D01*
X193194638Y-151577947D02*
X193170810Y-151601775D01*
X193146982Y-151649430D01*
X193146982Y-151768568D01*
X193170810Y-151816224D01*
X193194638Y-151840051D01*
X193242293Y-151863879D01*
X193289948Y-151863879D01*
X193361431Y-151840051D01*
X193647362Y-151554120D01*
X193647362Y-151863879D01*
X193146982Y-152173638D02*
X193146982Y-152221293D01*
X193170810Y-152268948D01*
X193194638Y-152292776D01*
X193242293Y-152316603D01*
X193337603Y-152340431D01*
X193456741Y-152340431D01*
X193552052Y-152316603D01*
X193599707Y-152292776D01*
X193623535Y-152268948D01*
X193647362Y-152221293D01*
X193647362Y-152173638D01*
X193623535Y-152125982D01*
X193599707Y-152102155D01*
X193552052Y-152078327D01*
X193456741Y-152054499D01*
X193337603Y-152054499D01*
X193242293Y-152078327D01*
X193194638Y-152102155D01*
X193170810Y-152125982D01*
X193146982Y-152173638D01*
X193313776Y-152554879D02*
X193814156Y-152554879D01*
X193337603Y-152554879D02*
X193313776Y-152602534D01*
X193313776Y-152697845D01*
X193337603Y-152745500D01*
X193361431Y-152769328D01*
X193409086Y-152793155D01*
X193552052Y-152793155D01*
X193599707Y-152769328D01*
X193623535Y-152745500D01*
X193647362Y-152697845D01*
X193647362Y-152602534D01*
X193623535Y-152554879D01*
X193385259Y-153174397D02*
X193385259Y-153007604D01*
X193647362Y-153007604D02*
X193146982Y-153007604D01*
X193146982Y-153245880D01*
X197981207Y-152316604D02*
X198005035Y-152292776D01*
X198028862Y-152221293D01*
X198028862Y-152173638D01*
X198005035Y-152102155D01*
X197957380Y-152054500D01*
X197909724Y-152030672D01*
X197814414Y-152006844D01*
X197742931Y-152006844D01*
X197647620Y-152030672D01*
X197599965Y-152054500D01*
X197552310Y-152102155D01*
X197528482Y-152173638D01*
X197528482Y-152221293D01*
X197552310Y-152292776D01*
X197576138Y-152316604D01*
X197528482Y-152769328D02*
X197528482Y-152531052D01*
X197766759Y-152507224D01*
X197742931Y-152531052D01*
X197719103Y-152578707D01*
X197719103Y-152697845D01*
X197742931Y-152745501D01*
X197766759Y-152769328D01*
X197814414Y-152793156D01*
X197933552Y-152793156D01*
X197981207Y-152769328D01*
X198005035Y-152745501D01*
X198028862Y-152697845D01*
X198028862Y-152578707D01*
X198005035Y-152531052D01*
X197981207Y-152507224D01*
X198274638Y-151577947D02*
X198250810Y-151601775D01*
X198226982Y-151649430D01*
X198226982Y-151768568D01*
X198250810Y-151816224D01*
X198274638Y-151840051D01*
X198322293Y-151863879D01*
X198369948Y-151863879D01*
X198441431Y-151840051D01*
X198727362Y-151554120D01*
X198727362Y-151863879D01*
X198226982Y-152173638D02*
X198226982Y-152221293D01*
X198250810Y-152268948D01*
X198274638Y-152292776D01*
X198322293Y-152316603D01*
X198417603Y-152340431D01*
X198536741Y-152340431D01*
X198632052Y-152316603D01*
X198679707Y-152292776D01*
X198703535Y-152268948D01*
X198727362Y-152221293D01*
X198727362Y-152173638D01*
X198703535Y-152125982D01*
X198679707Y-152102155D01*
X198632052Y-152078327D01*
X198536741Y-152054499D01*
X198417603Y-152054499D01*
X198322293Y-152078327D01*
X198274638Y-152102155D01*
X198250810Y-152125982D01*
X198226982Y-152173638D01*
X198393776Y-152554879D02*
X198894156Y-152554879D01*
X198417603Y-152554879D02*
X198393776Y-152602534D01*
X198393776Y-152697845D01*
X198417603Y-152745500D01*
X198441431Y-152769328D01*
X198489086Y-152793155D01*
X198632052Y-152793155D01*
X198679707Y-152769328D01*
X198703535Y-152745500D01*
X198727362Y-152697845D01*
X198727362Y-152602534D01*
X198703535Y-152554879D01*
X198465259Y-153174397D02*
X198465259Y-153007604D01*
X198727362Y-153007604D02*
X198226982Y-153007604D01*
X198226982Y-153245880D01*
X217742407Y-152011804D02*
X217766235Y-151987976D01*
X217790062Y-151916493D01*
X217790062Y-151868838D01*
X217766235Y-151797355D01*
X217718580Y-151749700D01*
X217670924Y-151725872D01*
X217575614Y-151702044D01*
X217504131Y-151702044D01*
X217408820Y-151725872D01*
X217361165Y-151749700D01*
X217313510Y-151797355D01*
X217289682Y-151868838D01*
X217289682Y-151916493D01*
X217313510Y-151987976D01*
X217337338Y-152011804D01*
X217504131Y-152297735D02*
X217480303Y-152250080D01*
X217456476Y-152226252D01*
X217408820Y-152202424D01*
X217384993Y-152202424D01*
X217337338Y-152226252D01*
X217313510Y-152250080D01*
X217289682Y-152297735D01*
X217289682Y-152393045D01*
X217313510Y-152440701D01*
X217337338Y-152464528D01*
X217384993Y-152488356D01*
X217408820Y-152488356D01*
X217456476Y-152464528D01*
X217480303Y-152440701D01*
X217504131Y-152393045D01*
X217504131Y-152297735D01*
X217527959Y-152250080D01*
X217551786Y-152226252D01*
X217599441Y-152202424D01*
X217694752Y-152202424D01*
X217742407Y-152226252D01*
X217766235Y-152250080D01*
X217790062Y-152297735D01*
X217790062Y-152393045D01*
X217766235Y-152440701D01*
X217742407Y-152464528D01*
X217694752Y-152488356D01*
X217599441Y-152488356D01*
X217551786Y-152464528D01*
X217527959Y-152440701D01*
X217504131Y-152393045D01*
X217091562Y-151320803D02*
X217091562Y-151034871D01*
X217091562Y-151177837D02*
X216591182Y-151177837D01*
X216662665Y-151130182D01*
X216710320Y-151082527D01*
X216734148Y-151034871D01*
X216591182Y-151630562D02*
X216591182Y-151678217D01*
X216615010Y-151725872D01*
X216638838Y-151749700D01*
X216686493Y-151773527D01*
X216781803Y-151797355D01*
X216900941Y-151797355D01*
X216996252Y-151773527D01*
X217043907Y-151749700D01*
X217067735Y-151725872D01*
X217091562Y-151678217D01*
X217091562Y-151630562D01*
X217067735Y-151582906D01*
X217043907Y-151559079D01*
X216996252Y-151535251D01*
X216900941Y-151511423D01*
X216781803Y-151511423D01*
X216686493Y-151535251D01*
X216638838Y-151559079D01*
X216615010Y-151582906D01*
X216591182Y-151630562D01*
X216591182Y-152107114D02*
X216591182Y-152154769D01*
X216615010Y-152202424D01*
X216638838Y-152226252D01*
X216686493Y-152250079D01*
X216781803Y-152273907D01*
X216900941Y-152273907D01*
X216996252Y-152250079D01*
X217043907Y-152226252D01*
X217067735Y-152202424D01*
X217091562Y-152154769D01*
X217091562Y-152107114D01*
X217067735Y-152059458D01*
X217043907Y-152035631D01*
X216996252Y-152011803D01*
X216900941Y-151987975D01*
X216781803Y-151987975D01*
X216686493Y-152011803D01*
X216638838Y-152035631D01*
X216615010Y-152059458D01*
X216591182Y-152107114D01*
X216757976Y-152488355D02*
X217091562Y-152488355D01*
X216805631Y-152488355D02*
X216781803Y-152512183D01*
X216757976Y-152559838D01*
X216757976Y-152631321D01*
X216781803Y-152678976D01*
X216829459Y-152702804D01*
X217091562Y-152702804D01*
X216829459Y-153107873D02*
X216829459Y-152941080D01*
X217091562Y-152941080D02*
X216591182Y-152941080D01*
X216591182Y-153179356D01*
X229070807Y-157447404D02*
X229094635Y-157423576D01*
X229118462Y-157352093D01*
X229118462Y-157304438D01*
X229094635Y-157232955D01*
X229046980Y-157185300D01*
X228999324Y-157161472D01*
X228904014Y-157137644D01*
X228832531Y-157137644D01*
X228737220Y-157161472D01*
X228689565Y-157185300D01*
X228641910Y-157232955D01*
X228618082Y-157304438D01*
X228618082Y-157352093D01*
X228641910Y-157423576D01*
X228665738Y-157447404D01*
X229118462Y-157685680D02*
X229118462Y-157780990D01*
X229094635Y-157828645D01*
X229070807Y-157852473D01*
X228999324Y-157900128D01*
X228904014Y-157923956D01*
X228713393Y-157923956D01*
X228665738Y-157900128D01*
X228641910Y-157876301D01*
X228618082Y-157828645D01*
X228618082Y-157733335D01*
X228641910Y-157685680D01*
X228665738Y-157661852D01*
X228713393Y-157638024D01*
X228832531Y-157638024D01*
X228880186Y-157661852D01*
X228904014Y-157685680D01*
X228927841Y-157733335D01*
X228927841Y-157828645D01*
X228904014Y-157876301D01*
X228880186Y-157900128D01*
X228832531Y-157923956D01*
X228419962Y-156756403D02*
X228419962Y-156470471D01*
X228419962Y-156613437D02*
X227919582Y-156613437D01*
X227991065Y-156565782D01*
X228038720Y-156518127D01*
X228062548Y-156470471D01*
X227919582Y-157066162D02*
X227919582Y-157113817D01*
X227943410Y-157161472D01*
X227967238Y-157185300D01*
X228014893Y-157209127D01*
X228110203Y-157232955D01*
X228229341Y-157232955D01*
X228324652Y-157209127D01*
X228372307Y-157185300D01*
X228396135Y-157161472D01*
X228419962Y-157113817D01*
X228419962Y-157066162D01*
X228396135Y-157018506D01*
X228372307Y-156994679D01*
X228324652Y-156970851D01*
X228229341Y-156947023D01*
X228110203Y-156947023D01*
X228014893Y-156970851D01*
X227967238Y-156994679D01*
X227943410Y-157018506D01*
X227919582Y-157066162D01*
X227919582Y-157542714D02*
X227919582Y-157590369D01*
X227943410Y-157638024D01*
X227967238Y-157661852D01*
X228014893Y-157685679D01*
X228110203Y-157709507D01*
X228229341Y-157709507D01*
X228324652Y-157685679D01*
X228372307Y-157661852D01*
X228396135Y-157638024D01*
X228419962Y-157590369D01*
X228419962Y-157542714D01*
X228396135Y-157495058D01*
X228372307Y-157471231D01*
X228324652Y-157447403D01*
X228229341Y-157423575D01*
X228110203Y-157423575D01*
X228014893Y-157447403D01*
X227967238Y-157471231D01*
X227943410Y-157495058D01*
X227919582Y-157542714D01*
X228086376Y-157923955D02*
X228419962Y-157923955D01*
X228134031Y-157923955D02*
X228110203Y-157947783D01*
X228086376Y-157995438D01*
X228086376Y-158066921D01*
X228110203Y-158114576D01*
X228157859Y-158138404D01*
X228419962Y-158138404D01*
X228157859Y-158543473D02*
X228157859Y-158376680D01*
X228419962Y-158376680D02*
X227919582Y-158376680D01*
X227919582Y-158614956D01*
X204156672Y-141466207D02*
X204180500Y-141490035D01*
X204251983Y-141513862D01*
X204299638Y-141513862D01*
X204371121Y-141490035D01*
X204418776Y-141442380D01*
X204442604Y-141394724D01*
X204466432Y-141299414D01*
X204466432Y-141227931D01*
X204442604Y-141132620D01*
X204418776Y-141084965D01*
X204371121Y-141037310D01*
X204299638Y-141013482D01*
X204251983Y-141013482D01*
X204180500Y-141037310D01*
X204156672Y-141061138D01*
X203680120Y-141513862D02*
X203966052Y-141513862D01*
X203823086Y-141513862D02*
X203823086Y-141013482D01*
X203870741Y-141084965D01*
X203918396Y-141132620D01*
X203966052Y-141156448D01*
X203370361Y-141013482D02*
X203322706Y-141013482D01*
X203275051Y-141037310D01*
X203251223Y-141061138D01*
X203227396Y-141108793D01*
X203203568Y-141204103D01*
X203203568Y-141323241D01*
X203227396Y-141418552D01*
X203251223Y-141466207D01*
X203275051Y-141490035D01*
X203322706Y-141513862D01*
X203370361Y-141513862D01*
X203418017Y-141490035D01*
X203441844Y-141466207D01*
X203465672Y-141418552D01*
X203489500Y-141323241D01*
X203489500Y-141204103D01*
X203465672Y-141108793D01*
X203441844Y-141061138D01*
X203418017Y-141037310D01*
X203370361Y-141013482D01*
X204609397Y-140815362D02*
X204895329Y-140815362D01*
X204752363Y-140815362D02*
X204752363Y-140314982D01*
X204800018Y-140386465D01*
X204847673Y-140434120D01*
X204895329Y-140457948D01*
X204299638Y-140314982D02*
X204251983Y-140314982D01*
X204204328Y-140338810D01*
X204180500Y-140362638D01*
X204156673Y-140410293D01*
X204132845Y-140505603D01*
X204132845Y-140624741D01*
X204156673Y-140720052D01*
X204180500Y-140767707D01*
X204204328Y-140791535D01*
X204251983Y-140815362D01*
X204299638Y-140815362D01*
X204347294Y-140791535D01*
X204371121Y-140767707D01*
X204394949Y-140720052D01*
X204418777Y-140624741D01*
X204418777Y-140505603D01*
X204394949Y-140410293D01*
X204371121Y-140362638D01*
X204347294Y-140338810D01*
X204299638Y-140314982D01*
X203823086Y-140314982D02*
X203775431Y-140314982D01*
X203727776Y-140338810D01*
X203703948Y-140362638D01*
X203680121Y-140410293D01*
X203656293Y-140505603D01*
X203656293Y-140624741D01*
X203680121Y-140720052D01*
X203703948Y-140767707D01*
X203727776Y-140791535D01*
X203775431Y-140815362D01*
X203823086Y-140815362D01*
X203870742Y-140791535D01*
X203894569Y-140767707D01*
X203918397Y-140720052D01*
X203942225Y-140624741D01*
X203942225Y-140505603D01*
X203918397Y-140410293D01*
X203894569Y-140362638D01*
X203870742Y-140338810D01*
X203823086Y-140314982D01*
X203441845Y-140481776D02*
X203441845Y-140815362D01*
X203441845Y-140529431D02*
X203418017Y-140505603D01*
X203370362Y-140481776D01*
X203298879Y-140481776D01*
X203251224Y-140505603D01*
X203227396Y-140553259D01*
X203227396Y-140815362D01*
X202822327Y-140553259D02*
X202989120Y-140553259D01*
X202989120Y-140815362D02*
X202989120Y-140314982D01*
X202750844Y-140314982D01*
X201791207Y-151443328D02*
X201815035Y-151419500D01*
X201838862Y-151348017D01*
X201838862Y-151300362D01*
X201815035Y-151228879D01*
X201767380Y-151181224D01*
X201719724Y-151157396D01*
X201624414Y-151133568D01*
X201552931Y-151133568D01*
X201457620Y-151157396D01*
X201409965Y-151181224D01*
X201362310Y-151228879D01*
X201338482Y-151300362D01*
X201338482Y-151348017D01*
X201362310Y-151419500D01*
X201386138Y-151443328D01*
X201838862Y-151919880D02*
X201838862Y-151633948D01*
X201838862Y-151776914D02*
X201338482Y-151776914D01*
X201409965Y-151729259D01*
X201457620Y-151681604D01*
X201481448Y-151633948D01*
X201838862Y-152396432D02*
X201838862Y-152110500D01*
X201838862Y-152253466D02*
X201338482Y-152253466D01*
X201409965Y-152205811D01*
X201457620Y-152158156D01*
X201481448Y-152110500D01*
X202537362Y-150990603D02*
X202537362Y-150704671D01*
X202537362Y-150847637D02*
X202036982Y-150847637D01*
X202108465Y-150799982D01*
X202156120Y-150752327D01*
X202179948Y-150704671D01*
X202036982Y-151300362D02*
X202036982Y-151348017D01*
X202060810Y-151395672D01*
X202084638Y-151419500D01*
X202132293Y-151443327D01*
X202227603Y-151467155D01*
X202346741Y-151467155D01*
X202442052Y-151443327D01*
X202489707Y-151419500D01*
X202513535Y-151395672D01*
X202537362Y-151348017D01*
X202537362Y-151300362D01*
X202513535Y-151252706D01*
X202489707Y-151228879D01*
X202442052Y-151205051D01*
X202346741Y-151181223D01*
X202227603Y-151181223D01*
X202132293Y-151205051D01*
X202084638Y-151228879D01*
X202060810Y-151252706D01*
X202036982Y-151300362D01*
X202036982Y-151776914D02*
X202036982Y-151824569D01*
X202060810Y-151872224D01*
X202084638Y-151896052D01*
X202132293Y-151919879D01*
X202227603Y-151943707D01*
X202346741Y-151943707D01*
X202442052Y-151919879D01*
X202489707Y-151896052D01*
X202513535Y-151872224D01*
X202537362Y-151824569D01*
X202537362Y-151776914D01*
X202513535Y-151729258D01*
X202489707Y-151705431D01*
X202442052Y-151681603D01*
X202346741Y-151657775D01*
X202227603Y-151657775D01*
X202132293Y-151681603D01*
X202084638Y-151705431D01*
X202060810Y-151729258D01*
X202036982Y-151776914D01*
X202203776Y-152158155D02*
X202537362Y-152158155D01*
X202251431Y-152158155D02*
X202227603Y-152181983D01*
X202203776Y-152229638D01*
X202203776Y-152301121D01*
X202227603Y-152348776D01*
X202275259Y-152372604D01*
X202537362Y-152372604D01*
X202275259Y-152777673D02*
X202275259Y-152610880D01*
X202537362Y-152610880D02*
X202036982Y-152610880D01*
X202036982Y-152849156D01*
X217491672Y-142736207D02*
X217515500Y-142760035D01*
X217586983Y-142783862D01*
X217634638Y-142783862D01*
X217706121Y-142760035D01*
X217753776Y-142712380D01*
X217777604Y-142664724D01*
X217801432Y-142569414D01*
X217801432Y-142497931D01*
X217777604Y-142402620D01*
X217753776Y-142354965D01*
X217706121Y-142307310D01*
X217634638Y-142283482D01*
X217586983Y-142283482D01*
X217515500Y-142307310D01*
X217491672Y-142331138D01*
X217015120Y-142783862D02*
X217301052Y-142783862D01*
X217158086Y-142783862D02*
X217158086Y-142283482D01*
X217205741Y-142354965D01*
X217253396Y-142402620D01*
X217301052Y-142426448D01*
X216824500Y-142331138D02*
X216800672Y-142307310D01*
X216753017Y-142283482D01*
X216633879Y-142283482D01*
X216586223Y-142307310D01*
X216562396Y-142331138D01*
X216538568Y-142378793D01*
X216538568Y-142426448D01*
X216562396Y-142497931D01*
X216848327Y-142783862D01*
X216538568Y-142783862D01*
X217944397Y-142085362D02*
X218230329Y-142085362D01*
X218087363Y-142085362D02*
X218087363Y-141584982D01*
X218135018Y-141656465D01*
X218182673Y-141704120D01*
X218230329Y-141727948D01*
X217634638Y-141584982D02*
X217586983Y-141584982D01*
X217539328Y-141608810D01*
X217515500Y-141632638D01*
X217491673Y-141680293D01*
X217467845Y-141775603D01*
X217467845Y-141894741D01*
X217491673Y-141990052D01*
X217515500Y-142037707D01*
X217539328Y-142061535D01*
X217586983Y-142085362D01*
X217634638Y-142085362D01*
X217682294Y-142061535D01*
X217706121Y-142037707D01*
X217729949Y-141990052D01*
X217753777Y-141894741D01*
X217753777Y-141775603D01*
X217729949Y-141680293D01*
X217706121Y-141632638D01*
X217682294Y-141608810D01*
X217634638Y-141584982D01*
X217158086Y-141584982D02*
X217110431Y-141584982D01*
X217062776Y-141608810D01*
X217038948Y-141632638D01*
X217015121Y-141680293D01*
X216991293Y-141775603D01*
X216991293Y-141894741D01*
X217015121Y-141990052D01*
X217038948Y-142037707D01*
X217062776Y-142061535D01*
X217110431Y-142085362D01*
X217158086Y-142085362D01*
X217205742Y-142061535D01*
X217229569Y-142037707D01*
X217253397Y-141990052D01*
X217277225Y-141894741D01*
X217277225Y-141775603D01*
X217253397Y-141680293D01*
X217229569Y-141632638D01*
X217205742Y-141608810D01*
X217158086Y-141584982D01*
X216776845Y-141751776D02*
X216776845Y-142085362D01*
X216776845Y-141799431D02*
X216753017Y-141775603D01*
X216705362Y-141751776D01*
X216633879Y-141751776D01*
X216586224Y-141775603D01*
X216562396Y-141823259D01*
X216562396Y-142085362D01*
X216157327Y-141823259D02*
X216324120Y-141823259D01*
X216324120Y-142085362D02*
X216324120Y-141584982D01*
X216085844Y-141584982D01*
M02*
