%FSLAX46Y46*%
G04 Gerber Fmt 4.6, Leading zero omitted, Abs format (unit mm)*
G04 Created by KiCad (PCBNEW (20140926 BZR5148)-product) date Sat 01 Nov 2014 11:29:57 PM CDT*
%MOMM*%
G01*
G04 APERTURE LIST*
%ADD10C,0.150000*%
%ADD11R,0.250000X1.000000*%
%ADD12R,1.000000X0.250000*%
%ADD13R,0.889000X1.397000*%
%ADD14R,2.032000X1.727200*%
%ADD15O,2.032000X1.727200*%
%ADD16R,1.727200X2.032000*%
%ADD17O,1.727200X2.032000*%
%ADD18C,1.397000*%
%ADD19C,1.422400*%
G04 APERTURE END LIST*
D10*
D11*
X205800000Y-153020000D03*
X206300000Y-153020000D03*
X206800000Y-153020000D03*
X207300000Y-153020000D03*
X207800000Y-153020000D03*
X208300000Y-153020000D03*
X208800000Y-153020000D03*
X209300000Y-153020000D03*
X209800000Y-153020000D03*
X210300000Y-153020000D03*
X210800000Y-153020000D03*
X211300000Y-153020000D03*
X211800000Y-153020000D03*
X212300000Y-153020000D03*
X212800000Y-153020000D03*
X213300000Y-153020000D03*
D12*
X215250000Y-151070000D03*
X215250000Y-150570000D03*
X215250000Y-150070000D03*
X215250000Y-149570000D03*
X215250000Y-149070000D03*
X215250000Y-148570000D03*
X215250000Y-148070000D03*
X215250000Y-147570000D03*
X215250000Y-147070000D03*
X215250000Y-146570000D03*
X215250000Y-146070000D03*
X215250000Y-145570000D03*
X215250000Y-145070000D03*
X215250000Y-144570000D03*
X215250000Y-144070000D03*
X215250000Y-143570000D03*
D11*
X213300000Y-141620000D03*
X212800000Y-141620000D03*
X212300000Y-141620000D03*
X211800000Y-141620000D03*
X211300000Y-141620000D03*
X210800000Y-141620000D03*
X210300000Y-141620000D03*
X209800000Y-141620000D03*
X209300000Y-141620000D03*
X208800000Y-141620000D03*
X208300000Y-141620000D03*
X207800000Y-141620000D03*
X207300000Y-141620000D03*
X206800000Y-141620000D03*
X206300000Y-141620000D03*
X205800000Y-141620000D03*
D12*
X203850000Y-143570000D03*
X203850000Y-144070000D03*
X203850000Y-144570000D03*
X203850000Y-145070000D03*
X203850000Y-145570000D03*
X203850000Y-146070000D03*
X203850000Y-146570000D03*
X203850000Y-147070000D03*
X203850000Y-147570000D03*
X203850000Y-148070000D03*
X203850000Y-148570000D03*
X203850000Y-149070000D03*
X203850000Y-149570000D03*
X203850000Y-150070000D03*
X203850000Y-150570000D03*
X203850000Y-151070000D03*
D13*
X219849700Y-144576800D03*
X217944700Y-144576800D03*
D14*
X223520000Y-151130000D03*
D15*
X223520000Y-148590000D03*
X223520000Y-146050000D03*
X223520000Y-143510000D03*
X223520000Y-140970000D03*
X223520000Y-138430000D03*
D14*
X227330000Y-151130000D03*
D15*
X227330000Y-148590000D03*
X227330000Y-146050000D03*
X227330000Y-143510000D03*
X227330000Y-140970000D03*
X227330000Y-138430000D03*
D16*
X191770000Y-157480000D03*
D17*
X194310000Y-157480000D03*
X196850000Y-157480000D03*
X199390000Y-157480000D03*
D16*
X190500000Y-168910000D03*
D17*
X193040000Y-168910000D03*
X195580000Y-168910000D03*
X198120000Y-168910000D03*
X200660000Y-168910000D03*
X203200000Y-168910000D03*
X205740000Y-168910000D03*
X208280000Y-168910000D03*
X210820000Y-168910000D03*
X213360000Y-168910000D03*
X215900000Y-168910000D03*
X218440000Y-168910000D03*
X220980000Y-168910000D03*
X223520000Y-168910000D03*
X226060000Y-168910000D03*
X228600000Y-168910000D03*
D16*
X190500000Y-165100000D03*
D17*
X193040000Y-165100000D03*
X195580000Y-165100000D03*
X198120000Y-165100000D03*
X200660000Y-165100000D03*
X203200000Y-165100000D03*
X205740000Y-165100000D03*
X208280000Y-165100000D03*
X210820000Y-165100000D03*
X213360000Y-165100000D03*
X215900000Y-165100000D03*
X218440000Y-165100000D03*
X220980000Y-165100000D03*
X223520000Y-165100000D03*
X226060000Y-165100000D03*
X228600000Y-165100000D03*
D16*
X228600000Y-133350000D03*
D17*
X226060000Y-133350000D03*
X223520000Y-133350000D03*
X220980000Y-133350000D03*
X218440000Y-133350000D03*
X215900000Y-133350000D03*
X213360000Y-133350000D03*
X210820000Y-133350000D03*
X208280000Y-133350000D03*
X205740000Y-133350000D03*
X203200000Y-133350000D03*
X200660000Y-133350000D03*
X198120000Y-133350000D03*
X195580000Y-133350000D03*
X193040000Y-133350000D03*
X190500000Y-133350000D03*
D16*
X228600000Y-129540000D03*
D17*
X226060000Y-129540000D03*
X223520000Y-129540000D03*
X220980000Y-129540000D03*
X218440000Y-129540000D03*
X215900000Y-129540000D03*
X213360000Y-129540000D03*
X210820000Y-129540000D03*
X208280000Y-129540000D03*
X205740000Y-129540000D03*
X203200000Y-129540000D03*
X200660000Y-129540000D03*
X198120000Y-129540000D03*
X195580000Y-129540000D03*
X193040000Y-129540000D03*
X190500000Y-129540000D03*
D18*
X228600000Y-154940000D03*
X228600000Y-160020000D03*
X220980000Y-154940000D03*
X220980000Y-160020000D03*
D19*
X193040000Y-139700000D03*
X198120000Y-139700000D03*
X193040000Y-149860000D03*
X198120000Y-149860000D03*
M02*
