%FSLAX46Y46*%
G04 Gerber Fmt 4.6, Leading zero omitted, Abs format (unit mm)*
G04 Created by KiCad (PCBNEW (20140926 BZR5148)-product) date Fri 30 Jan 2015 11:25:53 AM CST*
%MOMM*%
G01*
G04 APERTURE LIST*
%ADD10C,0.100000*%
%ADD11C,0.150000*%
G04 APERTURE END LIST*
D10*
D11*
X145550000Y-59475000D02*
X146550000Y-59475000D01*
X146550000Y-61175000D02*
X145550000Y-61175000D01*
X145550000Y-62650000D02*
X146550000Y-62650000D01*
X146550000Y-64350000D02*
X145550000Y-64350000D01*
X154440000Y-56935000D02*
X155440000Y-56935000D01*
X155440000Y-58635000D02*
X154440000Y-58635000D01*
X158965000Y-59825000D02*
X158965000Y-60825000D01*
X157265000Y-60825000D02*
X157265000Y-59825000D01*
X147535000Y-91575000D02*
X147535000Y-92575000D01*
X145835000Y-92575000D02*
X145835000Y-91575000D01*
X146550000Y-68795000D02*
X145550000Y-68795000D01*
X145550000Y-67095000D02*
X146550000Y-67095000D01*
X156345000Y-92495000D02*
X157345000Y-92495000D01*
X157345000Y-94195000D02*
X156345000Y-94195000D01*
X157265000Y-83685000D02*
X157265000Y-82685000D01*
X158965000Y-82685000D02*
X158965000Y-83685000D01*
X148455000Y-82765000D02*
X147455000Y-82765000D01*
X147455000Y-81065000D02*
X148455000Y-81065000D01*
X156710000Y-78320000D02*
X155710000Y-78320000D01*
X155710000Y-76620000D02*
X156710000Y-76620000D01*
X156710000Y-70065000D02*
X155710000Y-70065000D01*
X155710000Y-68365000D02*
X156710000Y-68365000D01*
X148717000Y-74930000D02*
X151003000Y-74930000D01*
X151003000Y-74930000D02*
X151003000Y-76581000D01*
X148717000Y-78359000D02*
X148717000Y-80010000D01*
X148717000Y-80010000D02*
X151003000Y-80010000D01*
X151003000Y-80010000D02*
X151003000Y-78359000D01*
X148717000Y-76581000D02*
X148717000Y-74930000D01*
X148640800Y-118183660D02*
X148640800Y-118752620D01*
X148640800Y-118752620D02*
X148229320Y-118752620D01*
X154254200Y-114226340D02*
X154254200Y-113657380D01*
X154254200Y-113657380D02*
X154665680Y-113657380D01*
X153275000Y-73625000D02*
X153275000Y-72425000D01*
X151525000Y-72425000D02*
X151525000Y-73625000D01*
X148985000Y-114970000D02*
X148985000Y-116170000D01*
X150735000Y-116170000D02*
X150735000Y-114970000D01*
X148047000Y-118505000D02*
X146847000Y-118505000D01*
X146847000Y-120255000D02*
X148047000Y-120255000D01*
X156302000Y-118505000D02*
X155102000Y-118505000D01*
X155102000Y-120255000D02*
X156302000Y-120255000D01*
X157240000Y-114970000D02*
X157240000Y-116170000D01*
X158990000Y-116170000D02*
X158990000Y-114970000D01*
X154435000Y-63205000D02*
G75*
G03X154435000Y-63205000I-100000J0D01*
G74*
G01*
X153910000Y-67005000D02*
X153610000Y-67005000D01*
X153610000Y-67005000D02*
X153610000Y-63805000D01*
X158510000Y-67005000D02*
X158810000Y-67005000D01*
X158810000Y-67005000D02*
X158810000Y-63805000D01*
X158810000Y-63805000D02*
X158510000Y-63805000D01*
X153190000Y-61710000D02*
G75*
G03X153190000Y-61710000I-100000J0D01*
G74*
G01*
X153790000Y-62560000D02*
X153340000Y-62560000D01*
X153790000Y-59360000D02*
X153340000Y-59360000D01*
X153340000Y-59360000D02*
X153340000Y-59810000D01*
X156540000Y-59810000D02*
X156540000Y-59360000D01*
X156540000Y-59360000D02*
X156090000Y-59360000D01*
X156090000Y-62560000D02*
X156540000Y-62560000D01*
X156540000Y-62560000D02*
X156540000Y-62110000D01*
X155335000Y-70525000D02*
G75*
G03X155335000Y-70525000I-100000J0D01*
G74*
G01*
X154110000Y-71625000D02*
X154110000Y-70925000D01*
X158310000Y-71625000D02*
X158310000Y-70925000D01*
X158310000Y-70925000D02*
X157610000Y-70925000D01*
X157610000Y-75125000D02*
X158310000Y-75125000D01*
X158310000Y-75125000D02*
X158310000Y-74425000D01*
X154110000Y-74425000D02*
X154110000Y-75125000D01*
X154110000Y-75125000D02*
X154810000Y-75125000D01*
M02*
