%FSLAX46Y46*%
G04 Gerber Fmt 4.6, Leading zero omitted, Abs format (unit mm)*
G04 Created by KiCad (PCBNEW (20140926 BZR5148)-product) date Fri 30 Jan 2015 01:27:10 AM CST*
%MOMM*%
G01*
G04 APERTURE LIST*
%ADD10C,0.100000*%
%ADD11R,2.032000X1.727200*%
%ADD12O,2.032000X1.727200*%
%ADD13R,1.500000X1.250000*%
%ADD14R,1.198880X1.198880*%
%ADD15R,0.889000X1.397000*%
%ADD16R,2.032000X2.032000*%
%ADD17O,2.032000X2.032000*%
%ADD18R,1.727200X2.032000*%
%ADD19O,1.727200X2.032000*%
%ADD20R,0.600000X1.550000*%
%ADD21R,1.300000X1.500000*%
%ADD22R,1.500000X1.300000*%
%ADD23C,1.397000*%
%ADD24R,1.500000X0.300000*%
%ADD25R,0.300000X1.500000*%
%ADD26R,10.668000X8.890000*%
%ADD27R,1.778000X2.286000*%
%ADD28C,3.500000*%
G04 APERTURE END LIST*
D10*
D11*
X160528000Y-77470000D03*
D12*
X160528000Y-74930000D03*
X160528000Y-72390000D03*
X160528000Y-69850000D03*
X160528000Y-67310000D03*
X160528000Y-64770000D03*
D13*
X161270000Y-95885000D03*
X158770000Y-95885000D03*
X146070000Y-60325000D03*
X148570000Y-60325000D03*
X163810000Y-62103000D03*
X161310000Y-62103000D03*
X161270000Y-60325000D03*
X158770000Y-60325000D03*
X143490000Y-60325000D03*
X140990000Y-60325000D03*
D14*
X150495000Y-107535980D03*
X150495000Y-109634020D03*
X147955000Y-107535980D03*
X147955000Y-109634020D03*
X145415000Y-107535980D03*
X145415000Y-109634020D03*
X142875000Y-107535980D03*
X142875000Y-109634020D03*
X151350980Y-49657000D03*
X153449020Y-49657000D03*
D15*
X145097500Y-77470000D03*
X147002500Y-77470000D03*
D16*
X151130000Y-45720000D03*
D17*
X153670000Y-45720000D03*
D16*
X161290000Y-116840000D03*
D17*
X161290000Y-114300000D03*
D18*
X143510000Y-122555000D03*
D19*
X146050000Y-122555000D03*
X148590000Y-122555000D03*
X151130000Y-122555000D03*
X153670000Y-122555000D03*
X156210000Y-122555000D03*
X158750000Y-122555000D03*
X161290000Y-122555000D03*
D20*
X149225000Y-112235000D03*
X147955000Y-112235000D03*
X146685000Y-112235000D03*
X145415000Y-112235000D03*
X145415000Y-117635000D03*
X146685000Y-117635000D03*
X147955000Y-117635000D03*
X149225000Y-117635000D03*
X157480000Y-112235000D03*
X156210000Y-112235000D03*
X154940000Y-112235000D03*
X153670000Y-112235000D03*
X153670000Y-117635000D03*
X154940000Y-117635000D03*
X156210000Y-117635000D03*
X157480000Y-117635000D03*
D21*
X150495000Y-102155000D03*
X150495000Y-104855000D03*
X147955000Y-102155000D03*
X147955000Y-104855000D03*
X145415000Y-102155000D03*
X145415000Y-104855000D03*
X142875000Y-102155000D03*
X142875000Y-104855000D03*
D22*
X149145000Y-77470000D03*
X151845000Y-77470000D03*
X151050000Y-48006000D03*
X153750000Y-48006000D03*
D23*
X161290000Y-102870000D03*
X161290000Y-107950000D03*
X153670000Y-102870000D03*
X153670000Y-107950000D03*
X149860000Y-68580000D03*
X149860000Y-73660000D03*
X142240000Y-68580000D03*
X142240000Y-73660000D03*
D24*
X146700000Y-83880000D03*
X146700000Y-84380000D03*
X146700000Y-84880000D03*
X146700000Y-85380000D03*
X146700000Y-85880000D03*
X146700000Y-86380000D03*
X146700000Y-86880000D03*
X146700000Y-87380000D03*
X146700000Y-87880000D03*
X146700000Y-88380000D03*
X146700000Y-88880000D03*
X146700000Y-89380000D03*
X146700000Y-89880000D03*
X146700000Y-90380000D03*
X146700000Y-90880000D03*
X146700000Y-91380000D03*
D25*
X148650000Y-93330000D03*
X149150000Y-93330000D03*
X149650000Y-93330000D03*
X150150000Y-93330000D03*
X150650000Y-93330000D03*
X151150000Y-93330000D03*
X151650000Y-93330000D03*
X152150000Y-93330000D03*
X152650000Y-93330000D03*
X153150000Y-93330000D03*
X153650000Y-93330000D03*
X154150000Y-93330000D03*
X154650000Y-93330000D03*
X155150000Y-93330000D03*
X155650000Y-93330000D03*
X156150000Y-93330000D03*
D24*
X158100000Y-91380000D03*
X158100000Y-90880000D03*
X158100000Y-90380000D03*
X158100000Y-89880000D03*
X158100000Y-89380000D03*
X158100000Y-88880000D03*
X158100000Y-88380000D03*
X158100000Y-87880000D03*
X158100000Y-87380000D03*
X158100000Y-86880000D03*
X158100000Y-86380000D03*
X158100000Y-85880000D03*
X158100000Y-85380000D03*
X158100000Y-84880000D03*
X158100000Y-84380000D03*
X158100000Y-83880000D03*
D25*
X156150000Y-81930000D03*
X155650000Y-81930000D03*
X155150000Y-81930000D03*
X154650000Y-81930000D03*
X154150000Y-81930000D03*
X153650000Y-81930000D03*
X153150000Y-81930000D03*
X152650000Y-81930000D03*
X152150000Y-81930000D03*
X151650000Y-81930000D03*
X151150000Y-81930000D03*
X150650000Y-81930000D03*
X150150000Y-81930000D03*
X149650000Y-81930000D03*
X149150000Y-81930000D03*
X148650000Y-81930000D03*
D26*
X143510000Y-48387000D03*
D27*
X143510000Y-57150000D03*
X140970000Y-57150000D03*
X146050000Y-57150000D03*
D26*
X161290000Y-48387000D03*
D27*
X161290000Y-57150000D03*
X158750000Y-57150000D03*
X163830000Y-57150000D03*
D11*
X140970000Y-82550000D03*
D12*
X140970000Y-85090000D03*
X140970000Y-87630000D03*
X140970000Y-90170000D03*
X140970000Y-92710000D03*
D11*
X163830000Y-82550000D03*
D12*
X163830000Y-85090000D03*
X163830000Y-87630000D03*
X163830000Y-90170000D03*
X163830000Y-92710000D03*
D18*
X143510000Y-99060000D03*
D19*
X146050000Y-99060000D03*
X148590000Y-99060000D03*
X151130000Y-99060000D03*
X153670000Y-99060000D03*
X156210000Y-99060000D03*
X158750000Y-99060000D03*
X161290000Y-99060000D03*
D28*
X152400000Y-53340000D03*
M02*
