M48
;DRILL file {kicad (20140926 BZR5148)-product} date Fri 30 Jan 2015 01:27:07 AM CST
;FORMAT={-:-/ absolute / inch / decimal}
FMAT,2
INCH,TZ
T1C0.013
T2C0.032
T3C0.040
T4C0.120
%
G90
G05
M72
T1
X5.62Y-3.79
X5.6481Y-3.2419
X5.6517Y-3.8027
X5.6531Y-3.7511
X5.6539Y-3.3348
X5.655Y-3.695
X5.6635Y-3.0379
X5.665Y-2.435
X5.665Y-2.58
X5.6652Y-3.4155
X5.6715Y-2.7458
X5.6878Y-3.1711
X5.707Y-3.4245
X5.7142Y-3.3341
X5.7142Y-3.2375
X5.725Y-4.5807
X5.7424Y-3.1039
X5.744Y-3.2765
X5.765Y-3.14
X5.8216Y-3.1224
X5.8257Y-3.6955
X5.8273Y-3.5092
X5.8303Y-3.3283
X5.8312Y-3.3639
X5.8441Y-3.6026
X5.845Y-2.94
X5.85Y-2.165
X5.8543Y-3.434
X5.8544Y-4.5
X5.8568Y-2.8249
X5.8694Y-3.7391
X5.8717Y-3.3109
X5.872Y-3.5831
X5.8724Y-3.2756
X5.9Y-3.56
X5.9011Y-3.5039
X5.9036Y-3.736
X5.9081Y-2.3749
X5.9102Y-3.3171
X5.9127Y-3.4326
X5.9187Y-3.2841
X5.924Y-3.0545
X5.9343Y-3.1662
X5.9397Y-3.7325
X5.9418Y-3.409
X5.945Y-4.755
X5.9594Y-3.275
X5.9652Y-3.5643
X5.9724Y-3.45
X5.9737Y-3.7298
X5.976Y-3.8119
X5.9804Y-3.365
X5.9866Y-3.1141
X5.9935Y-3.2752
X5.9972Y-2.9879
X6.0063Y-3.5684
X6.0075Y-3.1668
X6.01Y-2.6
X6.015Y-3.495
X6.0281Y-4.5112
X6.038Y-3.4236
X6.0455Y-4.5772
X6.046Y-3.3126
X6.05Y-3.48
X6.05Y-3.525
X6.05Y-3.575
X6.055Y-2.99
X6.0762Y-3.1074
X6.0775Y-3.625
X6.0793Y-2.4217
X6.08Y-2.6683
X6.0873Y-3.401
X6.0874Y-4.3079
X6.0978Y-2.9875
X6.105Y-4.755
X6.1063Y-3.7874
X6.1096Y-3.6108
X6.1142Y-2.8766
X6.1143Y-2.9107
X6.118Y-3.1159
X6.1213Y-2.39
X6.1213Y-3.5154
X6.1253Y-3.174
X6.13Y-2.665
X6.1371Y-2.8291
X6.1498Y-4.4732
X6.1508Y-3.3415
X6.16Y-3.4423
X6.165Y-2.5764
X6.1663Y-2.4562
X6.1696Y-3.4096
X6.1712Y-2.849
X6.1746Y-4.3687
X6.1749Y-3.3725
X6.1803Y-2.315
X6.1865Y-3.1722
X6.1991Y-2.5748
X6.2059Y-2.6803
X6.235Y-2.155
X6.2431Y-3.9643
X6.25Y-2.57
X6.2507Y-3.1762
X6.2688Y-2.9994
X6.2754Y-4.0891
X6.2782Y-4.3358
X6.2802Y-3.3211
X6.2814Y-3.2298
X6.2839Y-3.9481
X6.2864Y-3.9864
X6.2953Y-3.1203
X6.3076Y-4.0778
X6.3092Y-4.3216
X6.31Y-4.75
X6.3438Y-4.3041
X6.3546Y-3.6667
X6.378Y-2.8035
X6.4284Y-3.9833
X6.45Y-2.17
T2
X5.6Y-2.7
X5.6Y-2.9
X5.9Y-2.7
X5.9Y-2.9
X6.05Y-4.05
X6.05Y-4.25
X6.35Y-4.05
X6.35Y-4.25
T3
X5.55Y-3.25
X5.55Y-3.35
X5.55Y-3.45
X5.55Y-3.55
X5.55Y-3.65
X5.65Y-3.9
X5.65Y-4.825
X5.75Y-3.9
X5.75Y-4.825
X5.85Y-3.9
X5.85Y-4.825
X5.95Y-1.8
X5.95Y-3.9
X5.95Y-4.825
X6.05Y-1.8
X6.05Y-3.9
X6.05Y-4.825
X6.15Y-3.9
X6.15Y-4.825
X6.25Y-3.9
X6.25Y-4.825
X6.32Y-2.55
X6.32Y-2.65
X6.32Y-2.75
X6.32Y-2.85
X6.32Y-2.95
X6.32Y-3.05
X6.35Y-3.9
X6.35Y-4.5
X6.35Y-4.6
X6.35Y-4.825
X6.45Y-3.25
X6.45Y-3.35
X6.45Y-3.45
X6.45Y-3.55
X6.45Y-3.65
T4
X6.Y-2.1
T0
M30
