%FSLAX46Y46*%
G04 Gerber Fmt 4.6, Leading zero omitted, Abs format (unit mm)*
G04 Created by KiCad (PCBNEW (20140926 BZR5148)-product) date Fri 30 Jan 2015 01:27:10 AM CST*
%MOMM*%
G01*
G04 APERTURE LIST*
%ADD10C,0.100000*%
%ADD11C,0.300000*%
%ADD12C,0.150000*%
G04 APERTURE END LIST*
D10*
D11*
X163429143Y-114617428D02*
X163429143Y-113474571D01*
X163429143Y-117578000D02*
X163429143Y-116435143D01*
X164000571Y-117006572D02*
X162857714Y-117006572D01*
X153098572Y-44049143D02*
X154241429Y-44049143D01*
X150558572Y-44049143D02*
X151701429Y-44049143D01*
X151130000Y-44620571D02*
X151130000Y-43477714D01*
X164254571Y-74985143D02*
X162754571Y-74985143D01*
X162754571Y-74628000D01*
X162826000Y-74413715D01*
X162968857Y-74270857D01*
X163111714Y-74199429D01*
X163397429Y-74128000D01*
X163611714Y-74128000D01*
X163897429Y-74199429D01*
X164040286Y-74270857D01*
X164183143Y-74413715D01*
X164254571Y-74628000D01*
X164254571Y-74985143D01*
X163468857Y-73485143D02*
X163468857Y-72985143D01*
X164254571Y-72770857D02*
X164254571Y-73485143D01*
X162754571Y-73485143D01*
X162754571Y-72770857D01*
X163468857Y-71628000D02*
X163540286Y-71413714D01*
X163611714Y-71342286D01*
X163754571Y-71270857D01*
X163968857Y-71270857D01*
X164111714Y-71342286D01*
X164183143Y-71413714D01*
X164254571Y-71556572D01*
X164254571Y-72128000D01*
X162754571Y-72128000D01*
X162754571Y-71628000D01*
X162826000Y-71485143D01*
X162897429Y-71413714D01*
X163040286Y-71342286D01*
X163183143Y-71342286D01*
X163326000Y-71413714D01*
X163397429Y-71485143D01*
X163468857Y-71628000D01*
X163468857Y-72128000D01*
X162754571Y-70628000D02*
X163968857Y-70628000D01*
X164111714Y-70556572D01*
X164183143Y-70485143D01*
X164254571Y-70342286D01*
X164254571Y-70056572D01*
X164183143Y-69913714D01*
X164111714Y-69842286D01*
X163968857Y-69770857D01*
X162754571Y-69770857D01*
X162826000Y-68270857D02*
X162754571Y-68413714D01*
X162754571Y-68628000D01*
X162826000Y-68842285D01*
X162968857Y-68985143D01*
X163111714Y-69056571D01*
X163397429Y-69128000D01*
X163611714Y-69128000D01*
X163897429Y-69056571D01*
X164040286Y-68985143D01*
X164183143Y-68842285D01*
X164254571Y-68628000D01*
X164254571Y-68485143D01*
X164183143Y-68270857D01*
X164111714Y-68199428D01*
X163611714Y-68199428D01*
X163611714Y-68485143D01*
X139021429Y-68941429D02*
X139735714Y-68441429D01*
X139021429Y-68084286D02*
X140521429Y-68084286D01*
X140521429Y-68655714D01*
X140450000Y-68798572D01*
X140378571Y-68870000D01*
X140235714Y-68941429D01*
X140021429Y-68941429D01*
X139878571Y-68870000D01*
X139807143Y-68798572D01*
X139735714Y-68655714D01*
X139735714Y-68084286D01*
X139807143Y-69584286D02*
X139807143Y-70084286D01*
X139021429Y-70298572D02*
X139021429Y-69584286D01*
X140521429Y-69584286D01*
X140521429Y-70298572D01*
X139092857Y-70870000D02*
X139021429Y-71084286D01*
X139021429Y-71441429D01*
X139092857Y-71584286D01*
X139164286Y-71655715D01*
X139307143Y-71727143D01*
X139450000Y-71727143D01*
X139592857Y-71655715D01*
X139664286Y-71584286D01*
X139735714Y-71441429D01*
X139807143Y-71155715D01*
X139878571Y-71012857D01*
X139950000Y-70941429D01*
X140092857Y-70870000D01*
X140235714Y-70870000D01*
X140378571Y-70941429D01*
X140450000Y-71012857D01*
X140521429Y-71155715D01*
X140521429Y-71512857D01*
X140450000Y-71727143D01*
X139807143Y-72370000D02*
X139807143Y-72870000D01*
X139021429Y-73084286D02*
X139021429Y-72370000D01*
X140521429Y-72370000D01*
X140521429Y-73084286D01*
X140521429Y-73512857D02*
X140521429Y-74370000D01*
X139021429Y-73941429D02*
X140521429Y-73941429D01*
X147792857Y-130218571D02*
X147792857Y-128718571D01*
X149292857Y-128790000D02*
X149150000Y-128718571D01*
X148935714Y-128718571D01*
X148721429Y-128790000D01*
X148578571Y-128932857D01*
X148507143Y-129075714D01*
X148435714Y-129361429D01*
X148435714Y-129575714D01*
X148507143Y-129861429D01*
X148578571Y-130004286D01*
X148721429Y-130147143D01*
X148935714Y-130218571D01*
X149078571Y-130218571D01*
X149292857Y-130147143D01*
X149364286Y-130075714D01*
X149364286Y-129575714D01*
X149078571Y-129575714D01*
X150007143Y-130218571D02*
X150007143Y-128718571D01*
X150864286Y-130218571D01*
X150864286Y-128718571D01*
X151578572Y-130218571D02*
X151578572Y-128718571D01*
X152078572Y-128718571D02*
X152935715Y-128718571D01*
X152507144Y-130218571D02*
X152507144Y-128718571D01*
X153435715Y-129432857D02*
X153935715Y-129432857D01*
X154150001Y-130218571D02*
X153435715Y-130218571D01*
X153435715Y-128718571D01*
X154150001Y-128718571D01*
X155650001Y-130218571D02*
X155150001Y-129504286D01*
X154792858Y-130218571D02*
X154792858Y-128718571D01*
X155364286Y-128718571D01*
X155507144Y-128790000D01*
X155578572Y-128861429D01*
X155650001Y-129004286D01*
X155650001Y-129218571D01*
X155578572Y-129361429D01*
X155507144Y-129432857D01*
X155364286Y-129504286D01*
X154792858Y-129504286D01*
X156221429Y-130147143D02*
X156435715Y-130218571D01*
X156792858Y-130218571D01*
X156935715Y-130147143D01*
X157007144Y-130075714D01*
X157078572Y-129932857D01*
X157078572Y-129790000D01*
X157007144Y-129647143D01*
X156935715Y-129575714D01*
X156792858Y-129504286D01*
X156507144Y-129432857D01*
X156364286Y-129361429D01*
X156292858Y-129290000D01*
X156221429Y-129147143D01*
X156221429Y-129004286D01*
X156292858Y-128861429D01*
X156364286Y-128790000D01*
X156507144Y-128718571D01*
X156864286Y-128718571D01*
X157078572Y-128790000D01*
X139180000Y-86558572D02*
X139251429Y-86415715D01*
X139251429Y-86201429D01*
X139180000Y-85987144D01*
X139037143Y-85844286D01*
X138894286Y-85772858D01*
X138608571Y-85701429D01*
X138394286Y-85701429D01*
X138108571Y-85772858D01*
X137965714Y-85844286D01*
X137822857Y-85987144D01*
X137751429Y-86201429D01*
X137751429Y-86344286D01*
X137822857Y-86558572D01*
X137894286Y-86630001D01*
X138394286Y-86630001D01*
X138394286Y-86344286D01*
X137751429Y-87272858D02*
X139251429Y-87272858D01*
X139251429Y-87844286D01*
X139180000Y-87987144D01*
X139108571Y-88058572D01*
X138965714Y-88130001D01*
X138751429Y-88130001D01*
X138608571Y-88058572D01*
X138537143Y-87987144D01*
X138465714Y-87844286D01*
X138465714Y-87272858D01*
X137822857Y-88701429D02*
X137751429Y-88915715D01*
X137751429Y-89272858D01*
X137822857Y-89415715D01*
X137894286Y-89487144D01*
X138037143Y-89558572D01*
X138180000Y-89558572D01*
X138322857Y-89487144D01*
X138394286Y-89415715D01*
X138465714Y-89272858D01*
X138537143Y-88987144D01*
X138608571Y-88844286D01*
X138680000Y-88772858D01*
X138822857Y-88701429D01*
X138965714Y-88701429D01*
X139108571Y-88772858D01*
X139180000Y-88844286D01*
X139251429Y-88987144D01*
X139251429Y-89344286D01*
X139180000Y-89558572D01*
X167048571Y-89701428D02*
X166334286Y-90201428D01*
X167048571Y-90558571D02*
X165548571Y-90558571D01*
X165548571Y-89987143D01*
X165620000Y-89844285D01*
X165691429Y-89772857D01*
X165834286Y-89701428D01*
X166048571Y-89701428D01*
X166191429Y-89772857D01*
X166262857Y-89844285D01*
X166334286Y-89987143D01*
X166334286Y-90558571D01*
X166620000Y-89130000D02*
X166620000Y-88415714D01*
X167048571Y-89272857D02*
X165548571Y-88772857D01*
X167048571Y-88272857D01*
X167048571Y-87772857D02*
X165548571Y-87772857D01*
X165548571Y-87415714D01*
X165620000Y-87201429D01*
X165762857Y-87058571D01*
X165905714Y-86987143D01*
X166191429Y-86915714D01*
X166405714Y-86915714D01*
X166691429Y-86987143D01*
X166834286Y-87058571D01*
X166977143Y-87201429D01*
X167048571Y-87415714D01*
X167048571Y-87772857D01*
X167048571Y-86272857D02*
X165548571Y-86272857D01*
X165548571Y-85272857D02*
X165548571Y-84987143D01*
X165620000Y-84844285D01*
X165762857Y-84701428D01*
X166048571Y-84630000D01*
X166548571Y-84630000D01*
X166834286Y-84701428D01*
X166977143Y-84844285D01*
X167048571Y-84987143D01*
X167048571Y-85272857D01*
X166977143Y-85415714D01*
X166834286Y-85558571D01*
X166548571Y-85630000D01*
X166048571Y-85630000D01*
X165762857Y-85558571D01*
X165620000Y-85415714D01*
X165548571Y-85272857D01*
D12*
X161798000Y-76200000D02*
X161798000Y-63500000D01*
X161798000Y-63500000D02*
X159258000Y-63500000D01*
X159258000Y-63500000D02*
X159258000Y-76200000D01*
X161798000Y-78740000D02*
X161798000Y-76200000D01*
X161798000Y-76200000D02*
X159258000Y-76200000D01*
X161798000Y-78740000D02*
X159258000Y-78740000D01*
X159258000Y-78740000D02*
X159258000Y-76200000D01*
X159520000Y-96735000D02*
X160520000Y-96735000D01*
X160520000Y-95035000D02*
X159520000Y-95035000D01*
X147820000Y-59475000D02*
X146820000Y-59475000D01*
X146820000Y-61175000D02*
X147820000Y-61175000D01*
X162060000Y-62953000D02*
X163060000Y-62953000D01*
X163060000Y-61253000D02*
X162060000Y-61253000D01*
X159520000Y-61175000D02*
X160520000Y-61175000D01*
X160520000Y-59475000D02*
X159520000Y-59475000D01*
X141740000Y-61175000D02*
X142740000Y-61175000D01*
X142740000Y-59475000D02*
X141740000Y-59475000D01*
X150195280Y-109082840D02*
X149870160Y-109082840D01*
X149870160Y-109082840D02*
X149870160Y-109583220D01*
X150195280Y-109583220D02*
X149870160Y-109583220D01*
X150195280Y-109082840D02*
X150195280Y-109583220D01*
X150817580Y-109082840D02*
X150667720Y-109082840D01*
X150667720Y-109082840D02*
X150667720Y-109334300D01*
X150817580Y-109334300D02*
X150667720Y-109334300D01*
X150817580Y-109082840D02*
X150817580Y-109334300D01*
X150322280Y-109082840D02*
X150172420Y-109082840D01*
X150172420Y-109082840D02*
X150172420Y-109334300D01*
X150322280Y-109334300D02*
X150172420Y-109334300D01*
X150322280Y-109082840D02*
X150322280Y-109334300D01*
X150693120Y-109082840D02*
X150296880Y-109082840D01*
X150296880Y-109082840D02*
X150296880Y-109258100D01*
X150693120Y-109258100D02*
X150296880Y-109258100D01*
X150693120Y-109082840D02*
X150693120Y-109258100D01*
X150195280Y-107586780D02*
X149870160Y-107586780D01*
X149870160Y-107586780D02*
X149870160Y-108087160D01*
X150195280Y-108087160D02*
X149870160Y-108087160D01*
X150195280Y-107586780D02*
X150195280Y-108087160D01*
X151119840Y-107586780D02*
X150794720Y-107586780D01*
X150794720Y-107586780D02*
X150794720Y-108087160D01*
X151119840Y-108087160D02*
X150794720Y-108087160D01*
X151119840Y-107586780D02*
X151119840Y-108087160D01*
X150322280Y-107835700D02*
X150172420Y-107835700D01*
X150172420Y-107835700D02*
X150172420Y-108087160D01*
X150322280Y-108087160D02*
X150172420Y-108087160D01*
X150322280Y-107835700D02*
X150322280Y-108087160D01*
X150817580Y-107835700D02*
X150667720Y-107835700D01*
X150667720Y-107835700D02*
X150667720Y-108087160D01*
X150817580Y-108087160D02*
X150667720Y-108087160D01*
X150817580Y-107835700D02*
X150817580Y-108087160D01*
X150693120Y-107911900D02*
X150296880Y-107911900D01*
X150296880Y-107911900D02*
X150296880Y-108087160D01*
X150693120Y-108087160D02*
X150296880Y-108087160D01*
X150693120Y-107911900D02*
X150693120Y-108087160D01*
X150594060Y-108585000D02*
X150395940Y-108585000D01*
X150395940Y-108585000D02*
X150395940Y-108783120D01*
X150594060Y-108783120D02*
X150395940Y-108783120D01*
X150594060Y-108585000D02*
X150594060Y-108783120D01*
X151094440Y-109082840D02*
X150794720Y-109082840D01*
X150794720Y-109082840D02*
X150794720Y-109382560D01*
X151094440Y-109382560D02*
X150794720Y-109382560D01*
X151094440Y-109082840D02*
X151094440Y-109382560D01*
X151119840Y-109509560D02*
X150893780Y-109509560D01*
X150893780Y-109509560D02*
X150893780Y-109583220D01*
X151119840Y-109583220D02*
X150893780Y-109583220D01*
X151119840Y-109509560D02*
X151119840Y-109583220D01*
X149920960Y-109108240D02*
X149920960Y-108061760D01*
X151069040Y-108087160D02*
X151069040Y-109509560D01*
X151016422Y-109433360D02*
G75*
G03X151016422Y-109433360I-71842J0D01*
G74*
G01*
X150842980Y-109583220D02*
G75*
G03X150147020Y-109583220I-347980J0D01*
G74*
G01*
X150147020Y-107586780D02*
G75*
G03X150842980Y-107586780I347980J0D01*
G74*
G01*
X147655280Y-109082840D02*
X147330160Y-109082840D01*
X147330160Y-109082840D02*
X147330160Y-109583220D01*
X147655280Y-109583220D02*
X147330160Y-109583220D01*
X147655280Y-109082840D02*
X147655280Y-109583220D01*
X148277580Y-109082840D02*
X148127720Y-109082840D01*
X148127720Y-109082840D02*
X148127720Y-109334300D01*
X148277580Y-109334300D02*
X148127720Y-109334300D01*
X148277580Y-109082840D02*
X148277580Y-109334300D01*
X147782280Y-109082840D02*
X147632420Y-109082840D01*
X147632420Y-109082840D02*
X147632420Y-109334300D01*
X147782280Y-109334300D02*
X147632420Y-109334300D01*
X147782280Y-109082840D02*
X147782280Y-109334300D01*
X148153120Y-109082840D02*
X147756880Y-109082840D01*
X147756880Y-109082840D02*
X147756880Y-109258100D01*
X148153120Y-109258100D02*
X147756880Y-109258100D01*
X148153120Y-109082840D02*
X148153120Y-109258100D01*
X147655280Y-107586780D02*
X147330160Y-107586780D01*
X147330160Y-107586780D02*
X147330160Y-108087160D01*
X147655280Y-108087160D02*
X147330160Y-108087160D01*
X147655280Y-107586780D02*
X147655280Y-108087160D01*
X148579840Y-107586780D02*
X148254720Y-107586780D01*
X148254720Y-107586780D02*
X148254720Y-108087160D01*
X148579840Y-108087160D02*
X148254720Y-108087160D01*
X148579840Y-107586780D02*
X148579840Y-108087160D01*
X147782280Y-107835700D02*
X147632420Y-107835700D01*
X147632420Y-107835700D02*
X147632420Y-108087160D01*
X147782280Y-108087160D02*
X147632420Y-108087160D01*
X147782280Y-107835700D02*
X147782280Y-108087160D01*
X148277580Y-107835700D02*
X148127720Y-107835700D01*
X148127720Y-107835700D02*
X148127720Y-108087160D01*
X148277580Y-108087160D02*
X148127720Y-108087160D01*
X148277580Y-107835700D02*
X148277580Y-108087160D01*
X148153120Y-107911900D02*
X147756880Y-107911900D01*
X147756880Y-107911900D02*
X147756880Y-108087160D01*
X148153120Y-108087160D02*
X147756880Y-108087160D01*
X148153120Y-107911900D02*
X148153120Y-108087160D01*
X148054060Y-108585000D02*
X147855940Y-108585000D01*
X147855940Y-108585000D02*
X147855940Y-108783120D01*
X148054060Y-108783120D02*
X147855940Y-108783120D01*
X148054060Y-108585000D02*
X148054060Y-108783120D01*
X148554440Y-109082840D02*
X148254720Y-109082840D01*
X148254720Y-109082840D02*
X148254720Y-109382560D01*
X148554440Y-109382560D02*
X148254720Y-109382560D01*
X148554440Y-109082840D02*
X148554440Y-109382560D01*
X148579840Y-109509560D02*
X148353780Y-109509560D01*
X148353780Y-109509560D02*
X148353780Y-109583220D01*
X148579840Y-109583220D02*
X148353780Y-109583220D01*
X148579840Y-109509560D02*
X148579840Y-109583220D01*
X147380960Y-109108240D02*
X147380960Y-108061760D01*
X148529040Y-108087160D02*
X148529040Y-109509560D01*
X148476422Y-109433360D02*
G75*
G03X148476422Y-109433360I-71842J0D01*
G74*
G01*
X148302980Y-109583220D02*
G75*
G03X147607020Y-109583220I-347980J0D01*
G74*
G01*
X147607020Y-107586780D02*
G75*
G03X148302980Y-107586780I347980J0D01*
G74*
G01*
X145115280Y-109082840D02*
X144790160Y-109082840D01*
X144790160Y-109082840D02*
X144790160Y-109583220D01*
X145115280Y-109583220D02*
X144790160Y-109583220D01*
X145115280Y-109082840D02*
X145115280Y-109583220D01*
X145737580Y-109082840D02*
X145587720Y-109082840D01*
X145587720Y-109082840D02*
X145587720Y-109334300D01*
X145737580Y-109334300D02*
X145587720Y-109334300D01*
X145737580Y-109082840D02*
X145737580Y-109334300D01*
X145242280Y-109082840D02*
X145092420Y-109082840D01*
X145092420Y-109082840D02*
X145092420Y-109334300D01*
X145242280Y-109334300D02*
X145092420Y-109334300D01*
X145242280Y-109082840D02*
X145242280Y-109334300D01*
X145613120Y-109082840D02*
X145216880Y-109082840D01*
X145216880Y-109082840D02*
X145216880Y-109258100D01*
X145613120Y-109258100D02*
X145216880Y-109258100D01*
X145613120Y-109082840D02*
X145613120Y-109258100D01*
X145115280Y-107586780D02*
X144790160Y-107586780D01*
X144790160Y-107586780D02*
X144790160Y-108087160D01*
X145115280Y-108087160D02*
X144790160Y-108087160D01*
X145115280Y-107586780D02*
X145115280Y-108087160D01*
X146039840Y-107586780D02*
X145714720Y-107586780D01*
X145714720Y-107586780D02*
X145714720Y-108087160D01*
X146039840Y-108087160D02*
X145714720Y-108087160D01*
X146039840Y-107586780D02*
X146039840Y-108087160D01*
X145242280Y-107835700D02*
X145092420Y-107835700D01*
X145092420Y-107835700D02*
X145092420Y-108087160D01*
X145242280Y-108087160D02*
X145092420Y-108087160D01*
X145242280Y-107835700D02*
X145242280Y-108087160D01*
X145737580Y-107835700D02*
X145587720Y-107835700D01*
X145587720Y-107835700D02*
X145587720Y-108087160D01*
X145737580Y-108087160D02*
X145587720Y-108087160D01*
X145737580Y-107835700D02*
X145737580Y-108087160D01*
X145613120Y-107911900D02*
X145216880Y-107911900D01*
X145216880Y-107911900D02*
X145216880Y-108087160D01*
X145613120Y-108087160D02*
X145216880Y-108087160D01*
X145613120Y-107911900D02*
X145613120Y-108087160D01*
X145514060Y-108585000D02*
X145315940Y-108585000D01*
X145315940Y-108585000D02*
X145315940Y-108783120D01*
X145514060Y-108783120D02*
X145315940Y-108783120D01*
X145514060Y-108585000D02*
X145514060Y-108783120D01*
X146014440Y-109082840D02*
X145714720Y-109082840D01*
X145714720Y-109082840D02*
X145714720Y-109382560D01*
X146014440Y-109382560D02*
X145714720Y-109382560D01*
X146014440Y-109082840D02*
X146014440Y-109382560D01*
X146039840Y-109509560D02*
X145813780Y-109509560D01*
X145813780Y-109509560D02*
X145813780Y-109583220D01*
X146039840Y-109583220D02*
X145813780Y-109583220D01*
X146039840Y-109509560D02*
X146039840Y-109583220D01*
X144840960Y-109108240D02*
X144840960Y-108061760D01*
X145989040Y-108087160D02*
X145989040Y-109509560D01*
X145936422Y-109433360D02*
G75*
G03X145936422Y-109433360I-71842J0D01*
G74*
G01*
X145762980Y-109583220D02*
G75*
G03X145067020Y-109583220I-347980J0D01*
G74*
G01*
X145067020Y-107586780D02*
G75*
G03X145762980Y-107586780I347980J0D01*
G74*
G01*
X142575280Y-109082840D02*
X142250160Y-109082840D01*
X142250160Y-109082840D02*
X142250160Y-109583220D01*
X142575280Y-109583220D02*
X142250160Y-109583220D01*
X142575280Y-109082840D02*
X142575280Y-109583220D01*
X143197580Y-109082840D02*
X143047720Y-109082840D01*
X143047720Y-109082840D02*
X143047720Y-109334300D01*
X143197580Y-109334300D02*
X143047720Y-109334300D01*
X143197580Y-109082840D02*
X143197580Y-109334300D01*
X142702280Y-109082840D02*
X142552420Y-109082840D01*
X142552420Y-109082840D02*
X142552420Y-109334300D01*
X142702280Y-109334300D02*
X142552420Y-109334300D01*
X142702280Y-109082840D02*
X142702280Y-109334300D01*
X143073120Y-109082840D02*
X142676880Y-109082840D01*
X142676880Y-109082840D02*
X142676880Y-109258100D01*
X143073120Y-109258100D02*
X142676880Y-109258100D01*
X143073120Y-109082840D02*
X143073120Y-109258100D01*
X142575280Y-107586780D02*
X142250160Y-107586780D01*
X142250160Y-107586780D02*
X142250160Y-108087160D01*
X142575280Y-108087160D02*
X142250160Y-108087160D01*
X142575280Y-107586780D02*
X142575280Y-108087160D01*
X143499840Y-107586780D02*
X143174720Y-107586780D01*
X143174720Y-107586780D02*
X143174720Y-108087160D01*
X143499840Y-108087160D02*
X143174720Y-108087160D01*
X143499840Y-107586780D02*
X143499840Y-108087160D01*
X142702280Y-107835700D02*
X142552420Y-107835700D01*
X142552420Y-107835700D02*
X142552420Y-108087160D01*
X142702280Y-108087160D02*
X142552420Y-108087160D01*
X142702280Y-107835700D02*
X142702280Y-108087160D01*
X143197580Y-107835700D02*
X143047720Y-107835700D01*
X143047720Y-107835700D02*
X143047720Y-108087160D01*
X143197580Y-108087160D02*
X143047720Y-108087160D01*
X143197580Y-107835700D02*
X143197580Y-108087160D01*
X143073120Y-107911900D02*
X142676880Y-107911900D01*
X142676880Y-107911900D02*
X142676880Y-108087160D01*
X143073120Y-108087160D02*
X142676880Y-108087160D01*
X143073120Y-107911900D02*
X143073120Y-108087160D01*
X142974060Y-108585000D02*
X142775940Y-108585000D01*
X142775940Y-108585000D02*
X142775940Y-108783120D01*
X142974060Y-108783120D02*
X142775940Y-108783120D01*
X142974060Y-108585000D02*
X142974060Y-108783120D01*
X143474440Y-109082840D02*
X143174720Y-109082840D01*
X143174720Y-109082840D02*
X143174720Y-109382560D01*
X143474440Y-109382560D02*
X143174720Y-109382560D01*
X143474440Y-109082840D02*
X143474440Y-109382560D01*
X143499840Y-109509560D02*
X143273780Y-109509560D01*
X143273780Y-109509560D02*
X143273780Y-109583220D01*
X143499840Y-109583220D02*
X143273780Y-109583220D01*
X143499840Y-109509560D02*
X143499840Y-109583220D01*
X142300960Y-109108240D02*
X142300960Y-108061760D01*
X143449040Y-108087160D02*
X143449040Y-109509560D01*
X143396422Y-109433360D02*
G75*
G03X143396422Y-109433360I-71842J0D01*
G74*
G01*
X143222980Y-109583220D02*
G75*
G03X142527020Y-109583220I-347980J0D01*
G74*
G01*
X142527020Y-107586780D02*
G75*
G03X143222980Y-107586780I347980J0D01*
G74*
G01*
X152897840Y-49956720D02*
X152897840Y-50281840D01*
X152897840Y-50281840D02*
X153398220Y-50281840D01*
X153398220Y-49956720D02*
X153398220Y-50281840D01*
X152897840Y-49956720D02*
X153398220Y-49956720D01*
X152897840Y-49334420D02*
X152897840Y-49484280D01*
X152897840Y-49484280D02*
X153149300Y-49484280D01*
X153149300Y-49334420D02*
X153149300Y-49484280D01*
X152897840Y-49334420D02*
X153149300Y-49334420D01*
X152897840Y-49829720D02*
X152897840Y-49979580D01*
X152897840Y-49979580D02*
X153149300Y-49979580D01*
X153149300Y-49829720D02*
X153149300Y-49979580D01*
X152897840Y-49829720D02*
X153149300Y-49829720D01*
X152897840Y-49458880D02*
X152897840Y-49855120D01*
X152897840Y-49855120D02*
X153073100Y-49855120D01*
X153073100Y-49458880D02*
X153073100Y-49855120D01*
X152897840Y-49458880D02*
X153073100Y-49458880D01*
X151401780Y-49956720D02*
X151401780Y-50281840D01*
X151401780Y-50281840D02*
X151902160Y-50281840D01*
X151902160Y-49956720D02*
X151902160Y-50281840D01*
X151401780Y-49956720D02*
X151902160Y-49956720D01*
X151401780Y-49032160D02*
X151401780Y-49357280D01*
X151401780Y-49357280D02*
X151902160Y-49357280D01*
X151902160Y-49032160D02*
X151902160Y-49357280D01*
X151401780Y-49032160D02*
X151902160Y-49032160D01*
X151650700Y-49829720D02*
X151650700Y-49979580D01*
X151650700Y-49979580D02*
X151902160Y-49979580D01*
X151902160Y-49829720D02*
X151902160Y-49979580D01*
X151650700Y-49829720D02*
X151902160Y-49829720D01*
X151650700Y-49334420D02*
X151650700Y-49484280D01*
X151650700Y-49484280D02*
X151902160Y-49484280D01*
X151902160Y-49334420D02*
X151902160Y-49484280D01*
X151650700Y-49334420D02*
X151902160Y-49334420D01*
X151726900Y-49458880D02*
X151726900Y-49855120D01*
X151726900Y-49855120D02*
X151902160Y-49855120D01*
X151902160Y-49458880D02*
X151902160Y-49855120D01*
X151726900Y-49458880D02*
X151902160Y-49458880D01*
X152400000Y-49557940D02*
X152400000Y-49756060D01*
X152400000Y-49756060D02*
X152598120Y-49756060D01*
X152598120Y-49557940D02*
X152598120Y-49756060D01*
X152400000Y-49557940D02*
X152598120Y-49557940D01*
X152897840Y-49057560D02*
X152897840Y-49357280D01*
X152897840Y-49357280D02*
X153197560Y-49357280D01*
X153197560Y-49057560D02*
X153197560Y-49357280D01*
X152897840Y-49057560D02*
X153197560Y-49057560D01*
X153324560Y-49032160D02*
X153324560Y-49258220D01*
X153324560Y-49258220D02*
X153398220Y-49258220D01*
X153398220Y-49032160D02*
X153398220Y-49258220D01*
X153324560Y-49032160D02*
X153398220Y-49032160D01*
X152923240Y-50231040D02*
X151876760Y-50231040D01*
X151902160Y-49082960D02*
X153324560Y-49082960D01*
X153320202Y-49207420D02*
G75*
G03X153320202Y-49207420I-71842J0D01*
G74*
G01*
X153398220Y-49309020D02*
G75*
G03X153398220Y-50004980I0J-347980D01*
G74*
G01*
X151401780Y-50004980D02*
G75*
G03X151401780Y-49309020I0J347980D01*
G74*
G01*
X144526000Y-78232000D02*
G75*
G03X144526000Y-78232000I-127000J0D01*
G74*
G01*
X145542000Y-78232000D02*
X144526000Y-78232000D01*
X144526000Y-78232000D02*
X144526000Y-76708000D01*
X144526000Y-76708000D02*
X145542000Y-76708000D01*
X146558000Y-76708000D02*
X147574000Y-76708000D01*
X147574000Y-76708000D02*
X147574000Y-78232000D01*
X147574000Y-78232000D02*
X146558000Y-78232000D01*
X152400000Y-46990000D02*
X152400000Y-44450000D01*
X149860000Y-46990000D02*
X149860000Y-44450000D01*
X149860000Y-44450000D02*
X152400000Y-44450000D01*
X152400000Y-44450000D02*
X154940000Y-44450000D01*
X154940000Y-44450000D02*
X154940000Y-46990000D01*
X154940000Y-46990000D02*
X149860000Y-46990000D01*
X162560000Y-115570000D02*
X160020000Y-115570000D01*
X162560000Y-118110000D02*
X160020000Y-118110000D01*
X160020000Y-118110000D02*
X160020000Y-115570000D01*
X160020000Y-115570000D02*
X160020000Y-113030000D01*
X160020000Y-113030000D02*
X162560000Y-113030000D01*
X162560000Y-113030000D02*
X162560000Y-118110000D01*
X144780000Y-123825000D02*
X162560000Y-123825000D01*
X162560000Y-123825000D02*
X162560000Y-121285000D01*
X162560000Y-121285000D02*
X144780000Y-121285000D01*
X142240000Y-123825000D02*
X144780000Y-123825000D01*
X144780000Y-123825000D02*
X144780000Y-121285000D01*
X142240000Y-123825000D02*
X142240000Y-121285000D01*
X142240000Y-121285000D02*
X144780000Y-121285000D01*
X149895000Y-112860000D02*
X149750000Y-112860000D01*
X149895000Y-117010000D02*
X149750000Y-117010000D01*
X144745000Y-117010000D02*
X144890000Y-117010000D01*
X144745000Y-112860000D02*
X144890000Y-112860000D01*
X149895000Y-112860000D02*
X149895000Y-117010000D01*
X144745000Y-112860000D02*
X144745000Y-117010000D01*
X149750000Y-112860000D02*
X149750000Y-111460000D01*
X158150000Y-112860000D02*
X158005000Y-112860000D01*
X158150000Y-117010000D02*
X158005000Y-117010000D01*
X153000000Y-117010000D02*
X153145000Y-117010000D01*
X153000000Y-112860000D02*
X153145000Y-112860000D01*
X158150000Y-112860000D02*
X158150000Y-117010000D01*
X153000000Y-112860000D02*
X153000000Y-117010000D01*
X158005000Y-112860000D02*
X158005000Y-111460000D01*
X149620000Y-104105000D02*
X149620000Y-102905000D01*
X151370000Y-102905000D02*
X151370000Y-104105000D01*
X147080000Y-104105000D02*
X147080000Y-102905000D01*
X148830000Y-102905000D02*
X148830000Y-104105000D01*
X144540000Y-104105000D02*
X144540000Y-102905000D01*
X146290000Y-102905000D02*
X146290000Y-104105000D01*
X142000000Y-104105000D02*
X142000000Y-102905000D01*
X143750000Y-102905000D02*
X143750000Y-104105000D01*
X151095000Y-78345000D02*
X149895000Y-78345000D01*
X149895000Y-76595000D02*
X151095000Y-76595000D01*
X153000000Y-48881000D02*
X151800000Y-48881000D01*
X151800000Y-47131000D02*
X153000000Y-47131000D01*
X160020000Y-105410000D02*
G75*
G03X160020000Y-105410000I-2540000J0D01*
G74*
G01*
X153670000Y-101600000D02*
X161290000Y-101600000D01*
X161290000Y-101600000D02*
X161290000Y-109220000D01*
X161290000Y-109220000D02*
X153670000Y-109220000D01*
X153670000Y-101600000D02*
X153670000Y-109220000D01*
X148590000Y-71120000D02*
G75*
G03X148590000Y-71120000I-2540000J0D01*
G74*
G01*
X142240000Y-67310000D02*
X149860000Y-67310000D01*
X149860000Y-67310000D02*
X149860000Y-74930000D01*
X149860000Y-74930000D02*
X142240000Y-74930000D01*
X142240000Y-67310000D02*
X142240000Y-74930000D01*
X147225000Y-82455000D02*
X147225000Y-83505000D01*
X157575000Y-82455000D02*
X157575000Y-83505000D01*
X157575000Y-92805000D02*
X157575000Y-91755000D01*
X147225000Y-92805000D02*
X147225000Y-91755000D01*
X147225000Y-82455000D02*
X148275000Y-82455000D01*
X147225000Y-92805000D02*
X148275000Y-92805000D01*
X157575000Y-92805000D02*
X156525000Y-92805000D01*
X157575000Y-82455000D02*
X156525000Y-82455000D01*
X147225000Y-83505000D02*
X145950000Y-83505000D01*
X145034000Y-54737000D02*
X145034000Y-58420000D01*
X145034000Y-58420000D02*
X147066000Y-58420000D01*
X147066000Y-58420000D02*
X147066000Y-54737000D01*
X142494000Y-54737000D02*
X142494000Y-58420000D01*
X142494000Y-58420000D02*
X144526000Y-58420000D01*
X144526000Y-58420000D02*
X144526000Y-54737000D01*
X139954000Y-54737000D02*
X139954000Y-58420000D01*
X139954000Y-58420000D02*
X141986000Y-58420000D01*
X141986000Y-58420000D02*
X141986000Y-54737000D01*
X138176000Y-54737000D02*
X148844000Y-54737000D01*
X148844000Y-54737000D02*
X148844000Y-44577000D01*
X148844000Y-44577000D02*
X138176000Y-44577000D01*
X138176000Y-44577000D02*
X138176000Y-54737000D01*
X162814000Y-54737000D02*
X162814000Y-58420000D01*
X162814000Y-58420000D02*
X164846000Y-58420000D01*
X164846000Y-58420000D02*
X164846000Y-54737000D01*
X160274000Y-54737000D02*
X160274000Y-58420000D01*
X160274000Y-58420000D02*
X162306000Y-58420000D01*
X162306000Y-58420000D02*
X162306000Y-54737000D01*
X157734000Y-54737000D02*
X157734000Y-58420000D01*
X157734000Y-58420000D02*
X159766000Y-58420000D01*
X159766000Y-58420000D02*
X159766000Y-54737000D01*
X155956000Y-54737000D02*
X166624000Y-54737000D01*
X166624000Y-54737000D02*
X166624000Y-44577000D01*
X166624000Y-44577000D02*
X155956000Y-44577000D01*
X155956000Y-44577000D02*
X155956000Y-54737000D01*
X139700000Y-83820000D02*
X139700000Y-93980000D01*
X139700000Y-93980000D02*
X142240000Y-93980000D01*
X142240000Y-93980000D02*
X142240000Y-83820000D01*
X139700000Y-81280000D02*
X139700000Y-83820000D01*
X139700000Y-83820000D02*
X142240000Y-83820000D01*
X139700000Y-81280000D02*
X142240000Y-81280000D01*
X142240000Y-81280000D02*
X142240000Y-83820000D01*
X162560000Y-83820000D02*
X162560000Y-93980000D01*
X162560000Y-93980000D02*
X165100000Y-93980000D01*
X165100000Y-93980000D02*
X165100000Y-83820000D01*
X162560000Y-81280000D02*
X162560000Y-83820000D01*
X162560000Y-83820000D02*
X165100000Y-83820000D01*
X162560000Y-81280000D02*
X165100000Y-81280000D01*
X165100000Y-81280000D02*
X165100000Y-83820000D01*
X144780000Y-100330000D02*
X162560000Y-100330000D01*
X162560000Y-100330000D02*
X162560000Y-97790000D01*
X162560000Y-97790000D02*
X144780000Y-97790000D01*
X142240000Y-100330000D02*
X144780000Y-100330000D01*
X144780000Y-100330000D02*
X144780000Y-97790000D01*
X142240000Y-100330000D02*
X142240000Y-97790000D01*
X142240000Y-97790000D02*
X144780000Y-97790000D01*
X154686000Y-53340000D02*
G75*
G03X154686000Y-53340000I-2286000J0D01*
G74*
G01*
X141168572Y-58677381D02*
X140597143Y-58677381D01*
X140882857Y-58677381D02*
X140882857Y-57677381D01*
X140787619Y-57820238D01*
X140692381Y-57915476D01*
X140597143Y-57963095D01*
X141787619Y-57677381D02*
X141882858Y-57677381D01*
X141978096Y-57725000D01*
X142025715Y-57772619D01*
X142073334Y-57867857D01*
X142120953Y-58058333D01*
X142120953Y-58296429D01*
X142073334Y-58486905D01*
X142025715Y-58582143D01*
X141978096Y-58629762D01*
X141882858Y-58677381D01*
X141787619Y-58677381D01*
X141692381Y-58629762D01*
X141644762Y-58582143D01*
X141597143Y-58486905D01*
X141549524Y-58296429D01*
X141549524Y-58058333D01*
X141597143Y-57867857D01*
X141644762Y-57772619D01*
X141692381Y-57725000D01*
X141787619Y-57677381D01*
X142978096Y-58010714D02*
X142978096Y-58677381D01*
X142549524Y-58010714D02*
X142549524Y-58534524D01*
X142597143Y-58629762D01*
X142692381Y-58677381D01*
X142835239Y-58677381D01*
X142930477Y-58629762D01*
X142978096Y-58582143D01*
X143787620Y-58153571D02*
X143454286Y-58153571D01*
X143454286Y-58677381D02*
X143454286Y-57677381D01*
X143930477Y-57677381D01*
X145216667Y-75398381D02*
X145216667Y-76112667D01*
X145169047Y-76255524D01*
X145073809Y-76350762D01*
X144930952Y-76398381D01*
X144835714Y-76398381D01*
X145692857Y-76398381D02*
X145692857Y-75398381D01*
X146073810Y-75398381D01*
X146169048Y-75446000D01*
X146216667Y-75493619D01*
X146264286Y-75588857D01*
X146264286Y-75731714D01*
X146216667Y-75826952D01*
X146169048Y-75874571D01*
X146073810Y-75922190D01*
X145692857Y-75922190D01*
X147216667Y-76398381D02*
X146645238Y-76398381D01*
X146930952Y-76398381D02*
X146930952Y-75398381D01*
X146835714Y-75541238D01*
X146740476Y-75636476D01*
X146645238Y-75684095D01*
M02*
