%FSLAX46Y46*%
G04 Gerber Fmt 4.6, Leading zero omitted, Abs format (unit mm)*
G04 Created by KiCad (PCBNEW (20140926 BZR5148)-product) date Fri 30 Jan 2015 01:27:10 AM CST*
%MOMM*%
G01*
G04 APERTURE LIST*
%ADD10C,0.100000*%
%ADD11R,2.032000X1.727200*%
%ADD12O,2.032000X1.727200*%
%ADD13R,1.500000X1.250000*%
%ADD14R,1.198880X1.198880*%
%ADD15R,0.889000X1.397000*%
%ADD16R,2.032000X2.032000*%
%ADD17O,2.032000X2.032000*%
%ADD18R,1.727200X2.032000*%
%ADD19O,1.727200X2.032000*%
%ADD20R,0.600000X1.550000*%
%ADD21R,1.300000X1.500000*%
%ADD22R,1.500000X1.300000*%
%ADD23C,1.397000*%
%ADD24R,1.500000X0.300000*%
%ADD25R,0.300000X1.500000*%
%ADD26R,10.668000X8.890000*%
%ADD27R,1.778000X2.286000*%
%ADD28C,3.500000*%
%ADD29C,0.713740*%
%ADD30C,0.152400*%
%ADD31C,0.203200*%
%ADD32C,0.355600*%
%ADD33C,0.508000*%
G04 APERTURE END LIST*
D10*
D11*
X160528000Y-77470000D03*
D12*
X160528000Y-74930000D03*
X160528000Y-72390000D03*
X160528000Y-69850000D03*
X160528000Y-67310000D03*
X160528000Y-64770000D03*
D13*
X161270000Y-95885000D03*
X158770000Y-95885000D03*
X146070000Y-60325000D03*
X148570000Y-60325000D03*
X163810000Y-62103000D03*
X161310000Y-62103000D03*
X161270000Y-60325000D03*
X158770000Y-60325000D03*
X143490000Y-60325000D03*
X140990000Y-60325000D03*
D14*
X150495000Y-107535980D03*
X150495000Y-109634020D03*
X147955000Y-107535980D03*
X147955000Y-109634020D03*
X145415000Y-107535980D03*
X145415000Y-109634020D03*
X142875000Y-107535980D03*
X142875000Y-109634020D03*
X151350980Y-49657000D03*
X153449020Y-49657000D03*
D15*
X145097500Y-77470000D03*
X147002500Y-77470000D03*
D16*
X151130000Y-45720000D03*
D17*
X153670000Y-45720000D03*
D16*
X161290000Y-116840000D03*
D17*
X161290000Y-114300000D03*
D18*
X143510000Y-122555000D03*
D19*
X146050000Y-122555000D03*
X148590000Y-122555000D03*
X151130000Y-122555000D03*
X153670000Y-122555000D03*
X156210000Y-122555000D03*
X158750000Y-122555000D03*
X161290000Y-122555000D03*
D20*
X149225000Y-112235000D03*
X147955000Y-112235000D03*
X146685000Y-112235000D03*
X145415000Y-112235000D03*
X145415000Y-117635000D03*
X146685000Y-117635000D03*
X147955000Y-117635000D03*
X149225000Y-117635000D03*
X157480000Y-112235000D03*
X156210000Y-112235000D03*
X154940000Y-112235000D03*
X153670000Y-112235000D03*
X153670000Y-117635000D03*
X154940000Y-117635000D03*
X156210000Y-117635000D03*
X157480000Y-117635000D03*
D21*
X150495000Y-102155000D03*
X150495000Y-104855000D03*
X147955000Y-102155000D03*
X147955000Y-104855000D03*
X145415000Y-102155000D03*
X145415000Y-104855000D03*
X142875000Y-102155000D03*
X142875000Y-104855000D03*
D22*
X149145000Y-77470000D03*
X151845000Y-77470000D03*
X151050000Y-48006000D03*
X153750000Y-48006000D03*
D23*
X161290000Y-102870000D03*
X161290000Y-107950000D03*
X153670000Y-102870000D03*
X153670000Y-107950000D03*
X149860000Y-68580000D03*
X149860000Y-73660000D03*
X142240000Y-68580000D03*
X142240000Y-73660000D03*
D24*
X146700000Y-83880000D03*
X146700000Y-84380000D03*
X146700000Y-84880000D03*
X146700000Y-85380000D03*
X146700000Y-85880000D03*
X146700000Y-86380000D03*
X146700000Y-86880000D03*
X146700000Y-87380000D03*
X146700000Y-87880000D03*
X146700000Y-88380000D03*
X146700000Y-88880000D03*
X146700000Y-89380000D03*
X146700000Y-89880000D03*
X146700000Y-90380000D03*
X146700000Y-90880000D03*
X146700000Y-91380000D03*
D25*
X148650000Y-93330000D03*
X149150000Y-93330000D03*
X149650000Y-93330000D03*
X150150000Y-93330000D03*
X150650000Y-93330000D03*
X151150000Y-93330000D03*
X151650000Y-93330000D03*
X152150000Y-93330000D03*
X152650000Y-93330000D03*
X153150000Y-93330000D03*
X153650000Y-93330000D03*
X154150000Y-93330000D03*
X154650000Y-93330000D03*
X155150000Y-93330000D03*
X155650000Y-93330000D03*
X156150000Y-93330000D03*
D24*
X158100000Y-91380000D03*
X158100000Y-90880000D03*
X158100000Y-90380000D03*
X158100000Y-89880000D03*
X158100000Y-89380000D03*
X158100000Y-88880000D03*
X158100000Y-88380000D03*
X158100000Y-87880000D03*
X158100000Y-87380000D03*
X158100000Y-86880000D03*
X158100000Y-86380000D03*
X158100000Y-85880000D03*
X158100000Y-85380000D03*
X158100000Y-84880000D03*
X158100000Y-84380000D03*
X158100000Y-83880000D03*
D25*
X156150000Y-81930000D03*
X155650000Y-81930000D03*
X155150000Y-81930000D03*
X154650000Y-81930000D03*
X154150000Y-81930000D03*
X153650000Y-81930000D03*
X153150000Y-81930000D03*
X152650000Y-81930000D03*
X152150000Y-81930000D03*
X151650000Y-81930000D03*
X151150000Y-81930000D03*
X150650000Y-81930000D03*
X150150000Y-81930000D03*
X149650000Y-81930000D03*
X149150000Y-81930000D03*
X148650000Y-81930000D03*
D26*
X143510000Y-48387000D03*
D27*
X143510000Y-57150000D03*
X140970000Y-57150000D03*
X146050000Y-57150000D03*
D26*
X161290000Y-48387000D03*
D27*
X161290000Y-57150000D03*
X158750000Y-57150000D03*
X163830000Y-57150000D03*
D11*
X140970000Y-82550000D03*
D12*
X140970000Y-85090000D03*
X140970000Y-87630000D03*
X140970000Y-90170000D03*
X140970000Y-92710000D03*
D11*
X163830000Y-82550000D03*
D12*
X163830000Y-85090000D03*
X163830000Y-87630000D03*
X163830000Y-90170000D03*
X163830000Y-92710000D03*
D18*
X143510000Y-99060000D03*
D19*
X146050000Y-99060000D03*
X148590000Y-99060000D03*
X151130000Y-99060000D03*
X153670000Y-99060000D03*
X156210000Y-99060000D03*
X158750000Y-99060000D03*
X161290000Y-99060000D03*
D28*
X152400000Y-53340000D03*
D29*
X149860000Y-90424000D03*
X148012350Y-89133500D03*
X149886748Y-88999040D03*
X148441119Y-91507285D03*
X149158939Y-83199156D03*
X152328880Y-75892660D03*
X143897263Y-86753679D03*
X151790400Y-96822260D03*
X156841967Y-85661614D03*
X156464135Y-87435000D03*
X154617420Y-86385400D03*
X144470120Y-80545940D03*
X150065740Y-60322460D03*
X158369000Y-54737000D03*
X157456202Y-65400184D03*
X158750000Y-65278000D03*
X155480728Y-60706000D03*
X154368609Y-92075371D03*
X155300256Y-73064576D03*
X151902160Y-85469780D03*
X152234896Y-83189465D03*
X148112480Y-85443060D03*
X153797000Y-75946000D03*
X152654000Y-66040000D03*
X156625109Y-62387899D03*
X156980728Y-58801000D03*
X149149934Y-91009490D03*
X143891000Y-65532000D03*
X148090276Y-84538811D03*
X158575470Y-100692474D03*
X148463000Y-74676000D03*
X143891000Y-61849000D03*
X156229863Y-84874222D03*
X155184209Y-91715109D03*
X146431000Y-79756000D03*
X157629860Y-68079620D03*
X144056100Y-69743320D03*
X143852900Y-77162660D03*
X144957800Y-86982300D03*
X148762720Y-71752460D03*
X148590000Y-54991000D03*
X163830000Y-55118000D03*
X155304361Y-73930718D03*
X154884120Y-75882500D03*
X150469600Y-77584300D03*
X147868640Y-79308960D03*
X159228198Y-76183535D03*
X157137100Y-80573880D03*
X159900620Y-79255620D03*
X159517080Y-84355940D03*
X162000063Y-71210037D03*
X155583640Y-80619302D03*
X149081510Y-94972965D03*
X149952259Y-94894091D03*
X150867682Y-94806677D03*
X151730998Y-94736643D03*
X153568215Y-84139459D03*
X145140711Y-82232500D03*
X145897459Y-83223436D03*
X143461740Y-82344260D03*
X149141180Y-84096860D03*
X152591750Y-80437702D03*
X143609060Y-84703920D03*
X145140680Y-84686140D03*
X145856960Y-78839060D03*
X152059640Y-79098140D03*
X158767227Y-80676457D03*
X159547560Y-82036920D03*
X148697970Y-87222343D03*
X150182580Y-87188040D03*
X156707840Y-86603840D03*
X151368758Y-83184619D03*
X150921296Y-86589429D03*
X150730466Y-80420834D03*
X151697853Y-87628893D03*
X151516080Y-90533220D03*
X147972780Y-93865700D03*
X151003000Y-120777000D03*
X155067000Y-120777000D03*
X160274000Y-120650000D03*
X143637000Y-93853000D03*
X152781000Y-88773000D03*
X153670000Y-88392000D03*
X142748000Y-96266000D03*
X143587490Y-95277890D03*
X145415000Y-116350728D03*
X153670000Y-89535000D03*
X143552202Y-96587681D03*
X153670000Y-90805000D03*
X148700728Y-114300000D03*
X161406840Y-93134180D03*
X163281360Y-101175820D03*
X161132520Y-109324140D03*
X156834840Y-110964980D03*
X160252427Y-109767387D03*
X154619960Y-109420660D03*
X160213040Y-103576120D03*
X159674560Y-101254560D03*
X159465754Y-110129829D03*
X159395972Y-103863556D03*
X159612300Y-100280927D03*
X156204920Y-113619280D03*
X153113740Y-114584480D03*
X155100020Y-96199960D03*
X155481020Y-89291160D03*
X153365200Y-86959440D03*
X152560020Y-90637360D03*
X153555700Y-116260880D03*
X154432000Y-67775909D03*
X155883544Y-71860273D03*
X154335480Y-78927960D03*
X150334980Y-83416140D03*
X155396929Y-79143532D03*
X150118215Y-84254730D03*
X156748766Y-72364864D03*
X156591000Y-65440728D03*
X154415124Y-61510618D03*
X155702000Y-67691000D03*
D30*
X149860000Y-89408000D02*
X149860000Y-89025788D01*
X149860000Y-89408000D02*
X149860000Y-90424000D01*
X149860000Y-89025788D02*
X149886748Y-88999040D01*
D31*
X148797988Y-91864154D02*
X148441119Y-91507285D01*
X149150000Y-92216166D02*
X148797988Y-91864154D01*
X149150000Y-93330000D02*
X149150000Y-92216166D01*
D30*
X147765850Y-89380000D02*
X148012350Y-89133500D01*
X146700000Y-89380000D02*
X147765850Y-89380000D01*
D31*
X157456202Y-65904874D02*
X157456202Y-65400184D01*
X159435800Y-70789650D02*
X157018989Y-68372839D01*
X157018989Y-66342087D02*
X157456202Y-65904874D01*
X159435800Y-71323200D02*
X159435800Y-70789650D01*
X160502600Y-72390000D02*
X159435800Y-71323200D01*
X160655000Y-72390000D02*
X160502600Y-72390000D01*
X157018989Y-68372839D02*
X157018989Y-66342087D01*
X149150000Y-83190217D02*
X149158939Y-83199156D01*
X149150000Y-81930000D02*
X149150000Y-83190217D01*
D30*
X151845000Y-77470000D02*
X151845000Y-76667600D01*
X151845000Y-76667600D02*
X152328880Y-76183720D01*
X152328880Y-76183720D02*
X152328880Y-75892660D01*
D31*
X149054001Y-81834001D02*
X149150000Y-81930000D01*
X149054001Y-80976799D02*
X149054001Y-81834001D01*
X149003201Y-80925999D02*
X149054001Y-80976799D01*
X144850179Y-80925999D02*
X149003201Y-80925999D01*
X144470120Y-80545940D02*
X144850179Y-80925999D01*
D32*
X143897263Y-89935137D02*
X143897263Y-87258369D01*
X140970000Y-92710000D02*
X141122400Y-92710000D01*
X141122400Y-92710000D02*
X143897263Y-89935137D01*
X143897263Y-87258369D02*
X143897263Y-86753679D01*
D31*
X148534120Y-95455740D02*
X149900640Y-96822260D01*
X149900640Y-96822260D02*
X151790400Y-96822260D01*
X148534120Y-95329665D02*
X148534120Y-95455740D01*
X148470639Y-95266184D02*
X148534120Y-95329665D01*
X148751619Y-94334001D02*
X148470639Y-94614981D01*
X148470639Y-94614981D02*
X148470639Y-95266184D01*
X149099199Y-94334001D02*
X148751619Y-94334001D01*
X149150000Y-93330000D02*
X149150000Y-94283200D01*
X149150000Y-94283200D02*
X149099199Y-94334001D01*
D32*
X156107266Y-87078131D02*
X156464135Y-87435000D01*
X155310151Y-87078131D02*
X156107266Y-87078131D01*
X154617420Y-86385400D02*
X155310151Y-87078131D01*
X154940000Y-111443768D02*
X154940000Y-112710000D01*
X156161739Y-110222029D02*
X154940000Y-111443768D01*
X157154475Y-110222029D02*
X156161739Y-110222029D01*
X157521911Y-112193089D02*
X157521911Y-110589465D01*
X157480000Y-112235000D02*
X157521911Y-112193089D01*
X157521911Y-110589465D02*
X157154475Y-110222029D01*
X154918160Y-112710000D02*
X154262560Y-113365600D01*
X151011200Y-113365600D02*
X149880600Y-112235000D01*
X154262560Y-113365600D02*
X151011200Y-113365600D01*
X149880600Y-112235000D02*
X149225000Y-112235000D01*
X154940000Y-112710000D02*
X154918160Y-112710000D01*
X159225000Y-112235000D02*
X158135600Y-112235000D01*
X158135600Y-112235000D02*
X157480000Y-112235000D01*
X161290000Y-114300000D02*
X159225000Y-112235000D01*
X161270000Y-95885000D02*
X161270000Y-99040000D01*
X161270000Y-99040000D02*
X161290000Y-99060000D01*
X163830000Y-92710000D02*
X163677600Y-92710000D01*
X163677600Y-92710000D02*
X161270000Y-95117600D01*
X161270000Y-95117600D02*
X161270000Y-95885000D01*
X148570000Y-60325000D02*
X150063200Y-60325000D01*
X150063200Y-60325000D02*
X150065740Y-60322460D01*
X158369000Y-54737000D02*
X156845000Y-56261000D01*
X156845000Y-56261000D02*
X150368000Y-56261000D01*
X150368000Y-56261000D02*
X148570000Y-58059000D01*
X148570000Y-58059000D02*
X148570000Y-60325000D01*
D30*
X158369000Y-54737000D02*
X159004000Y-54102000D01*
X158496000Y-53086000D02*
X155798518Y-53086000D01*
X155798518Y-53086000D02*
X153449020Y-50736502D01*
X159004000Y-54102000D02*
X159004000Y-53594000D01*
X159004000Y-53594000D02*
X158496000Y-53086000D01*
X153449020Y-50736502D02*
X153449020Y-50408840D01*
X153449020Y-50408840D02*
X153449020Y-49657000D01*
X149225000Y-112235000D02*
X149225000Y-110871000D01*
X149225000Y-110871000D02*
X149352000Y-110744000D01*
X149352000Y-110744000D02*
X150241000Y-110744000D01*
X150241000Y-110744000D02*
X150495000Y-110490000D01*
X150495000Y-110490000D02*
X150495000Y-109634020D01*
X146685000Y-112235000D02*
X146685000Y-111760000D01*
X142875000Y-109634020D02*
X145415000Y-109634020D01*
X147955000Y-109634020D02*
X145415000Y-109634020D01*
X150495000Y-109634020D02*
X149743160Y-109634020D01*
X149743160Y-109634020D02*
X147955000Y-109634020D01*
D32*
X161310000Y-62103000D02*
X160548000Y-62103000D01*
X160548000Y-62103000D02*
X158770000Y-60325000D01*
X141115000Y-60325000D02*
X140990000Y-60325000D01*
X143326071Y-62536071D02*
X141115000Y-60325000D01*
X146233929Y-62536071D02*
X143326071Y-62536071D01*
X148445000Y-60325000D02*
X146233929Y-62536071D01*
X148570000Y-60325000D02*
X148445000Y-60325000D01*
X148570000Y-60218000D02*
X148570000Y-60325000D01*
X140970000Y-57150000D02*
X140970000Y-60305000D01*
X140970000Y-60305000D02*
X140990000Y-60325000D01*
X158750000Y-57150000D02*
X158750000Y-55118000D01*
X158750000Y-55118000D02*
X158369000Y-54737000D01*
X158750000Y-57150000D02*
X158750000Y-60305000D01*
X158750000Y-60305000D02*
X158770000Y-60325000D01*
D31*
X157578386Y-65278000D02*
X157456202Y-65400184D01*
X158750000Y-65278000D02*
X157578386Y-65278000D01*
D32*
X154940000Y-112235000D02*
X154940000Y-112710000D01*
X146685000Y-112710000D02*
X146685000Y-112235000D01*
X147340600Y-113365600D02*
X146685000Y-112710000D01*
X148569400Y-113365600D02*
X147340600Y-113365600D01*
X149225000Y-112710000D02*
X148569400Y-113365600D01*
D31*
X156840753Y-85724958D02*
X156840753Y-84782045D01*
X156840753Y-84782045D02*
X157242798Y-84380000D01*
X157242798Y-84380000D02*
X158100000Y-84380000D01*
X154619237Y-92325999D02*
X154368609Y-92075371D01*
X155650000Y-92472798D02*
X155503201Y-92325999D01*
X155503201Y-92325999D02*
X154619237Y-92325999D01*
X155650000Y-93330000D02*
X155650000Y-92472798D01*
D30*
X146700000Y-89880000D02*
X148093859Y-89880000D01*
X148614109Y-88819611D02*
X148112480Y-88317982D01*
X148112480Y-88317982D02*
X148112480Y-85947750D01*
X148614109Y-89359750D02*
X148614109Y-88819611D01*
X148112480Y-85947750D02*
X148112480Y-85443060D01*
X148093859Y-89880000D02*
X148614109Y-89359750D01*
D31*
X152654000Y-70418320D02*
X154943387Y-72707707D01*
X154943387Y-72707707D02*
X155300256Y-73064576D01*
X153797000Y-75946000D02*
X153797000Y-74567832D01*
X154943387Y-73421445D02*
X155300256Y-73064576D01*
X153797000Y-74567832D02*
X154943387Y-73421445D01*
X152654000Y-66040000D02*
X152654000Y-70418320D01*
D30*
X152234896Y-83189465D02*
X152234896Y-85137044D01*
X152234896Y-85137044D02*
X151902160Y-85469780D01*
X156980728Y-58801000D02*
X156980728Y-62032280D01*
X156980728Y-62032280D02*
X156625109Y-62387899D01*
D31*
X155150000Y-93330000D02*
X155150000Y-94283200D01*
X155150000Y-94283200D02*
X156751800Y-95885000D01*
X156751800Y-95885000D02*
X157816800Y-95885000D01*
X157816800Y-95885000D02*
X158770000Y-95885000D01*
X149517238Y-91269588D02*
X149509949Y-91276877D01*
X149249129Y-90405605D02*
X149149934Y-90504800D01*
X149249129Y-88860781D02*
X149249129Y-90405605D01*
X148090276Y-84538811D02*
X149308841Y-85757376D01*
X149509949Y-91276877D02*
X149417321Y-91276877D01*
X149149934Y-90504800D02*
X149149934Y-91009490D01*
X149308841Y-85757376D02*
X149308841Y-88801069D01*
X149417321Y-91276877D02*
X149149934Y-91009490D01*
X149308841Y-88801069D02*
X149249129Y-88860781D01*
X154933600Y-91464500D02*
X149712150Y-91464500D01*
X149712150Y-91464500D02*
X149517238Y-91269588D01*
X149650000Y-93330000D02*
X149650000Y-91402350D01*
X149650000Y-91402350D02*
X149517238Y-91269588D01*
X155184209Y-91715109D02*
X154933600Y-91464500D01*
D32*
X147967701Y-74180701D02*
X148463000Y-74676000D01*
X143891000Y-65532000D02*
X147967701Y-69608701D01*
X147967701Y-69608701D02*
X147967701Y-74180701D01*
X141122400Y-90170000D02*
X140970000Y-90170000D01*
D31*
X148296800Y-81930000D02*
X148650000Y-81930000D01*
D32*
X148463000Y-74676000D02*
X147958310Y-74676000D01*
X142754349Y-88538051D02*
X141122400Y-90170000D01*
X147958310Y-74676000D02*
X142754349Y-79879961D01*
D31*
X145452290Y-83880000D02*
X145096229Y-83523939D01*
X145096229Y-83523939D02*
X145096229Y-83160752D01*
X146326981Y-81930000D02*
X148296800Y-81930000D01*
X145096229Y-83160752D02*
X146326981Y-81930000D01*
X146700000Y-83880000D02*
X145452290Y-83880000D01*
D32*
X142754349Y-79879961D02*
X142754349Y-88538051D01*
D31*
X148090276Y-84317076D02*
X148090276Y-84538811D01*
X146700000Y-83880000D02*
X147653200Y-83880000D01*
X147653200Y-83880000D02*
X148090276Y-84317076D01*
D32*
X165176210Y-97438190D02*
X161281111Y-101333289D01*
X159319937Y-101941631D02*
X158575470Y-101197164D01*
X165176210Y-91516210D02*
X165176210Y-97438190D01*
X160027215Y-101941631D02*
X159319937Y-101941631D01*
X161281111Y-101333289D02*
X160635557Y-101333289D01*
X160635557Y-101333289D02*
X160027215Y-101941631D01*
X163830000Y-90170000D02*
X165176210Y-91516210D01*
X158575470Y-101197164D02*
X158575470Y-100692474D01*
D30*
X143510000Y-48387000D02*
X148996400Y-48387000D01*
X148996400Y-48387000D02*
X149352000Y-48031400D01*
X149352000Y-48031400D02*
X149352000Y-47371000D01*
X149352000Y-47371000D02*
X149758399Y-46964601D01*
X153511001Y-46964601D02*
X153750000Y-47203600D01*
X149758399Y-46964601D02*
X153511001Y-46964601D01*
X153750000Y-47203600D02*
X153750000Y-48006000D01*
D32*
X143510000Y-48387000D02*
X144490201Y-49367201D01*
X144490201Y-49367201D02*
X147482799Y-49367201D01*
X143490000Y-61448000D02*
X143891000Y-61849000D01*
X143490000Y-60325000D02*
X143490000Y-61448000D01*
X143510000Y-57150000D02*
X143510000Y-60305000D01*
X143510000Y-60305000D02*
X143490000Y-60325000D01*
X143510000Y-57150000D02*
X143510000Y-55651400D01*
X143510000Y-55651400D02*
X143510000Y-48387000D01*
D31*
X146685000Y-83865000D02*
X146700000Y-83880000D01*
X158100000Y-83880000D02*
X157146800Y-83880000D01*
X156229863Y-84796937D02*
X156229863Y-84874222D01*
X157146800Y-83880000D02*
X156229863Y-84796937D01*
X156150000Y-93330000D02*
X156150000Y-92376800D01*
X156150000Y-92376800D02*
X155488309Y-91715109D01*
X155488309Y-91715109D02*
X155184209Y-91715109D01*
X146431000Y-79756000D02*
X145542000Y-79756000D01*
X145097500Y-79311500D02*
X145097500Y-77470000D01*
X145542000Y-79756000D02*
X145097500Y-79311500D01*
D30*
X160655000Y-67310000D02*
X158399480Y-67310000D01*
X158399480Y-67310000D02*
X157629860Y-68079620D01*
X143852900Y-77162660D02*
X144209769Y-76805791D01*
X144209769Y-76805791D02*
X144209769Y-69896989D01*
X144209769Y-69896989D02*
X144056100Y-69743320D01*
X146700000Y-86880000D02*
X145797600Y-86880000D01*
X145797600Y-86880000D02*
X145695300Y-86982300D01*
X145695300Y-86982300D02*
X144957800Y-86982300D01*
X148762720Y-71752460D02*
X148762720Y-69677280D01*
X148762720Y-69677280D02*
X149860000Y-68580000D01*
D32*
X148590000Y-54991000D02*
X146710400Y-54991000D01*
X146710400Y-54991000D02*
X146050000Y-55651400D01*
X146050000Y-55651400D02*
X146050000Y-57150000D01*
X163830000Y-57150000D02*
X163830000Y-62083000D01*
X163830000Y-62083000D02*
X163810000Y-62103000D01*
X146050000Y-57150000D02*
X146050000Y-60305000D01*
X146050000Y-60305000D02*
X146070000Y-60325000D01*
X163830000Y-55118000D02*
X163830000Y-57150000D01*
X163830000Y-57150000D02*
X163830000Y-57930000D01*
X162703511Y-61633511D02*
X162703511Y-71345359D01*
X165201600Y-73843448D02*
X165201600Y-86410800D01*
X161270000Y-60325000D02*
X161395000Y-60325000D01*
X165201600Y-86410800D02*
X163982400Y-87630000D01*
X162703511Y-71345359D02*
X165201600Y-73843448D01*
X161395000Y-60325000D02*
X162703511Y-61633511D01*
X156210000Y-100431600D02*
X156210000Y-99060000D01*
X160845981Y-101841299D02*
X160237639Y-102449641D01*
X165684220Y-97756094D02*
X161599015Y-101841299D01*
X165684220Y-89331820D02*
X165684220Y-97756094D01*
X158228041Y-102449641D02*
X156210000Y-100431600D01*
X160237639Y-102449641D02*
X158228041Y-102449641D01*
X163982400Y-87630000D02*
X165684220Y-89331820D01*
X161599015Y-101841299D02*
X160845981Y-101841299D01*
X140817600Y-87630000D02*
X140970000Y-87630000D01*
X163830000Y-87630000D02*
X163982400Y-87630000D01*
X161290000Y-48387000D02*
X161290000Y-57150000D01*
X161290000Y-57150000D02*
X161290000Y-60305000D01*
X161290000Y-60305000D02*
X161270000Y-60325000D01*
D30*
X155304361Y-75462259D02*
X155304361Y-74435408D01*
X154884120Y-75882500D02*
X155304361Y-75462259D01*
X155304361Y-74435408D02*
X155304361Y-73930718D01*
X150495000Y-107535980D02*
X150495000Y-106784140D01*
X150495000Y-106784140D02*
X150495000Y-104855000D01*
X147955000Y-107535980D02*
X147955000Y-104855000D01*
X145415000Y-107535980D02*
X145415000Y-104855000D01*
X142875000Y-107535980D02*
X142875000Y-106784140D01*
X142875000Y-106784140D02*
X142875000Y-104855000D01*
X151050000Y-48006000D02*
X151050000Y-49356020D01*
X151050000Y-49356020D02*
X151350980Y-49657000D01*
X149145000Y-77470000D02*
X148242600Y-77470000D01*
X148242600Y-77470000D02*
X147002500Y-77470000D01*
X150469600Y-77584300D02*
X149259300Y-77584300D01*
X149259300Y-77584300D02*
X149145000Y-77470000D01*
X149511079Y-80951399D02*
X147868640Y-79308960D01*
X150650000Y-81930000D02*
X150650000Y-81118518D01*
X150650000Y-81118518D02*
X150482881Y-80951399D01*
X150482881Y-80951399D02*
X149511079Y-80951399D01*
X159258000Y-76227940D02*
X159614869Y-75871071D01*
X159614869Y-75871071D02*
X159713929Y-75871071D01*
X159713929Y-75871071D02*
X160655000Y-74930000D01*
X156452400Y-81930000D02*
X157137100Y-81245300D01*
X156150000Y-81930000D02*
X156452400Y-81930000D01*
X157137100Y-81245300D02*
X157137100Y-80573880D01*
X160655000Y-69850000D02*
X160655000Y-70692982D01*
X160858210Y-73837790D02*
X159923192Y-73837790D01*
X160655000Y-70692982D02*
X161899610Y-71937592D01*
X161899610Y-71937592D02*
X161899610Y-72842408D01*
X161899610Y-72842408D02*
X161853592Y-72842408D01*
X161853592Y-72842408D02*
X160858210Y-73837790D01*
X159923192Y-73837790D02*
X158219140Y-75541842D01*
X158219140Y-75541842D02*
X158219140Y-77574140D01*
X158219140Y-77574140D02*
X159900620Y-79255620D01*
X159002400Y-84880000D02*
X159517080Y-84365320D01*
X158100000Y-84880000D02*
X159002400Y-84880000D01*
X159517080Y-84365320D02*
X159517080Y-84355940D01*
X160807400Y-64770000D02*
X162000063Y-65962663D01*
X162000063Y-70705347D02*
X162000063Y-71210037D01*
X162000063Y-65962663D02*
X162000063Y-70705347D01*
X160655000Y-64770000D02*
X160807400Y-64770000D01*
X155078950Y-80619302D02*
X155583640Y-80619302D01*
X153558298Y-80619302D02*
X155078950Y-80619302D01*
X153150000Y-81027600D02*
X153558298Y-80619302D01*
X153150000Y-81930000D02*
X153150000Y-81027600D01*
X149081510Y-94929785D02*
X149081510Y-94972965D01*
X149702694Y-94308601D02*
X149081510Y-94929785D01*
X150073799Y-94308601D02*
X149702694Y-94308601D01*
X150150000Y-93330000D02*
X150150000Y-94232400D01*
X150150000Y-94232400D02*
X150073799Y-94308601D01*
D31*
X143510000Y-98907600D02*
X143510000Y-99060000D01*
D30*
X150309128Y-94537222D02*
X149952259Y-94894091D01*
X150650000Y-93330000D02*
X150650000Y-94196350D01*
X150650000Y-94196350D02*
X150309128Y-94537222D01*
D31*
X146050000Y-99060000D02*
X146050000Y-98907600D01*
D30*
X151150000Y-94524359D02*
X150867682Y-94806677D01*
X151150000Y-93330000D02*
X151150000Y-94524359D01*
D31*
X148590000Y-98907600D02*
X148590000Y-99060000D01*
D30*
X151650000Y-94655645D02*
X151730998Y-94736643D01*
X151650000Y-93330000D02*
X151650000Y-94655645D01*
D31*
X151650000Y-98540000D02*
X151130000Y-99060000D01*
D30*
X155650000Y-82832400D02*
X154342941Y-84139459D01*
X154342941Y-84139459D02*
X154072905Y-84139459D01*
X155650000Y-81930000D02*
X155650000Y-82832400D01*
X154072905Y-84139459D02*
X153568215Y-84139459D01*
X146402149Y-83223436D02*
X145897459Y-83223436D01*
X144990820Y-82232500D02*
X143573500Y-82232500D01*
X148267756Y-83223436D02*
X146402149Y-83223436D01*
X149141180Y-84096860D02*
X148267756Y-83223436D01*
X143573500Y-82232500D02*
X143461740Y-82344260D01*
X160102551Y-85279849D02*
X160102551Y-82591911D01*
X159002400Y-86380000D02*
X160102551Y-85279849D01*
X158100000Y-86380000D02*
X159002400Y-86380000D01*
X160102551Y-82591911D02*
X159904429Y-82393789D01*
X159904429Y-82393789D02*
X159547560Y-82036920D01*
X156790349Y-80033813D02*
X152995639Y-80033813D01*
X156835753Y-79988409D02*
X156790349Y-80033813D01*
X158079179Y-79988409D02*
X156835753Y-79988409D01*
X152948619Y-80080833D02*
X152591750Y-80437702D01*
X158767227Y-80676457D02*
X158079179Y-79988409D01*
X152995639Y-80033813D02*
X152948619Y-80080833D01*
X146213829Y-78482191D02*
X145856960Y-78839060D01*
X151443691Y-78482191D02*
X146213829Y-78482191D01*
X152059640Y-79098140D02*
X151443691Y-78482191D01*
X145140680Y-84686140D02*
X143626840Y-84686140D01*
X143626840Y-84686140D02*
X143609060Y-84703920D01*
X148918919Y-89486005D02*
X148918919Y-87947982D01*
X146700000Y-91380000D02*
X147602400Y-91380000D01*
X148918919Y-87947982D02*
X148697970Y-87727033D01*
X147602400Y-91380000D02*
X148664919Y-90317481D01*
X148664919Y-89740004D02*
X148918919Y-89486005D01*
X148697970Y-87727033D02*
X148697970Y-87222343D01*
X148664919Y-90317481D02*
X148664919Y-89740004D01*
X155684220Y-85580220D02*
X152918518Y-85580220D01*
X156707840Y-86603840D02*
X155684220Y-85580220D01*
X152918518Y-85580220D02*
X150953829Y-87544909D01*
X150539449Y-87544909D02*
X150182580Y-87188040D01*
X150953829Y-87544909D02*
X150539449Y-87544909D01*
X151087335Y-80063965D02*
X150730466Y-80420834D01*
X156709496Y-79683600D02*
X156664093Y-79729003D01*
X162661600Y-84074000D02*
X162661600Y-83704332D01*
X163677600Y-85090000D02*
X162661600Y-84074000D01*
X151422297Y-79729003D02*
X151087335Y-80063965D01*
X156664093Y-79729003D02*
X151422297Y-79729003D01*
X162661600Y-83704332D02*
X158640868Y-79683600D01*
X158640868Y-79683600D02*
X156709496Y-79683600D01*
X163830000Y-85090000D02*
X163677600Y-85090000D01*
X150921296Y-86589429D02*
X150921296Y-83632081D01*
X151011889Y-83541488D02*
X151368758Y-83184619D01*
X150921296Y-83632081D02*
X151011889Y-83541488D01*
X151516080Y-90533220D02*
X151516080Y-87810666D01*
X151516080Y-87810666D02*
X151697853Y-87628893D01*
X148650000Y-93330000D02*
X148508480Y-93330000D01*
X148508480Y-93330000D02*
X147972780Y-93865700D01*
D33*
X161290000Y-122555000D02*
X161290000Y-122402600D01*
X156210000Y-122555000D02*
X156210000Y-122402600D01*
X146050000Y-122402600D02*
X146050000Y-122555000D01*
X151130000Y-122555000D02*
X151130000Y-122402600D01*
D32*
X161290000Y-116840000D02*
X161290000Y-122555000D01*
D31*
X151003000Y-120777000D02*
X150498310Y-120777000D01*
X150498310Y-120777000D02*
X149707610Y-121567700D01*
X149707610Y-121567700D02*
X149707610Y-123170329D01*
X143510000Y-122707400D02*
X143510000Y-122555000D01*
X149707610Y-123170329D02*
X149052929Y-123825010D01*
X149052929Y-123825010D02*
X144627610Y-123825010D01*
X144627610Y-123825010D02*
X143510000Y-122707400D01*
D32*
X144759400Y-117635000D02*
X145415000Y-117635000D01*
X143510000Y-118884400D02*
X144759400Y-117635000D01*
X143510000Y-122555000D02*
X143510000Y-118884400D01*
X146685000Y-117635000D02*
X145415000Y-117635000D01*
X148590000Y-122555000D02*
X148590000Y-120650000D01*
X147955000Y-120015000D02*
X147955000Y-117635000D01*
X148590000Y-120650000D02*
X147955000Y-120015000D01*
X147955000Y-117635000D02*
X149225000Y-117635000D01*
D31*
X155067000Y-120777000D02*
X153670000Y-122174000D01*
X153670000Y-122174000D02*
X153670000Y-122555000D01*
D32*
X153670000Y-122555000D02*
X153670000Y-117635000D01*
X153670000Y-117635000D02*
X154940000Y-117635000D01*
D31*
X160274000Y-120650000D02*
X158750000Y-122174000D01*
X158750000Y-122174000D02*
X158750000Y-122555000D01*
D32*
X158135600Y-117635000D02*
X157480000Y-117635000D01*
X158750000Y-118249400D02*
X158135600Y-117635000D01*
X158750000Y-122555000D02*
X158750000Y-118249400D01*
X157480000Y-117635000D02*
X156210000Y-117635000D01*
D30*
X158100000Y-88880000D02*
X157146169Y-88880000D01*
X155806040Y-87630000D02*
X153419310Y-87630000D01*
X156276306Y-88010137D02*
X156186177Y-88010137D01*
X153419310Y-87630000D02*
X152781000Y-88268310D01*
X157146169Y-88880000D02*
X156276306Y-88010137D01*
X156186177Y-88010137D02*
X155806040Y-87630000D01*
X152781000Y-88268310D02*
X152781000Y-88773000D01*
X144272000Y-96774000D02*
X144272000Y-94488000D01*
X144272000Y-94488000D02*
X143637000Y-93853000D01*
X143510000Y-97536000D02*
X144272000Y-96774000D01*
X142621000Y-97536000D02*
X143510000Y-97536000D01*
X141986000Y-98171000D02*
X142621000Y-97536000D01*
X141986000Y-110355382D02*
X141986000Y-98171000D01*
X147137400Y-110490000D02*
X142120618Y-110490000D01*
X142120618Y-110490000D02*
X141986000Y-110355382D01*
X147955000Y-111307600D02*
X147137400Y-110490000D01*
X147955000Y-112235000D02*
X147955000Y-111307600D01*
X153670000Y-88392000D02*
X156209600Y-88392000D01*
X157197600Y-89380000D02*
X158100000Y-89380000D01*
X156209600Y-88392000D02*
X157197600Y-89380000D01*
X142391131Y-96622869D02*
X142748000Y-96266000D01*
X141376380Y-110607894D02*
X141376380Y-97637620D01*
X143003486Y-112235000D02*
X141376380Y-110607894D01*
X141376380Y-97637620D02*
X142391131Y-96622869D01*
X145415000Y-112235000D02*
X143003486Y-112235000D01*
X154174690Y-89535000D02*
X153670000Y-89535000D01*
X154551756Y-89535000D02*
X154174690Y-89535000D01*
X155896756Y-90880000D02*
X154551756Y-89535000D01*
X158100000Y-90880000D02*
X155896756Y-90880000D01*
X141046190Y-111981918D02*
X141046190Y-97114640D01*
X141046190Y-97114640D02*
X142882940Y-95277890D01*
X143082800Y-95277890D02*
X143587490Y-95277890D01*
X145415000Y-116350728D02*
X141046190Y-111981918D01*
X142882940Y-95277890D02*
X143082800Y-95277890D01*
X143195333Y-96944550D02*
X143552202Y-96587681D01*
X141994361Y-110794809D02*
X141681190Y-110481638D01*
X145461292Y-110794810D02*
X141994361Y-110794809D01*
X146156399Y-111489917D02*
X145461292Y-110794810D01*
X146156399Y-113192881D02*
X146156399Y-111489917D01*
X142781384Y-96944550D02*
X143195333Y-96944550D01*
X147263518Y-114300000D02*
X146156399Y-113192881D01*
X148700728Y-114300000D02*
X147263518Y-114300000D01*
X141681191Y-98044743D02*
X142781384Y-96944550D01*
X141681190Y-110481638D02*
X141681191Y-98044743D01*
X153670000Y-90805000D02*
X153994638Y-91129638D01*
X155715598Y-91380000D02*
X158100000Y-91380000D01*
X153994638Y-91129638D02*
X155465236Y-91129638D01*
X155465236Y-91129638D02*
X155715598Y-91380000D01*
X160802320Y-92024970D02*
X160802320Y-89679920D01*
X160802320Y-89679920D02*
X159002400Y-87880000D01*
X159002400Y-87880000D02*
X158100000Y-87880000D01*
X161406840Y-93134180D02*
X161406840Y-92629490D01*
X161406840Y-92629490D02*
X160802320Y-92024970D01*
X162938460Y-102593650D02*
X162938460Y-101518720D01*
X162938460Y-101518720D02*
X163281360Y-101175820D01*
X161132520Y-109324140D02*
X160362899Y-108554519D01*
X160362899Y-108554519D02*
X160362899Y-105169211D01*
X160362899Y-105169211D02*
X162938460Y-102593650D01*
X156662400Y-112235000D02*
X156834840Y-112062560D01*
X156210000Y-112235000D02*
X156662400Y-112235000D01*
X156834840Y-112062560D02*
X156834840Y-110964980D01*
X159895558Y-109410518D02*
X160252427Y-109767387D01*
X159895558Y-105205486D02*
X159895558Y-109410518D01*
X160213040Y-104888004D02*
X159895558Y-105205486D01*
X160213040Y-103576120D02*
X160213040Y-104888004D01*
X154449780Y-110980220D02*
X154449780Y-109590840D01*
X154449780Y-109590840D02*
X154619960Y-109420660D01*
X153670000Y-112235000D02*
X153670000Y-111760000D01*
X153670000Y-111760000D02*
X154449780Y-110980220D01*
X160197790Y-100731330D02*
X159674560Y-101254560D01*
X158100000Y-88380000D02*
X159002400Y-88380000D01*
X159002400Y-88380000D02*
X160197790Y-89575390D01*
X160197790Y-89575390D02*
X160197790Y-100731330D01*
X159395972Y-103863556D02*
X159395972Y-110060047D01*
X159395972Y-110060047D02*
X159465754Y-110129829D01*
X158100000Y-89880000D02*
X159002400Y-89880000D01*
X159892980Y-100000247D02*
X159612300Y-100280927D01*
X159002400Y-89880000D02*
X159892980Y-90770580D01*
X159892980Y-90770580D02*
X159892980Y-100000247D01*
X153113740Y-114584480D02*
X153618430Y-114584480D01*
X153618430Y-114584480D02*
X154583630Y-113619280D01*
X154583630Y-113619280D02*
X156204920Y-113619280D01*
X155100020Y-96704650D02*
X155100020Y-96199960D01*
X155100020Y-106630593D02*
X155100020Y-96704650D01*
X159184727Y-110715300D02*
X155100020Y-106630593D01*
X159470274Y-110715300D02*
X159184727Y-110715300D01*
X162534601Y-115196619D02*
X162534601Y-113779627D01*
X162186619Y-115544601D02*
X162534601Y-115196619D01*
X154271979Y-115544601D02*
X162186619Y-115544601D01*
X153555700Y-116260880D02*
X154271979Y-115544601D01*
X162534601Y-113779627D02*
X159470274Y-110715300D01*
X155481020Y-89291160D02*
X156569860Y-90380000D01*
X156569860Y-90380000D02*
X158100000Y-90380000D01*
X152112980Y-89685630D02*
X152112980Y-88211660D01*
X152112980Y-88211660D02*
X153365200Y-86959440D01*
X152560020Y-90637360D02*
X152560020Y-90132670D01*
X152560020Y-90132670D02*
X152112980Y-89685630D01*
X150037790Y-100795390D02*
X150495000Y-101252600D01*
X150037790Y-98810772D02*
X150037790Y-100795390D01*
X150495000Y-101252600D02*
X150495000Y-102155000D01*
X145542000Y-94314982D02*
X150037790Y-98810772D01*
X145542000Y-89135600D02*
X145542000Y-94314982D01*
X145797600Y-88880000D02*
X145542000Y-89135600D01*
X146700000Y-88880000D02*
X145797600Y-88880000D01*
X147152600Y-101252600D02*
X147955000Y-102055000D01*
X147152600Y-96356648D02*
X147152600Y-101252600D01*
X145237191Y-94441239D02*
X147152600Y-96356648D01*
X145237190Y-89009344D02*
X145237191Y-94441239D01*
X145237191Y-88940409D02*
X145237190Y-89009344D01*
X147955000Y-102055000D02*
X147955000Y-102155000D01*
X145797600Y-88380000D02*
X145237191Y-88940409D01*
X146700000Y-88380000D02*
X145797600Y-88380000D01*
X144932380Y-100769980D02*
X145415000Y-101252600D01*
X144932380Y-93724512D02*
X144932380Y-100769980D01*
X144805382Y-93597514D02*
X144932380Y-93724512D01*
X144805382Y-88872218D02*
X144805382Y-93597514D01*
X145797600Y-87880000D02*
X144805382Y-88872218D01*
X146700000Y-87880000D02*
X145797600Y-87880000D01*
X145415000Y-101252600D02*
X145415000Y-102155000D01*
X146700000Y-87380000D02*
X145797600Y-87380000D01*
X144602201Y-93825399D02*
X144602201Y-100327799D01*
X145797600Y-87380000D02*
X144500573Y-88677027D01*
X144500573Y-93723771D02*
X144602201Y-93825399D01*
X144602201Y-100327799D02*
X142875000Y-102055000D01*
X144500573Y-88677027D02*
X144500573Y-93723771D01*
X142875000Y-102055000D02*
X142875000Y-102155000D01*
D31*
X152150000Y-93330000D02*
X152150000Y-94283200D01*
X152150000Y-94283200D02*
X152552390Y-94685590D01*
X152552390Y-106832390D02*
X152971501Y-107251501D01*
X152552390Y-94685590D02*
X152552390Y-106832390D01*
X152971501Y-107251501D02*
X153670000Y-107950000D01*
D30*
X154432000Y-70408729D02*
X154432000Y-68280599D01*
X155883544Y-71860273D02*
X154432000Y-70408729D01*
X154432000Y-68280599D02*
X154432000Y-67775909D01*
X155889832Y-77373608D02*
X155889832Y-72371251D01*
X155889832Y-72787654D02*
X155883544Y-72781366D01*
X154335480Y-78927960D02*
X155889832Y-77373608D01*
X155883544Y-72781366D02*
X155883544Y-71860273D01*
X155889832Y-72371251D02*
X155883544Y-72364963D01*
X155883544Y-72364963D02*
X155883544Y-71860273D01*
X150150000Y-81930000D02*
X150150000Y-83231160D01*
X150150000Y-83231160D02*
X150334980Y-83416140D01*
X155753798Y-78786663D02*
X155396929Y-79143532D01*
X156748766Y-77791695D02*
X155753798Y-78786663D01*
X156748766Y-72364864D02*
X156748766Y-77791695D01*
X149761346Y-83897861D02*
X150118215Y-84254730D01*
X149650000Y-82832400D02*
X149744429Y-82926829D01*
X149650000Y-81930000D02*
X149650000Y-82832400D01*
X149744429Y-82926829D02*
X149744429Y-83880944D01*
X149744429Y-83880944D02*
X149761346Y-83897861D01*
X155702000Y-67691000D02*
X156748766Y-68737766D01*
X156748766Y-68737766D02*
X156748766Y-71860174D01*
X156748766Y-71860174D02*
X156748766Y-72364864D01*
X153416000Y-65151000D02*
X153416000Y-62509742D01*
X153416000Y-62509742D02*
X154415124Y-61510618D01*
X153416000Y-65151000D02*
X153705728Y-65440728D01*
X153705728Y-65440728D02*
X156591000Y-65440728D01*
M02*
