%FSLAX46Y46*%
G04 Gerber Fmt 4.6, Leading zero omitted, Abs format (unit mm)*
G04 Created by KiCad (PCBNEW (20140926 BZR5148)-product) date Fri 30 Jan 2015 01:27:10 AM CST*
%MOMM*%
G01*
G04 APERTURE LIST*
%ADD10C,0.100000*%
%ADD11R,2.032000X1.727200*%
%ADD12O,2.032000X1.727200*%
%ADD13R,1.500000X1.250000*%
%ADD14R,1.250000X1.500000*%
%ADD15R,2.032000X1.524000*%
%ADD16R,2.032000X2.032000*%
%ADD17O,2.032000X2.032000*%
%ADD18R,1.727200X2.032000*%
%ADD19O,1.727200X2.032000*%
%ADD20R,0.398780X1.501140*%
%ADD21R,1.300000X1.500000*%
%ADD22R,1.500000X1.300000*%
%ADD23C,1.397000*%
%ADD24R,0.530000X1.310000*%
%ADD25R,0.650000X0.350000*%
%ADD26R,0.350000X0.650000*%
%ADD27R,0.410000X0.770000*%
%ADD28R,0.770000X0.410000*%
%ADD29C,3.500000*%
%ADD30C,0.713740*%
%ADD31C,0.152400*%
%ADD32C,0.203200*%
%ADD33C,0.355600*%
G04 APERTURE END LIST*
D10*
D11*
X160528000Y-77470000D03*
D12*
X160528000Y-74930000D03*
X160528000Y-72390000D03*
X160528000Y-69850000D03*
X160528000Y-67310000D03*
X160528000Y-64770000D03*
D13*
X147300000Y-60325000D03*
X144800000Y-60325000D03*
X147300000Y-63500000D03*
X144800000Y-63500000D03*
X156190000Y-57785000D03*
X153690000Y-57785000D03*
D14*
X158115000Y-61575000D03*
X158115000Y-59075000D03*
X146685000Y-93325000D03*
X146685000Y-90825000D03*
D13*
X144800000Y-67945000D03*
X147300000Y-67945000D03*
X158095000Y-93345000D03*
X155595000Y-93345000D03*
D14*
X158115000Y-81935000D03*
X158115000Y-84435000D03*
D13*
X146705000Y-81915000D03*
X149205000Y-81915000D03*
X154960000Y-77470000D03*
X157460000Y-77470000D03*
X154960000Y-69215000D03*
X157460000Y-69215000D03*
D15*
X149860000Y-75819000D03*
X149860000Y-79121000D03*
D16*
X151130000Y-45720000D03*
D17*
X153670000Y-45720000D03*
D16*
X161290000Y-116840000D03*
D17*
X161290000Y-114300000D03*
D18*
X143510000Y-122555000D03*
D19*
X146050000Y-122555000D03*
X148590000Y-122555000D03*
X151130000Y-122555000D03*
X153670000Y-122555000D03*
X156210000Y-122555000D03*
X158750000Y-122555000D03*
X161290000Y-122555000D03*
D20*
X147970240Y-117535960D03*
X147320000Y-117535960D03*
X146669760Y-117535960D03*
X146669760Y-114874040D03*
X147320000Y-114874040D03*
X147970240Y-114874040D03*
X154924760Y-114874040D03*
X155575000Y-114874040D03*
X156225240Y-114874040D03*
X156225240Y-117535960D03*
X155575000Y-117535960D03*
X154924760Y-117535960D03*
D21*
X152400000Y-71675000D03*
X152400000Y-74375000D03*
X149860000Y-116920000D03*
X149860000Y-114220000D03*
D22*
X146097000Y-119380000D03*
X148797000Y-119380000D03*
X154352000Y-119380000D03*
X157052000Y-119380000D03*
D21*
X158115000Y-116920000D03*
X158115000Y-114220000D03*
D23*
X161290000Y-102870000D03*
X161290000Y-107950000D03*
X153670000Y-102870000D03*
X153670000Y-107950000D03*
X149860000Y-68580000D03*
X149860000Y-73660000D03*
X142240000Y-68580000D03*
X142240000Y-73660000D03*
D24*
X154335000Y-64205000D03*
X155585000Y-64205000D03*
X156835000Y-64205000D03*
X158085000Y-64205000D03*
X158085000Y-66605000D03*
X156835000Y-66605000D03*
X155585000Y-66605000D03*
X154335000Y-66605000D03*
D11*
X140970000Y-82550000D03*
D12*
X140970000Y-85090000D03*
X140970000Y-87630000D03*
X140970000Y-90170000D03*
X140970000Y-92710000D03*
D11*
X163830000Y-82550000D03*
D12*
X163830000Y-85090000D03*
X163830000Y-87630000D03*
X163830000Y-90170000D03*
X163830000Y-92710000D03*
D18*
X143510000Y-99060000D03*
D19*
X146050000Y-99060000D03*
X148590000Y-99060000D03*
X151130000Y-99060000D03*
X153670000Y-99060000D03*
X156210000Y-99060000D03*
X158750000Y-99060000D03*
X161290000Y-99060000D03*
D25*
X153565000Y-61710000D03*
X153565000Y-61210000D03*
X153565000Y-60710000D03*
X153565000Y-60210000D03*
D26*
X154190000Y-59585000D03*
X154690000Y-59585000D03*
X155190000Y-59585000D03*
X155690000Y-59585000D03*
D25*
X156315000Y-60210000D03*
X156315000Y-60710000D03*
X156315000Y-61210000D03*
X156315000Y-61710000D03*
D26*
X155690000Y-62335000D03*
X155190000Y-62335000D03*
X154690000Y-62335000D03*
X154190000Y-62335000D03*
D27*
X155235000Y-71225000D03*
X155885000Y-71225000D03*
X156535000Y-71225000D03*
X157185000Y-71225000D03*
D28*
X158010000Y-72050000D03*
X158010000Y-72700000D03*
X158010000Y-73350000D03*
X158010000Y-74000000D03*
D27*
X157185000Y-74825000D03*
X156535000Y-74825000D03*
X155885000Y-74825000D03*
X155235000Y-74825000D03*
D28*
X154410000Y-74000000D03*
X154410000Y-73350000D03*
X154410000Y-72700000D03*
X154410000Y-72050000D03*
D29*
X152400000Y-53340000D03*
D30*
X149860000Y-90424000D03*
X148012350Y-89133500D03*
X149886748Y-88999040D03*
X148441119Y-91507285D03*
X149158939Y-83199156D03*
X152328880Y-75892660D03*
X143897263Y-86753679D03*
X151790400Y-96822260D03*
X156841967Y-85661614D03*
X156464135Y-87435000D03*
X154617420Y-86385400D03*
X144470120Y-80545940D03*
X150065740Y-60322460D03*
X158369000Y-54737000D03*
X157456202Y-65400184D03*
X158750000Y-65278000D03*
X155480728Y-60706000D03*
X154368609Y-92075371D03*
X155300256Y-73064576D03*
X151902160Y-85469780D03*
X152234896Y-83189465D03*
X148112480Y-85443060D03*
X153797000Y-75946000D03*
X152654000Y-66040000D03*
X156625109Y-62387899D03*
X156980728Y-58801000D03*
X149149934Y-91009490D03*
X143891000Y-65532000D03*
X148090276Y-84538811D03*
X158575470Y-100692474D03*
X148463000Y-74676000D03*
X143891000Y-61849000D03*
X156229863Y-84874222D03*
X155184209Y-91715109D03*
X146431000Y-79756000D03*
X157629860Y-68079620D03*
X144056100Y-69743320D03*
X143852900Y-77162660D03*
X144957800Y-86982300D03*
X148762720Y-71752460D03*
X148590000Y-54991000D03*
X163830000Y-55118000D03*
X155304361Y-73930718D03*
X154884120Y-75882500D03*
X150469600Y-77584300D03*
X147868640Y-79308960D03*
X159228198Y-76183535D03*
X157137100Y-80573880D03*
X159900620Y-79255620D03*
X159517080Y-84355940D03*
X162000063Y-71210037D03*
X155583640Y-80619302D03*
X149081510Y-94972965D03*
X149952259Y-94894091D03*
X150867682Y-94806677D03*
X151730998Y-94736643D03*
X153568215Y-84139459D03*
X145140711Y-82232500D03*
X145897459Y-83223436D03*
X143461740Y-82344260D03*
X149141180Y-84096860D03*
X152591750Y-80437702D03*
X143609060Y-84703920D03*
X145140680Y-84686140D03*
X145856960Y-78839060D03*
X152059640Y-79098140D03*
X158767227Y-80676457D03*
X159547560Y-82036920D03*
X148697970Y-87222343D03*
X150182580Y-87188040D03*
X156707840Y-86603840D03*
X151368758Y-83184619D03*
X150921296Y-86589429D03*
X150730466Y-80420834D03*
X151697853Y-87628893D03*
X151516080Y-90533220D03*
X147972780Y-93865700D03*
X151003000Y-120777000D03*
X155067000Y-120777000D03*
X160274000Y-120650000D03*
X143637000Y-93853000D03*
X152781000Y-88773000D03*
X153670000Y-88392000D03*
X142748000Y-96266000D03*
X143587490Y-95277890D03*
X145415000Y-116350728D03*
X153670000Y-89535000D03*
X143552202Y-96587681D03*
X153670000Y-90805000D03*
X148700728Y-114300000D03*
X161406840Y-93134180D03*
X163281360Y-101175820D03*
X161132520Y-109324140D03*
X156834840Y-110964980D03*
X160252427Y-109767387D03*
X154619960Y-109420660D03*
X160213040Y-103576120D03*
X159674560Y-101254560D03*
X159465754Y-110129829D03*
X159395972Y-103863556D03*
X159612300Y-100280927D03*
X156204920Y-113619280D03*
X153113740Y-114584480D03*
X155100020Y-96199960D03*
X155481020Y-89291160D03*
X153365200Y-86959440D03*
X152560020Y-90637360D03*
X153555700Y-116260880D03*
X154432000Y-67775909D03*
X155883544Y-71860273D03*
X154335480Y-78927960D03*
X150334980Y-83416140D03*
X155396929Y-79143532D03*
X150118215Y-84254730D03*
X156748766Y-72364864D03*
X156591000Y-65440728D03*
X154415124Y-61510618D03*
X155702000Y-67691000D03*
D31*
X149382058Y-88999040D02*
X149886748Y-88999040D01*
X148082000Y-89154000D02*
X148236960Y-88999040D01*
X148236960Y-88999040D02*
X149382058Y-88999040D01*
X149860000Y-90424000D02*
X147086000Y-90424000D01*
D32*
X147758834Y-90825000D02*
X148084250Y-91150416D01*
X148084250Y-91150416D02*
X148441119Y-91507285D01*
X146685000Y-90825000D02*
X147758834Y-90825000D01*
D31*
X147086000Y-90424000D02*
X146685000Y-90825000D01*
X158115000Y-114220000D02*
X161210000Y-114220000D01*
X161210000Y-114220000D02*
X161290000Y-114300000D01*
X158195000Y-114300000D02*
X158115000Y-114220000D01*
D32*
X154410000Y-74000000D02*
X154410000Y-74408200D01*
X154826800Y-74825000D02*
X155235000Y-74825000D01*
X154410000Y-74408200D02*
X154826800Y-74825000D01*
D33*
X154617420Y-86385400D02*
X154112730Y-86385400D01*
X150841136Y-85907031D02*
X150566103Y-85907031D01*
X150232109Y-86241025D02*
X144482649Y-86241025D01*
X150566103Y-85907031D02*
X150232109Y-86241025D01*
X151248975Y-85883749D02*
X150864418Y-85883749D01*
D32*
X149205000Y-81915000D02*
X149205000Y-83153095D01*
X149205000Y-83153095D02*
X149158939Y-83199156D01*
D33*
X151541077Y-86175851D02*
X151248975Y-85883749D01*
X154112730Y-86385400D02*
X153903181Y-86175851D01*
X150864418Y-85883749D02*
X150841136Y-85907031D01*
X144482649Y-86241025D02*
X144268375Y-86455299D01*
X153903181Y-86175851D02*
X151541077Y-86175851D01*
D31*
X152328880Y-75892660D02*
X152328880Y-74446120D01*
X152328880Y-74446120D02*
X152400000Y-74375000D01*
D33*
X144148811Y-81371939D02*
X144148811Y-83356427D01*
X144826989Y-80189071D02*
X144470120Y-80545940D01*
X144826989Y-76246989D02*
X144826989Y-80189071D01*
X144470120Y-80545940D02*
X144470120Y-81050630D01*
X144470120Y-81050630D02*
X144148811Y-81371939D01*
X144306291Y-86417383D02*
X144268375Y-86455299D01*
X144306291Y-83513907D02*
X144306291Y-86417383D01*
X142240000Y-73660000D02*
X144826989Y-76246989D01*
X144148811Y-83356427D02*
X144306291Y-83513907D01*
X144268375Y-86455299D02*
X143969995Y-86753679D01*
X143969995Y-86753679D02*
X143897263Y-86753679D01*
X149860000Y-72672172D02*
X149860000Y-73660000D01*
X147300000Y-68925600D02*
X149860000Y-71485600D01*
X147300000Y-67945000D02*
X147300000Y-68925600D01*
X149860000Y-71485600D02*
X149860000Y-72672172D01*
X144800000Y-65570000D02*
X147175000Y-67945000D01*
X147175000Y-67945000D02*
X147300000Y-67945000D01*
X144800000Y-63500000D02*
X144800000Y-65570000D01*
D31*
X157460000Y-76378120D02*
X157185000Y-76103120D01*
X157185000Y-76103120D02*
X157185000Y-74825000D01*
X157460000Y-77470000D02*
X157460000Y-76378120D01*
D32*
X152475430Y-97002600D02*
X156845000Y-97002600D01*
X156845000Y-97002600D02*
X158750000Y-98907600D01*
X158750000Y-98907600D02*
X158750000Y-99060000D01*
X151790400Y-96822260D02*
X152295090Y-96822260D01*
X152295090Y-96822260D02*
X152475430Y-97002600D01*
X154368609Y-92075371D02*
X154368609Y-91570681D01*
X156096969Y-85901922D02*
X156337277Y-85661614D01*
D33*
X163677600Y-92710000D02*
X158402600Y-87435000D01*
X163830000Y-92710000D02*
X163677600Y-92710000D01*
D32*
X156337277Y-85661614D02*
X156841967Y-85661614D01*
X158115000Y-84435000D02*
X158115000Y-84560000D01*
X158115000Y-84560000D02*
X157013386Y-85661614D01*
X154368609Y-91570681D02*
X156096969Y-89842321D01*
X157013386Y-85661614D02*
X156841967Y-85661614D01*
X156096969Y-89842321D02*
X156096969Y-85901922D01*
D33*
X158402600Y-87435000D02*
X156968825Y-87435000D01*
X156968825Y-87435000D02*
X156464135Y-87435000D01*
X154368499Y-103568499D02*
X153670000Y-102870000D01*
X155350627Y-104550627D02*
X154368499Y-103568499D01*
X160597201Y-104550627D02*
X155350627Y-104550627D01*
X161290000Y-103857828D02*
X160597201Y-104550627D01*
X161290000Y-102870000D02*
X161290000Y-103857828D01*
X162509200Y-100431600D02*
X162509200Y-101650800D01*
X161290000Y-99212400D02*
X162509200Y-100431600D01*
X162509200Y-101650800D02*
X161988499Y-102171501D01*
X161988499Y-102171501D02*
X161290000Y-102870000D01*
X161290000Y-99060000D02*
X161290000Y-99212400D01*
D32*
X155836621Y-113008409D02*
X157003409Y-113008409D01*
X158115000Y-114120000D02*
X158115000Y-114220000D01*
X157003409Y-113008409D02*
X158115000Y-114120000D01*
X154924760Y-113920270D02*
X155836621Y-113008409D01*
X154924760Y-114874040D02*
X154924760Y-113920270D01*
X158750000Y-97328200D02*
X158750000Y-97840800D01*
X155595000Y-93345000D02*
X155595000Y-94173200D01*
X158750000Y-97840800D02*
X158750000Y-99060000D01*
X155595000Y-94173200D02*
X158750000Y-97328200D01*
D33*
X161290000Y-103857828D02*
X162318701Y-104886529D01*
X162318701Y-104886529D02*
X162318701Y-113271299D01*
X162318701Y-113271299D02*
X162305999Y-113284001D01*
X162305999Y-113284001D02*
X161290000Y-114300000D01*
X149860000Y-73660000D02*
X148872172Y-73660000D01*
X148872172Y-73660000D02*
X142240000Y-73660000D01*
X149860000Y-73660000D02*
X151685000Y-73660000D01*
X151685000Y-73660000D02*
X152400000Y-74375000D01*
X150065740Y-60322460D02*
X150065740Y-59329320D01*
X144800000Y-59372820D02*
X144800000Y-60325000D01*
X145417540Y-58755280D02*
X144800000Y-59372820D01*
X149491700Y-58755280D02*
X145417540Y-58755280D01*
X150065740Y-59329320D02*
X149491700Y-58755280D01*
X150065740Y-60322460D02*
X150065740Y-60827150D01*
X150065740Y-60827150D02*
X148535880Y-62357010D01*
X148535880Y-62357010D02*
X146067990Y-62357010D01*
X146067990Y-62357010D02*
X144925000Y-63500000D01*
X144925000Y-63500000D02*
X144800000Y-63500000D01*
D32*
X147323230Y-113266800D02*
X146669760Y-113920270D01*
X149860000Y-114120000D02*
X149006800Y-113266800D01*
X149006800Y-113266800D02*
X147323230Y-113266800D01*
X149860000Y-114220000D02*
X149860000Y-114120000D01*
X146669760Y-113920270D02*
X146669760Y-114874040D01*
X147970240Y-117535960D02*
X147970240Y-116209760D01*
X147970240Y-116209760D02*
X149860000Y-114320000D01*
X149860000Y-114320000D02*
X149860000Y-114220000D01*
X148797000Y-119380000D02*
X148697000Y-119380000D01*
X148697000Y-119380000D02*
X147970240Y-118653240D01*
X147970240Y-118653240D02*
X147970240Y-118489730D01*
X147970240Y-118489730D02*
X147970240Y-117535960D01*
X156225240Y-117535960D02*
X156225240Y-118553240D01*
X156225240Y-118553240D02*
X157052000Y-119380000D01*
X158115000Y-114220000D02*
X158115000Y-114320000D01*
X158115000Y-114320000D02*
X156225240Y-116209760D01*
X156225240Y-116209760D02*
X156225240Y-116582190D01*
X156225240Y-116582190D02*
X156225240Y-117535960D01*
X149860000Y-114220000D02*
X149860000Y-106680000D01*
X149860000Y-106680000D02*
X153670000Y-102870000D01*
D33*
X155448000Y-51816000D02*
X155448000Y-47498000D01*
X155448000Y-47498000D02*
X153670000Y-45720000D01*
X158369000Y-54737000D02*
X155448000Y-51816000D01*
D32*
X156835000Y-64595000D02*
X157456202Y-65216202D01*
X156835000Y-64205000D02*
X156835000Y-64595000D01*
X157456202Y-65216202D02*
X157456202Y-65400184D01*
X156843200Y-61210000D02*
X157235999Y-61602799D01*
X156315000Y-61210000D02*
X156843200Y-61210000D01*
X157235999Y-62528201D02*
X157826798Y-63119000D01*
X157235999Y-61602799D02*
X157235999Y-62528201D01*
X158750000Y-63492798D02*
X158750000Y-65278000D01*
X158376202Y-63119000D02*
X158750000Y-63492798D01*
X157826798Y-63119000D02*
X158376202Y-63119000D01*
X155246798Y-56896000D02*
X157133202Y-56896000D01*
X157133202Y-56896000D02*
X158115000Y-57877798D01*
X158115000Y-57877798D02*
X158115000Y-58121800D01*
X158115000Y-58121800D02*
X158115000Y-59075000D01*
X155067000Y-58494202D02*
X155067000Y-57075798D01*
X155067000Y-57075798D02*
X155246798Y-56896000D01*
X155736202Y-58674000D02*
X155246798Y-58674000D01*
X155246798Y-58674000D02*
X155067000Y-58494202D01*
X156315000Y-59252798D02*
X155736202Y-58674000D01*
X156315000Y-60210000D02*
X156315000Y-59252798D01*
X156315000Y-60210000D02*
X155786800Y-60210000D01*
X155786800Y-60210000D02*
X155480728Y-60516072D01*
X155480728Y-60516072D02*
X155480728Y-60706000D01*
X155575000Y-60998200D02*
X155575000Y-60800272D01*
X155575000Y-60800272D02*
X155480728Y-60706000D01*
X156315000Y-61210000D02*
X155786800Y-61210000D01*
X155786800Y-61210000D02*
X155575000Y-60998200D01*
X154368609Y-92118609D02*
X155595000Y-93345000D01*
X154368609Y-92075371D02*
X154368609Y-92118609D01*
X160223200Y-99060000D02*
X158750000Y-99060000D01*
X161290000Y-99060000D02*
X160223200Y-99060000D01*
X152775000Y-74000000D02*
X152400000Y-74375000D01*
X154410000Y-74000000D02*
X152775000Y-74000000D01*
X155885000Y-74825000D02*
X155235000Y-74825000D01*
X156535000Y-74825000D02*
X155885000Y-74825000D01*
X156535000Y-74825000D02*
X157185000Y-74825000D01*
X157185000Y-74825000D02*
X157712000Y-74825000D01*
X158010000Y-74527000D02*
X158010000Y-74000000D01*
X157712000Y-74825000D02*
X158010000Y-74527000D01*
X160502600Y-72390000D02*
X160655000Y-72390000D01*
X159045000Y-74000000D02*
X159435800Y-73609200D01*
X159435800Y-73609200D02*
X159435800Y-73456800D01*
X159435800Y-73456800D02*
X160502600Y-72390000D01*
X158010000Y-74000000D02*
X159045000Y-74000000D01*
X155300256Y-73002056D02*
X155300256Y-73064576D01*
X154998200Y-72700000D02*
X155300256Y-73002056D01*
X154410000Y-72700000D02*
X154998200Y-72700000D01*
D31*
X150672796Y-85500621D02*
X150703637Y-85469780D01*
X148674731Y-85500621D02*
X150672796Y-85500621D01*
X150703637Y-85469780D02*
X151397470Y-85469780D01*
X148617170Y-85443060D02*
X148674731Y-85500621D01*
X148112480Y-85443060D02*
X148617170Y-85443060D01*
X149860000Y-79121000D02*
X151028400Y-79121000D01*
X151028400Y-79121000D02*
X151860877Y-79953477D01*
X151860877Y-82815446D02*
X151878027Y-82832596D01*
X151860877Y-79953477D02*
X151860877Y-82815446D01*
X151397470Y-85469780D02*
X151902160Y-85469780D01*
X151878027Y-82832596D02*
X152234896Y-83189465D01*
D32*
X152760680Y-63098880D02*
X152359560Y-63500000D01*
X152359560Y-63500000D02*
X147300000Y-63500000D01*
X152654000Y-66040000D02*
X149011800Y-66040000D01*
X149011800Y-66040000D02*
X147300000Y-64328200D01*
X147300000Y-64328200D02*
X147300000Y-63500000D01*
X153565000Y-61210000D02*
X152906920Y-61210000D01*
X152906920Y-61210000D02*
X152760680Y-61356240D01*
X152760680Y-61356240D02*
X152760680Y-63098880D01*
X153797000Y-76403200D02*
X153797000Y-75946000D01*
X151079200Y-79121000D02*
X153797000Y-76403200D01*
X149860000Y-79121000D02*
X151079200Y-79121000D01*
X154410000Y-72291800D02*
X154432000Y-72269800D01*
X154410000Y-72700000D02*
X154410000Y-72291800D01*
X154432000Y-72072000D02*
X154410000Y-72050000D01*
X154432000Y-72269800D02*
X154432000Y-72072000D01*
X155585000Y-64205000D02*
X154335000Y-64205000D01*
X152654000Y-65417800D02*
X152654000Y-66040000D01*
X153866800Y-64205000D02*
X152654000Y-65417800D01*
X153866800Y-64205000D02*
X154335000Y-64205000D01*
D31*
X156315000Y-61710000D02*
X156315000Y-62077790D01*
X156315000Y-62077790D02*
X156625109Y-62387899D01*
X156349038Y-58674000D02*
X156301600Y-58674000D01*
X156301600Y-58674000D02*
X156190000Y-58562400D01*
X156190000Y-58562400D02*
X156190000Y-57785000D01*
X156980728Y-58801000D02*
X156476038Y-58801000D01*
X156476038Y-58801000D02*
X156349038Y-58674000D01*
X155690000Y-59107600D02*
X155690000Y-59585000D01*
X155586610Y-59004210D02*
X155690000Y-59107600D01*
X155034210Y-59004210D02*
X155586610Y-59004210D01*
X153690000Y-57785000D02*
X153815000Y-57785000D01*
X153815000Y-57785000D02*
X155034210Y-59004210D01*
D32*
X155702000Y-59573000D02*
X155690000Y-59585000D01*
X153690000Y-57785000D02*
X154347202Y-57785000D01*
D31*
X158115000Y-61575000D02*
X158115000Y-61450000D01*
X158115000Y-61450000D02*
X157375000Y-60710000D01*
X157375000Y-60710000D02*
X156792400Y-60710000D01*
X156792400Y-60710000D02*
X156315000Y-60710000D01*
X158115000Y-61700000D02*
X157585000Y-62230000D01*
X158115000Y-61575000D02*
X158115000Y-61700000D01*
D32*
X149149934Y-91514180D02*
X149149934Y-91009490D01*
X149149934Y-91688266D02*
X149149934Y-91514180D01*
X147513200Y-93325000D02*
X149149934Y-91688266D01*
X146685000Y-93325000D02*
X147513200Y-93325000D01*
X162293282Y-70599166D02*
X162610934Y-70916818D01*
X160807400Y-77470000D02*
X160655000Y-77470000D01*
X158598200Y-72050000D02*
X159680590Y-70967610D01*
X162610934Y-70916818D02*
X162610934Y-75666466D01*
X158010000Y-72050000D02*
X158598200Y-72050000D01*
X161706844Y-70599166D02*
X162293282Y-70599166D01*
X162610934Y-75666466D02*
X160807400Y-77470000D01*
X161338400Y-70967610D02*
X161706844Y-70599166D01*
X159680590Y-70967610D02*
X161338400Y-70967610D01*
X158115000Y-81935000D02*
X158115000Y-79857600D01*
X158115000Y-79857600D02*
X160502600Y-77470000D01*
X160502600Y-77470000D02*
X160655000Y-77470000D01*
X157042004Y-73095742D02*
X157359656Y-72778090D01*
X157359656Y-71987856D02*
X157185000Y-71813200D01*
X157359656Y-72778090D02*
X157359656Y-71987856D01*
X155235000Y-72095230D02*
X156235512Y-73095742D01*
X155235000Y-71225000D02*
X155235000Y-72095230D01*
X157185000Y-71813200D02*
X157185000Y-71225000D01*
X156235512Y-73095742D02*
X157042004Y-73095742D01*
X149700411Y-85170411D02*
X149508711Y-84978711D01*
X150536019Y-85170411D02*
X149700411Y-85170411D01*
X149508711Y-84978711D02*
X148530176Y-84978711D01*
X148447145Y-84895680D02*
X148090276Y-84538811D01*
X155725173Y-84874222D02*
X155709841Y-84858890D01*
X148530176Y-84978711D02*
X148447145Y-84895680D01*
X156229863Y-84874222D02*
X155725173Y-84874222D01*
X150847540Y-84858890D02*
X150536019Y-85170411D01*
X155709841Y-84858890D02*
X150847540Y-84858890D01*
D33*
X143534131Y-65175131D02*
X143891000Y-65532000D01*
X143891000Y-61849000D02*
X143534131Y-62205869D01*
X143534131Y-62205869D02*
X143534131Y-65175131D01*
D32*
X146787869Y-79399131D02*
X146431000Y-79756000D01*
X149606000Y-75819000D02*
X149606000Y-76581000D01*
X149606000Y-76581000D02*
X146787869Y-79399131D01*
X147733407Y-84181942D02*
X148090276Y-84538811D01*
X146705000Y-83153535D02*
X147733407Y-84181942D01*
X146705000Y-81915000D02*
X146705000Y-83153535D01*
D33*
X158070780Y-100692474D02*
X158575470Y-100692474D01*
X155150074Y-100692474D02*
X158070780Y-100692474D01*
X153670000Y-99212400D02*
X155150074Y-100692474D01*
X140817600Y-90170000D02*
X140970000Y-90170000D01*
X139598400Y-91389200D02*
X140817600Y-90170000D01*
X139598400Y-98340796D02*
X139598400Y-91389200D01*
X142171814Y-100914210D02*
X139598400Y-98340796D01*
X151968190Y-100914210D02*
X142171814Y-100914210D01*
X153670000Y-99212400D02*
X151968190Y-100914210D01*
X153670000Y-99060000D02*
X153670000Y-99212400D01*
X153670000Y-99060000D02*
X153670000Y-98907600D01*
X149860000Y-75819000D02*
X149606000Y-75819000D01*
X149606000Y-75819000D02*
X148463000Y-74676000D01*
X146939000Y-61849000D02*
X147300000Y-61488000D01*
X147300000Y-61488000D02*
X147300000Y-60325000D01*
X143891000Y-61849000D02*
X146939000Y-61849000D01*
D32*
X158085000Y-63880110D02*
X158085000Y-64205000D01*
X157425500Y-63220610D02*
X158085000Y-63880110D01*
X156575610Y-63220610D02*
X157425500Y-63220610D01*
X156218200Y-62863200D02*
X156575610Y-63220610D01*
X155690000Y-62335000D02*
X155690000Y-62485000D01*
X156068200Y-62863200D02*
X156218200Y-62863200D01*
X155690000Y-62485000D02*
X156068200Y-62863200D01*
X156229863Y-83945137D02*
X156229863Y-84369532D01*
X158115000Y-81935000D02*
X158115000Y-82060000D01*
X158115000Y-82060000D02*
X156229863Y-83945137D01*
X156229863Y-84369532D02*
X156229863Y-84874222D01*
X157970000Y-93345000D02*
X156340109Y-91715109D01*
X156340109Y-91715109D02*
X155688899Y-91715109D01*
X158095000Y-93345000D02*
X157970000Y-93345000D01*
X155688899Y-91715109D02*
X155184209Y-91715109D01*
X146431000Y-80812800D02*
X146431000Y-79756000D01*
X146705000Y-81086800D02*
X146431000Y-80812800D01*
X146705000Y-81915000D02*
X146705000Y-81086800D01*
X157593200Y-71225000D02*
X157185000Y-71225000D01*
X158010000Y-71641800D02*
X157593200Y-71225000D01*
X158010000Y-72050000D02*
X158010000Y-71641800D01*
X158085000Y-65746800D02*
X158085000Y-64205000D01*
X158085000Y-66605000D02*
X158085000Y-65746800D01*
X157185000Y-70526000D02*
X157185000Y-71225000D01*
X157480000Y-70231000D02*
X157185000Y-70526000D01*
X158464001Y-70043201D02*
X158276202Y-70231000D01*
X158085000Y-67463200D02*
X158464001Y-67842201D01*
X158276202Y-70231000D02*
X157480000Y-70231000D01*
X158464001Y-67842201D02*
X158464001Y-70043201D01*
X158085000Y-66605000D02*
X158085000Y-67463200D01*
X155690000Y-61806800D02*
X155690000Y-62335000D01*
X154093200Y-60210000D02*
X155690000Y-61806800D01*
X153565000Y-60210000D02*
X154093200Y-60210000D01*
D31*
X151589579Y-68361399D02*
X151370978Y-68580000D01*
X151370978Y-68580000D02*
X149860000Y-68580000D01*
X157629860Y-68079620D02*
X157125170Y-68079620D01*
X157125170Y-68079620D02*
X156843391Y-68361399D01*
X156843391Y-68361399D02*
X151589579Y-68361399D01*
X143634460Y-69321680D02*
X143634460Y-68985540D01*
X143634460Y-68985540D02*
X144675000Y-67945000D01*
X144675000Y-67945000D02*
X144800000Y-67945000D01*
X144056100Y-69743320D02*
X143634460Y-69321680D01*
X139725390Y-81290170D02*
X143852900Y-77162660D01*
X140365192Y-86182210D02*
X139725390Y-85542408D01*
X144600931Y-87339169D02*
X142376187Y-87339169D01*
X144957800Y-86982300D02*
X144600931Y-87339169D01*
X141219228Y-86182210D02*
X140365192Y-86182210D01*
X142376187Y-87339169D02*
X141219228Y-86182210D01*
X139725390Y-85542408D02*
X139725390Y-81290170D01*
X144800000Y-68722400D02*
X147830060Y-71752460D01*
X144800000Y-67945000D02*
X144800000Y-68722400D01*
X147830060Y-71752460D02*
X148762720Y-71752460D01*
X144800000Y-67945000D02*
X142875000Y-67945000D01*
X142875000Y-67945000D02*
X142240000Y-68580000D01*
D33*
X149606000Y-45720000D02*
X148590000Y-46736000D01*
X148590000Y-46736000D02*
X148590000Y-54991000D01*
X151130000Y-45720000D02*
X149606000Y-45720000D01*
X154355799Y-44373799D02*
X163830000Y-53848000D01*
X163830000Y-53848000D02*
X163830000Y-55118000D01*
X151130000Y-45720000D02*
X152476201Y-44373799D01*
X152476201Y-44373799D02*
X154355799Y-44373799D01*
X141122400Y-87630000D02*
X140970000Y-87630000D01*
X142341600Y-93179102D02*
X142341600Y-88849200D01*
X142341600Y-88849200D02*
X141122400Y-87630000D01*
X141859000Y-99882962D02*
X141859000Y-93661702D01*
X152323810Y-98374190D02*
X152323810Y-99706892D01*
X156210000Y-98907600D02*
X156210000Y-99060000D01*
X154990800Y-97688400D02*
X153009600Y-97688400D01*
X141859000Y-93661702D02*
X142341600Y-93179102D01*
X142382239Y-100406201D02*
X141859000Y-99882962D01*
X156210000Y-98907600D02*
X154990800Y-97688400D01*
X152323810Y-99706892D02*
X151624501Y-100406201D01*
X153009600Y-97688400D02*
X152323810Y-98374190D01*
X151624501Y-100406201D02*
X142382239Y-100406201D01*
D31*
X154723643Y-73350000D02*
X154947492Y-73573849D01*
X154410000Y-73350000D02*
X154723643Y-73350000D01*
X154947492Y-73573849D02*
X155304361Y-73930718D01*
X154884120Y-75882500D02*
X154884120Y-77394120D01*
X154884120Y-77394120D02*
X154960000Y-77470000D01*
D32*
X152217798Y-73350000D02*
X153821800Y-73350000D01*
X151495999Y-72628201D02*
X152217798Y-73350000D01*
X151495999Y-70721799D02*
X151495999Y-72628201D01*
X153002798Y-69215000D02*
X151495999Y-70721799D01*
X153821800Y-73350000D02*
X154410000Y-73350000D01*
X154960000Y-69215000D02*
X153002798Y-69215000D01*
X157335000Y-69215000D02*
X156446000Y-70104000D01*
X157460000Y-69215000D02*
X157335000Y-69215000D01*
X153253200Y-71675000D02*
X152400000Y-71675000D01*
X154824200Y-70104000D02*
X153253200Y-71675000D01*
X156446000Y-70104000D02*
X154824200Y-70104000D01*
D31*
X147868640Y-79308960D02*
X148225509Y-78952091D01*
X148225509Y-78952091D02*
X148225509Y-78566009D01*
X148225509Y-78566009D02*
X149207218Y-77584300D01*
X149207218Y-77584300D02*
X150469600Y-77584300D01*
X159258000Y-76227940D02*
X159258000Y-76213337D01*
X159258000Y-76213337D02*
X159228198Y-76183535D01*
X157493969Y-79856331D02*
X159016700Y-78333600D01*
X159016700Y-78333600D02*
X159016700Y-76469240D01*
X159016700Y-76469240D02*
X159258000Y-76227940D01*
X157137100Y-80573880D02*
X157493969Y-80217011D01*
X157493969Y-80217011D02*
X157493969Y-79856331D01*
X161704020Y-82169000D02*
X161704020Y-81059020D01*
X161704020Y-81059020D02*
X159900620Y-79255620D01*
X159517080Y-84355940D02*
X161704020Y-82169000D01*
X159465367Y-75568809D02*
X159933988Y-76037430D01*
X158842353Y-75568809D02*
X159465367Y-75568809D01*
X161244588Y-76037430D02*
X162000063Y-75281955D01*
X162000063Y-71714727D02*
X162000063Y-71210037D01*
X162000063Y-75281955D02*
X162000063Y-71714727D01*
X158537909Y-75873253D02*
X158842353Y-75568809D01*
X156088330Y-80619302D02*
X158537909Y-78169723D01*
X155583640Y-80619302D02*
X156088330Y-80619302D01*
X158537909Y-78169723D02*
X158537909Y-75873253D01*
X159933988Y-76037430D02*
X161244588Y-76037430D01*
X148576820Y-94972965D02*
X149081510Y-94972965D01*
X143510000Y-99060000D02*
X143510000Y-98907600D01*
X147444635Y-94972965D02*
X148576820Y-94972965D01*
X143510000Y-98907600D02*
X147444635Y-94972965D01*
X146050000Y-98907600D02*
X149952259Y-95005341D01*
X149952259Y-95005341D02*
X149952259Y-94894091D01*
X146050000Y-99060000D02*
X146050000Y-98907600D01*
X150510813Y-95163546D02*
X150867682Y-94806677D01*
X148590000Y-97084359D02*
X150510813Y-95163546D01*
X148590000Y-99060000D02*
X148590000Y-97084359D01*
X151130000Y-99060000D02*
X151130000Y-95829227D01*
X151730998Y-95228229D02*
X151730998Y-94736643D01*
X151130000Y-95829227D02*
X151730998Y-95228229D01*
X150702981Y-84528680D02*
X153178994Y-84528680D01*
X149498049Y-84453729D02*
X149498049Y-84501062D01*
X149837188Y-84840201D02*
X150391460Y-84840201D01*
X153211346Y-84496328D02*
X153568215Y-84139459D01*
X149141180Y-84096860D02*
X149498049Y-84453729D01*
X150391460Y-84840201D02*
X150702981Y-84528680D01*
X153178994Y-84528680D02*
X153211346Y-84496328D01*
X149498049Y-84501062D02*
X149837188Y-84840201D01*
X143461740Y-82344260D02*
X141175740Y-82344260D01*
X141175740Y-82344260D02*
X140970000Y-82550000D01*
X145497580Y-82589369D02*
X145140711Y-82232500D01*
X145707100Y-83230720D02*
X145707100Y-82798889D01*
X145707100Y-82798889D02*
X145497580Y-82589369D01*
X152591750Y-79933012D02*
X152591750Y-80437702D01*
X152059640Y-79098140D02*
X152591750Y-79630250D01*
X152591750Y-79630250D02*
X152591750Y-79933012D01*
X145140680Y-84181450D02*
X145140680Y-84686140D01*
X145500091Y-80901255D02*
X144555221Y-81846125D01*
X145140680Y-83427854D02*
X145140680Y-84181450D01*
X144555221Y-81846125D02*
X144555221Y-82842395D01*
X144555221Y-82842395D02*
X145140680Y-83427854D01*
X145856960Y-78839060D02*
X145500091Y-79195929D01*
X145500091Y-79195929D02*
X145500091Y-80901255D01*
X143609060Y-84703920D02*
X141356080Y-84703920D01*
X141356080Y-84703920D02*
X140970000Y-85090000D01*
X159190691Y-81680051D02*
X159190691Y-81099921D01*
X159547560Y-82036920D02*
X159190691Y-81680051D01*
X159190691Y-81099921D02*
X158767227Y-80676457D01*
X148732273Y-87188040D02*
X148697970Y-87222343D01*
X150182580Y-87188040D02*
X148732273Y-87188040D01*
X163677600Y-82550000D02*
X159623760Y-86603840D01*
X159623760Y-86603840D02*
X156707840Y-86603840D01*
X163830000Y-82550000D02*
X163677600Y-82550000D01*
X150730466Y-80420834D02*
X150730466Y-82698571D01*
X151221177Y-83189282D02*
X151225840Y-83184619D01*
X150730466Y-82698571D02*
X151221177Y-83189282D01*
X151225840Y-83184619D02*
X151368758Y-83184619D01*
X151278165Y-86946298D02*
X150921296Y-86589429D01*
X151640540Y-87571580D02*
X151640540Y-87308673D01*
X151640540Y-87308673D02*
X151278165Y-86946298D01*
X147972780Y-93865700D02*
X148477470Y-93865700D01*
X148477470Y-93865700D02*
X151516080Y-90827090D01*
X151516080Y-90827090D02*
X151516080Y-90533220D01*
D33*
X157429200Y-121183400D02*
X156210000Y-122402600D01*
X161290000Y-122555000D02*
X161162134Y-122555000D01*
X159790534Y-121183400D02*
X157429200Y-121183400D01*
X161162134Y-122555000D02*
X159790534Y-121183400D01*
X156210000Y-122402600D02*
X156210000Y-122555000D01*
X151130000Y-122402600D02*
X151130000Y-122555000D01*
X152349200Y-121183400D02*
X151130000Y-122402600D01*
X154139102Y-121183400D02*
X152349200Y-121183400D01*
X155510702Y-122555000D02*
X154139102Y-121183400D01*
X156210000Y-122555000D02*
X155510702Y-122555000D01*
X146050000Y-122402600D02*
X146050000Y-122555000D01*
X147269200Y-121183400D02*
X146050000Y-122402600D01*
X149059102Y-121183400D02*
X147269200Y-121183400D01*
X150430702Y-122555000D02*
X149059102Y-121183400D01*
X151130000Y-122555000D02*
X150430702Y-122555000D01*
D32*
X149860000Y-116920000D02*
X150713200Y-116920000D01*
X150713200Y-116920000D02*
X151003000Y-117209800D01*
X151003000Y-117209800D02*
X151003000Y-120777000D01*
X147320000Y-117535960D02*
X147320000Y-119760202D01*
X149860000Y-120174202D02*
X149860000Y-117873200D01*
X147320000Y-119760202D02*
X147843799Y-120284001D01*
X147843799Y-120284001D02*
X149750201Y-120284001D01*
X149750201Y-120284001D02*
X149860000Y-120174202D01*
X149860000Y-117873200D02*
X149860000Y-116920000D01*
X144677129Y-117106929D02*
X146097000Y-118526800D01*
X144677129Y-116038781D02*
X144677129Y-117106929D01*
X146097000Y-118526800D02*
X146097000Y-119380000D01*
X144994781Y-115721129D02*
X144677129Y-116038781D01*
X145689491Y-115721129D02*
X144994781Y-115721129D01*
X145846973Y-115878611D02*
X145689491Y-115721129D01*
X147320000Y-115827810D02*
X147269199Y-115878611D01*
X147320000Y-114874040D02*
X147320000Y-115827810D01*
X147269199Y-115878611D02*
X145846973Y-115878611D01*
X146097000Y-119380000D02*
X146097000Y-120233200D01*
X146097000Y-120233200D02*
X144932390Y-121397810D01*
X144932390Y-121397810D02*
X144932390Y-123170329D01*
X144932390Y-123170329D02*
X145587071Y-123825010D01*
X145587071Y-123825010D02*
X147472390Y-123825010D01*
X147472390Y-123825010D02*
X148590000Y-122707400D01*
X148590000Y-122707400D02*
X148590000Y-122555000D01*
X152944829Y-117119629D02*
X154352000Y-118526800D01*
X155575000Y-115827810D02*
X155524199Y-115878611D01*
X152944829Y-115967661D02*
X152944829Y-117119629D01*
X153262481Y-115650009D02*
X152944829Y-115967661D01*
X154522169Y-115878611D02*
X154293567Y-115650009D01*
X155524199Y-115878611D02*
X154522169Y-115878611D01*
X155575000Y-114874040D02*
X155575000Y-115827810D01*
X154352000Y-118526800D02*
X154352000Y-119380000D01*
X154293567Y-115650009D02*
X153262481Y-115650009D01*
X154352000Y-119380000D02*
X154352000Y-120062000D01*
X154352000Y-120062000D02*
X155067000Y-120777000D01*
X158115000Y-116920000D02*
X158968200Y-116920000D01*
X158968200Y-116920000D02*
X160274000Y-118225800D01*
X160274000Y-118225800D02*
X160274000Y-120650000D01*
X158115000Y-116920000D02*
X158115000Y-120174202D01*
X158005201Y-120284001D02*
X156098799Y-120284001D01*
X158115000Y-120174202D02*
X158005201Y-120284001D01*
X156098799Y-120284001D02*
X155575000Y-119760202D01*
X155575000Y-119760202D02*
X155575000Y-118489730D01*
X155575000Y-118489730D02*
X155575000Y-117535960D01*
D31*
X149254768Y-88243220D02*
X146452780Y-88243220D01*
X146452780Y-88243220D02*
X143637000Y-91059000D01*
X149389229Y-88108759D02*
X149254768Y-88243220D01*
X143637000Y-93348310D02*
X143637000Y-93853000D01*
X150958270Y-88773000D02*
X150294030Y-88108760D01*
X150294030Y-88108760D02*
X150281457Y-88108758D01*
X152781000Y-88773000D02*
X150958270Y-88773000D01*
X150281457Y-88108758D02*
X149389229Y-88108759D01*
X143637000Y-91059000D02*
X143637000Y-93348310D01*
X143078190Y-91186744D02*
X146326524Y-87938410D01*
X153313131Y-88035131D02*
X153670000Y-88392000D01*
X150420286Y-87803950D02*
X150830700Y-88214364D01*
X142748000Y-96266000D02*
X142748000Y-93875502D01*
X150830700Y-88214364D02*
X151978880Y-88214364D01*
X149128514Y-87938410D02*
X149262974Y-87803950D01*
X143078190Y-93545312D02*
X143078190Y-91186744D01*
X146326524Y-87938410D02*
X149128514Y-87938410D01*
X142748000Y-93875502D02*
X143078190Y-93545312D01*
X149262974Y-87803950D02*
X150420286Y-87803950D01*
X151978880Y-88214364D02*
X152158113Y-88035131D01*
X152158113Y-88035131D02*
X153313131Y-88035131D01*
X150167775Y-88413569D02*
X149515486Y-88413568D01*
X144222471Y-94642909D02*
X143944359Y-94921021D01*
X149381025Y-88548029D02*
X146770114Y-88548029D01*
X149515486Y-88413568D02*
X149381025Y-88548029D01*
X146770114Y-88548029D02*
X144222471Y-91095672D01*
X153670000Y-89535000D02*
X151289206Y-89535000D01*
X143944359Y-94921021D02*
X143587490Y-95277890D01*
X144222471Y-91095672D02*
X144222471Y-94642909D01*
X151289206Y-89535000D02*
X150167775Y-88413569D01*
X146669760Y-116984780D02*
X146035708Y-116350728D01*
X146035708Y-116350728D02*
X145415000Y-116350728D01*
X146669760Y-117535960D02*
X146669760Y-116984780D01*
X149063103Y-89846399D02*
X145902810Y-89846399D01*
X149887027Y-89584529D02*
X149324973Y-89584529D01*
X145902810Y-89846399D02*
X144527281Y-91221928D01*
X144527281Y-91221928D02*
X144527281Y-95612602D01*
X150191471Y-89888973D02*
X149887027Y-89584529D01*
X153670000Y-90805000D02*
X152753973Y-89888973D01*
X149324973Y-89584529D02*
X149063103Y-89846399D01*
X144527281Y-95612602D02*
X143909071Y-96230812D01*
X143909071Y-96230812D02*
X143552202Y-96587681D01*
X152753973Y-89888973D02*
X150191471Y-89888973D01*
X148126688Y-114874040D02*
X148700728Y-114300000D01*
X147970240Y-114874040D02*
X148126688Y-114874040D01*
X163281360Y-101175820D02*
X163281360Y-95008700D01*
X163281360Y-95008700D02*
X161406840Y-93134180D01*
X160239709Y-110608111D02*
X161132520Y-109715300D01*
X161132520Y-109715300D02*
X161132520Y-109324140D01*
X160135569Y-110608111D02*
X160239709Y-110608111D01*
X159778700Y-110964980D02*
X160135569Y-110608111D01*
X156834840Y-110964980D02*
X159778700Y-110964980D01*
X154619960Y-109420660D02*
X159905700Y-109420660D01*
X159905700Y-109420660D02*
X160252427Y-109767387D01*
X160031429Y-103394509D02*
X160213040Y-103576120D01*
X159674560Y-101254560D02*
X160031429Y-101611429D01*
X160031429Y-101611429D02*
X160031429Y-103394509D01*
X154777289Y-110129829D02*
X158961064Y-110129829D01*
X153113740Y-111793378D02*
X154777289Y-110129829D01*
X153113740Y-114584480D02*
X153113740Y-111793378D01*
X158961064Y-110129829D02*
X159465754Y-110129829D01*
X159255431Y-100807191D02*
X159089089Y-100973533D01*
X159395972Y-103358866D02*
X159395972Y-103863556D01*
X159089089Y-103051983D02*
X159395972Y-103358866D01*
X159255431Y-100637796D02*
X159255431Y-100807191D01*
X159612300Y-100280927D02*
X159255431Y-100637796D01*
X159089089Y-100973533D02*
X159089089Y-103051983D01*
X156204920Y-113619280D02*
X156204920Y-114853720D01*
X156204920Y-114853720D02*
X156225240Y-114874040D01*
X155100020Y-95695270D02*
X152560020Y-93155270D01*
X155100020Y-96199960D02*
X155100020Y-95695270D01*
X152560020Y-93155270D02*
X152560020Y-90637360D01*
X153365200Y-86959440D02*
X153869890Y-86959440D01*
X155481020Y-88570570D02*
X155481020Y-89291160D01*
X153869890Y-86959440D02*
X155481020Y-88570570D01*
X154552650Y-116260880D02*
X153555700Y-116260880D01*
X154924760Y-117535960D02*
X154924760Y-116632990D01*
X154924760Y-116632990D02*
X154552650Y-116260880D01*
X161290000Y-107950000D02*
X160302172Y-107950000D01*
X160302172Y-107950000D02*
X153670000Y-107950000D01*
X154335000Y-67678909D02*
X154432000Y-67775909D01*
X154335000Y-66605000D02*
X154335000Y-67678909D01*
X155829000Y-71281000D02*
X155883544Y-71335544D01*
X155883544Y-71355583D02*
X155883544Y-71860273D01*
X155883544Y-71335544D02*
X155883544Y-71355583D01*
X153245820Y-83162140D02*
X153245820Y-80017620D01*
X153245820Y-80017620D02*
X154335480Y-78927960D01*
X152496520Y-83911440D02*
X153245820Y-83162140D01*
X150830280Y-83911440D02*
X152496520Y-83911440D01*
X150334980Y-83416140D02*
X150830280Y-83911440D01*
X153565000Y-62887000D02*
X153924000Y-63246000D01*
X156078601Y-65042881D02*
X156032881Y-65088601D01*
X153924000Y-63246000D02*
X156003202Y-63246000D01*
X153565000Y-61710000D02*
X153565000Y-62887000D01*
X156003202Y-63246000D02*
X156078601Y-63321399D01*
X156078601Y-63321399D02*
X156078601Y-65042881D01*
X156032881Y-65088601D02*
X155461399Y-65088601D01*
X155461399Y-65088601D02*
X154335000Y-66215000D01*
X154335000Y-66215000D02*
X154335000Y-66605000D01*
D32*
X155829000Y-71281000D02*
X155885000Y-71225000D01*
D31*
X155040060Y-79500401D02*
X155396929Y-79143532D01*
X153550630Y-80989831D02*
X155040060Y-79500401D01*
X150149075Y-84223870D02*
X152655796Y-84223870D01*
X150118215Y-84254730D02*
X150149075Y-84223870D01*
X153550630Y-83329036D02*
X153550630Y-80989831D01*
X152655796Y-84223870D02*
X153550630Y-83329036D01*
X156535000Y-72151098D02*
X156748766Y-72364864D01*
X156535000Y-71225000D02*
X156535000Y-72151098D01*
X155793272Y-65440728D02*
X155585000Y-65649000D01*
X155585000Y-65649000D02*
X155585000Y-66605000D01*
X156591000Y-65440728D02*
X155793272Y-65440728D01*
X154190000Y-62335000D02*
X154190000Y-61735742D01*
X154190000Y-61735742D02*
X154415124Y-61510618D01*
X155585000Y-67574000D02*
X155702000Y-67691000D01*
X155585000Y-66605000D02*
X155585000Y-67574000D01*
M02*
