%FSLAX46Y46*%
G04 Gerber Fmt 4.6, Leading zero omitted, Abs format (unit mm)*
G04 Created by KiCad (PCBNEW (20140926 BZR5148)-product) date Fri 30 Jan 2015 01:27:10 AM CST*
%MOMM*%
G01*
G04 APERTURE LIST*
%ADD10C,0.100000*%
%ADD11R,2.032000X1.727200*%
%ADD12O,2.032000X1.727200*%
%ADD13R,1.500000X1.250000*%
%ADD14R,1.250000X1.500000*%
%ADD15R,2.032000X1.524000*%
%ADD16R,2.032000X2.032000*%
%ADD17O,2.032000X2.032000*%
%ADD18R,1.727200X2.032000*%
%ADD19O,1.727200X2.032000*%
%ADD20R,0.398780X1.501140*%
%ADD21R,1.300000X1.500000*%
%ADD22R,1.500000X1.300000*%
%ADD23C,1.397000*%
%ADD24R,0.530000X1.310000*%
%ADD25R,0.650000X0.350000*%
%ADD26R,0.350000X0.650000*%
%ADD27R,0.410000X0.770000*%
%ADD28R,0.770000X0.410000*%
%ADD29C,3.500000*%
G04 APERTURE END LIST*
D10*
D11*
X160528000Y-77470000D03*
D12*
X160528000Y-74930000D03*
X160528000Y-72390000D03*
X160528000Y-69850000D03*
X160528000Y-67310000D03*
X160528000Y-64770000D03*
D13*
X147300000Y-60325000D03*
X144800000Y-60325000D03*
X147300000Y-63500000D03*
X144800000Y-63500000D03*
X156190000Y-57785000D03*
X153690000Y-57785000D03*
D14*
X158115000Y-61575000D03*
X158115000Y-59075000D03*
X146685000Y-93325000D03*
X146685000Y-90825000D03*
D13*
X144800000Y-67945000D03*
X147300000Y-67945000D03*
X158095000Y-93345000D03*
X155595000Y-93345000D03*
D14*
X158115000Y-81935000D03*
X158115000Y-84435000D03*
D13*
X146705000Y-81915000D03*
X149205000Y-81915000D03*
X154960000Y-77470000D03*
X157460000Y-77470000D03*
X154960000Y-69215000D03*
X157460000Y-69215000D03*
D15*
X149860000Y-75819000D03*
X149860000Y-79121000D03*
D16*
X151130000Y-45720000D03*
D17*
X153670000Y-45720000D03*
D16*
X161290000Y-116840000D03*
D17*
X161290000Y-114300000D03*
D18*
X143510000Y-122555000D03*
D19*
X146050000Y-122555000D03*
X148590000Y-122555000D03*
X151130000Y-122555000D03*
X153670000Y-122555000D03*
X156210000Y-122555000D03*
X158750000Y-122555000D03*
X161290000Y-122555000D03*
D20*
X147970240Y-117535960D03*
X147320000Y-117535960D03*
X146669760Y-117535960D03*
X146669760Y-114874040D03*
X147320000Y-114874040D03*
X147970240Y-114874040D03*
X154924760Y-114874040D03*
X155575000Y-114874040D03*
X156225240Y-114874040D03*
X156225240Y-117535960D03*
X155575000Y-117535960D03*
X154924760Y-117535960D03*
D21*
X152400000Y-71675000D03*
X152400000Y-74375000D03*
X149860000Y-116920000D03*
X149860000Y-114220000D03*
D22*
X146097000Y-119380000D03*
X148797000Y-119380000D03*
X154352000Y-119380000D03*
X157052000Y-119380000D03*
D21*
X158115000Y-116920000D03*
X158115000Y-114220000D03*
D23*
X161290000Y-102870000D03*
X161290000Y-107950000D03*
X153670000Y-102870000D03*
X153670000Y-107950000D03*
X149860000Y-68580000D03*
X149860000Y-73660000D03*
X142240000Y-68580000D03*
X142240000Y-73660000D03*
D24*
X154335000Y-64205000D03*
X155585000Y-64205000D03*
X156835000Y-64205000D03*
X158085000Y-64205000D03*
X158085000Y-66605000D03*
X156835000Y-66605000D03*
X155585000Y-66605000D03*
X154335000Y-66605000D03*
D11*
X140970000Y-82550000D03*
D12*
X140970000Y-85090000D03*
X140970000Y-87630000D03*
X140970000Y-90170000D03*
X140970000Y-92710000D03*
D11*
X163830000Y-82550000D03*
D12*
X163830000Y-85090000D03*
X163830000Y-87630000D03*
X163830000Y-90170000D03*
X163830000Y-92710000D03*
D18*
X143510000Y-99060000D03*
D19*
X146050000Y-99060000D03*
X148590000Y-99060000D03*
X151130000Y-99060000D03*
X153670000Y-99060000D03*
X156210000Y-99060000D03*
X158750000Y-99060000D03*
X161290000Y-99060000D03*
D25*
X153565000Y-61710000D03*
X153565000Y-61210000D03*
X153565000Y-60710000D03*
X153565000Y-60210000D03*
D26*
X154190000Y-59585000D03*
X154690000Y-59585000D03*
X155190000Y-59585000D03*
X155690000Y-59585000D03*
D25*
X156315000Y-60210000D03*
X156315000Y-60710000D03*
X156315000Y-61210000D03*
X156315000Y-61710000D03*
D26*
X155690000Y-62335000D03*
X155190000Y-62335000D03*
X154690000Y-62335000D03*
X154190000Y-62335000D03*
D27*
X155235000Y-71225000D03*
X155885000Y-71225000D03*
X156535000Y-71225000D03*
X157185000Y-71225000D03*
D28*
X158010000Y-72050000D03*
X158010000Y-72700000D03*
X158010000Y-73350000D03*
X158010000Y-74000000D03*
D27*
X157185000Y-74825000D03*
X156535000Y-74825000D03*
X155885000Y-74825000D03*
X155235000Y-74825000D03*
D28*
X154410000Y-74000000D03*
X154410000Y-73350000D03*
X154410000Y-72700000D03*
X154410000Y-72050000D03*
D29*
X152400000Y-53340000D03*
M02*
